<?xml version="1.0" encoding="utf-8" standalone="no"?>
<!DOCTYPE svg PUBLIC "-//W3C//DTD SVG 1.1//EN"
  "http://www.w3.org/Graphics/SVG/1.1/DTD/svg11.dtd">
<svg xmlns:xlink="http://www.w3.org/1999/xlink" width="375pt" height="243.75pt" viewBox="0 0 375 243.75" xmlns="http://www.w3.org/2000/svg" version="1.1">
 <metadata>
  <rdf:RDF xmlns:dc="http://purl.org/dc/elements/1.1/" xmlns:cc="http://creativecommons.org/ns#" xmlns:rdf="http://www.w3.org/1999/02/22-rdf-syntax-ns#">
   <cc:Work>
    <dc:type rdf:resource="http://purl.org/dc/dcmitype/StillImage"/>
    <dc:date>2023-03-07T09:45:33.545162</dc:date>
    <dc:format>image/svg+xml</dc:format>
    <dc:creator>
     <cc:Agent>
      <dc:title>Matplotlib v3.6.3, https://matplotlib.org/</dc:title>
     </cc:Agent>
    </dc:creator>
   </cc:Work>
  </rdf:RDF>
 </metadata>
 <defs>
  <style type="text/css">*{stroke-linejoin: round; stroke-linecap: butt}</style>
 </defs>
 <g id="figure_1">
  <g id="patch_1">
   <path d="M 0 243.75 
L 375 243.75 
L 375 0 
L 0 0 
z
" style="fill: #ffffff"/>
  </g>
  <g id="axes_1">
   <g id="patch_2">
    <path d="M 45.065006 231.000737 
L 371.99976 231.000737 
L 371.99976 16.680006 
L 45.065006 16.680006 
z
" style="fill: #ffffff"/>
   </g>
   <path d="M 176.802357 98.300876 
L 177.802357 98.332312 
L 178.802357 98.369252 
L 179.802357 98.466999 
L 180.802357 98.499521 
L 181.802357 98.573145 
L 182.802357 98.611711 
L 183.802357 98.647124 
L 184.802357 98.704764 
L 185.802357 98.77515 
L 186.802357 98.827114 
L 187.802357 98.886204 
L 188.802357 98.974525 
L 189.802357 99.020669 
L 190.802357 99.06308 
L 191.802357 99.093573 
L 192.802357 99.119618 
L 193.802357 99.140818 
L 194.802357 99.195119 
L 195.802357 99.223057 
L 196.802357 99.252781 
L 197.802357 99.278175 
L 198.802357 99.289376 
L 199.802357 99.2995 
L 200.802357 99.299296 
L 201.802357 99.289786 
L 202.802357 99.278132 
L 203.802357 99.247103 
L 204.802357 99.235935 
L 205.802357 99.205817 
L 206.802357 99.14604 
L 207.802357 99.108849 
L 208.802357 99.069753 
L 209.802357 99.027313 
L 210.802357 98.994548 
L 211.802357 98.927122 
L 212.802357 98.887996 
L 213.802357 98.845321 
L 214.802357 98.774741 
L 215.802357 98.73835 
L 216.802357 98.679946 
L 217.802357 98.568994 
L 218.802357 98.498336 
L 219.802357 98.385396 
L 220.802357 98.339623 
L 221.802357 98.27834 
L 223.677397 98.22984 
" clip-path="url(#p516e03fcee)" style="fill: none; stroke: #ff7f0e; stroke-opacity: 0.5; stroke-width: 0.2; stroke-linecap: square"/>
   <path d="M 176.802357 155.752138 
L 177.802357 155.783575 
L 178.802357 155.820515 
L 179.802357 155.918262 
L 180.802357 155.950783 
L 181.802357 156.024408 
L 182.802357 156.062973 
L 183.802357 156.098387 
L 184.802357 156.156026 
L 185.802357 156.226413 
L 186.802357 156.278377 
L 187.802357 156.337467 
L 188.802357 156.425788 
L 189.802357 156.471932 
L 190.802357 156.514343 
L 191.802357 156.544836 
L 192.802357 156.57088 
L 193.802357 156.592081 
L 194.802357 156.646382 
L 195.802357 156.674319 
L 196.802357 156.704043 
L 197.802357 156.729438 
L 198.802357 156.740638 
L 199.802357 156.750762 
L 200.802357 156.750558 
L 201.802357 156.741048 
L 202.802357 156.729395 
L 203.802357 156.698365 
L 204.802357 156.687197 
L 205.802357 156.65708 
L 206.802357 156.597303 
L 207.802357 156.560111 
L 208.802357 156.521015 
L 209.802357 156.478576 
L 210.802357 156.445811 
L 211.802357 156.378384 
L 212.802357 156.339258 
L 213.802357 156.296584 
L 214.802357 156.226003 
L 215.802357 156.189612 
L 216.802357 156.131209 
L 217.802357 156.020256 
L 218.802357 155.949598 
L 219.802357 155.836658 
L 220.802357 155.790885 
L 221.802357 155.729602 
L 223.677397 155.681103 
" clip-path="url(#p516e03fcee)" style="fill: none; stroke: #ff7f0e; stroke-opacity: 0.5; stroke-width: 0.2; stroke-linecap: square"/>
   <path d="M 176.802357 83.78847 
L 177.802357 83.819906 
L 178.802357 83.856846 
L 179.802357 83.954593 
L 180.802357 83.987114 
L 181.802357 84.060739 
L 182.802357 84.099305 
L 183.802357 84.134718 
L 184.802357 84.192358 
L 185.802357 84.262744 
L 186.802357 84.314708 
L 187.802357 84.373798 
L 188.802357 84.462119 
L 189.802357 84.508263 
L 190.802357 84.550674 
L 191.802357 84.581167 
L 192.802357 84.607212 
L 193.802357 84.628412 
L 194.802357 84.682713 
L 195.802357 84.710651 
L 196.802357 84.740375 
L 197.802357 84.765769 
L 198.802357 84.77697 
L 199.802357 84.787094 
L 200.802357 84.786889 
L 201.802357 84.777379 
L 202.802357 84.765726 
L 203.802357 84.734697 
L 204.802357 84.723529 
L 205.802357 84.693411 
L 206.802357 84.633634 
L 207.802357 84.596443 
L 208.802357 84.557347 
L 209.802357 84.514907 
L 210.802357 84.482142 
L 211.802357 84.414715 
L 212.802357 84.375589 
L 213.802357 84.332915 
L 214.802357 84.262334 
L 215.802357 84.225943 
L 216.802357 84.16754 
L 217.802357 84.056588 
L 218.802357 83.985929 
L 219.802357 83.87299 
L 220.802357 83.827217 
L 221.802357 83.765933 
L 223.677397 83.717434 
" clip-path="url(#p516e03fcee)" style="fill: none; stroke: #ff7f0e; stroke-opacity: 0.5; stroke-width: 0.2; stroke-linecap: square"/>
   <path d="M 176.802357 111.432396 
L 177.802357 111.463832 
L 178.802357 111.500773 
L 179.802357 111.598519 
L 180.802357 111.631041 
L 181.802357 111.704666 
L 182.802357 111.743231 
L 183.802357 111.778644 
L 184.802357 111.836284 
L 185.802357 111.90667 
L 186.802357 111.958635 
L 187.802357 112.017724 
L 188.802357 112.106045 
L 189.802357 112.15219 
L 190.802357 112.194601 
L 191.802357 112.225093 
L 192.802357 112.251138 
L 193.802357 112.272338 
L 194.802357 112.326639 
L 195.802357 112.354577 
L 196.802357 112.384301 
L 197.802357 112.409696 
L 198.802357 112.420896 
L 199.802357 112.43102 
L 200.802357 112.430816 
L 201.802357 112.421306 
L 202.802357 112.409652 
L 203.802357 112.378623 
L 204.802357 112.367455 
L 205.802357 112.337338 
L 206.802357 112.277561 
L 207.802357 112.240369 
L 208.802357 112.201273 
L 209.802357 112.158833 
L 210.802357 112.126068 
L 211.802357 112.058642 
L 212.802357 112.019516 
L 213.802357 111.976841 
L 214.802357 111.906261 
L 215.802357 111.86987 
L 216.802357 111.811467 
L 217.802357 111.700514 
L 218.802357 111.629856 
L 219.802357 111.516916 
L 220.802357 111.471143 
L 221.802357 111.40986 
L 223.677397 111.361361 
" clip-path="url(#p516e03fcee)" style="fill: none; stroke: #ff7f0e; stroke-opacity: 0.5; stroke-width: 0.2; stroke-linecap: square"/>
   <path d="M 176.802357 214.85341 
L 177.802357 214.884847 
L 178.802357 214.921787 
L 179.802357 215.019533 
L 180.802357 215.052055 
L 181.802357 215.12568 
L 182.802357 215.164245 
L 183.802357 215.199659 
L 184.802357 215.257298 
L 185.802357 215.327685 
L 186.802357 215.379649 
L 187.802357 215.438739 
L 188.802357 215.52706 
L 189.802357 215.573204 
L 190.802357 215.615615 
L 191.802357 215.646107 
L 192.802357 215.672152 
L 193.802357 215.693353 
L 194.802357 215.747654 
L 195.802357 215.775591 
L 196.802357 215.805315 
L 197.802357 215.83071 
L 198.802357 215.84191 
L 199.802357 215.852034 
L 200.802357 215.85183 
L 201.802357 215.84232 
L 202.802357 215.830667 
L 203.802357 215.799637 
L 204.802357 215.788469 
L 205.802357 215.758352 
L 206.802357 215.698575 
L 207.802357 215.661383 
L 208.802357 215.622287 
L 209.802357 215.579848 
L 210.802357 215.547083 
L 211.802357 215.479656 
L 212.802357 215.44053 
L 213.802357 215.397856 
L 214.802357 215.327275 
L 215.802357 215.290884 
L 216.802357 215.232481 
L 217.802357 215.121528 
L 218.802357 215.05087 
L 219.802357 214.93793 
L 220.802357 214.892157 
L 221.802357 214.830874 
L 223.677397 214.782375 
" clip-path="url(#p516e03fcee)" style="fill: none; stroke: #ff7f0e; stroke-opacity: 0.5; stroke-width: 0.2; stroke-linecap: square"/>
   <path d="M 176.802357 63.72386 
L 177.802357 63.755297 
L 178.802357 63.792237 
L 179.802357 63.889983 
L 180.802357 63.922505 
L 181.802357 63.99613 
L 182.802357 64.034695 
L 183.802357 64.070109 
L 184.802357 64.127748 
L 185.802357 64.198135 
L 186.802357 64.250099 
L 187.802357 64.309189 
L 188.802357 64.39751 
L 189.802357 64.443654 
L 190.802357 64.486065 
L 191.802357 64.516558 
L 192.802357 64.542602 
L 193.802357 64.563803 
L 194.802357 64.618104 
L 195.802357 64.646041 
L 196.802357 64.675765 
L 197.802357 64.70116 
L 198.802357 64.71236 
L 199.802357 64.722484 
L 200.802357 64.72228 
L 201.802357 64.71277 
L 202.802357 64.701117 
L 203.802357 64.670087 
L 204.802357 64.658919 
L 205.802357 64.628802 
L 206.802357 64.569025 
L 207.802357 64.531833 
L 208.802357 64.492737 
L 209.802357 64.450298 
L 210.802357 64.417533 
L 211.802357 64.350106 
L 212.802357 64.31098 
L 213.802357 64.268306 
L 214.802357 64.197725 
L 215.802357 64.161334 
L 216.802357 64.102931 
L 217.802357 63.991978 
L 218.802357 63.92132 
L 219.802357 63.80838 
L 220.802357 63.762607 
L 221.802357 63.701324 
L 223.677397 63.652825 
" clip-path="url(#p516e03fcee)" style="fill: none; stroke: #ff7f0e; stroke-opacity: 0.5; stroke-width: 0.2; stroke-linecap: square"/>
   <path d="M 176.802357 100.498323 
L 177.802357 100.529759 
L 178.802357 100.566699 
L 179.802357 100.664446 
L 180.802357 100.696968 
L 181.802357 100.770592 
L 182.802357 100.809158 
L 183.802357 100.844571 
L 184.802357 100.902211 
L 185.802357 100.972597 
L 186.802357 101.024561 
L 187.802357 101.083651 
L 188.802357 101.171972 
L 189.802357 101.218116 
L 190.802357 101.260527 
L 191.802357 101.29102 
L 192.802357 101.317065 
L 193.802357 101.338265 
L 194.802357 101.392566 
L 195.802357 101.420504 
L 196.802357 101.450228 
L 197.802357 101.475622 
L 198.802357 101.486823 
L 199.802357 101.496947 
L 200.802357 101.496743 
L 201.802357 101.487233 
L 202.802357 101.475579 
L 203.802357 101.44455 
L 204.802357 101.433382 
L 205.802357 101.403264 
L 206.802357 101.343487 
L 207.802357 101.306296 
L 208.802357 101.2672 
L 209.802357 101.22476 
L 210.802357 101.191995 
L 211.802357 101.124569 
L 212.802357 101.085443 
L 213.802357 101.042768 
L 214.802357 100.972188 
L 215.802357 100.935797 
L 216.802357 100.877393 
L 217.802357 100.766441 
L 218.802357 100.695783 
L 219.802357 100.582843 
L 220.802357 100.53707 
L 221.802357 100.475787 
L 223.677397 100.427287 
" clip-path="url(#p516e03fcee)" style="fill: none; stroke: #ff7f0e; stroke-opacity: 0.5; stroke-width: 0.2; stroke-linecap: square"/>
   <path d="M 176.802357 96.224835 
L 177.802357 96.256272 
L 178.802357 96.293212 
L 179.802357 96.390959 
L 180.802357 96.42348 
L 181.802357 96.497105 
L 182.802357 96.535671 
L 183.802357 96.571084 
L 184.802357 96.628724 
L 185.802357 96.69911 
L 186.802357 96.751074 
L 187.802357 96.810164 
L 188.802357 96.898485 
L 189.802357 96.944629 
L 190.802357 96.98704 
L 191.802357 97.017533 
L 192.802357 97.043578 
L 193.802357 97.064778 
L 194.802357 97.119079 
L 195.802357 97.147016 
L 196.802357 97.17674 
L 197.802357 97.202135 
L 198.802357 97.213336 
L 199.802357 97.22346 
L 200.802357 97.223255 
L 201.802357 97.213745 
L 202.802357 97.202092 
L 203.802357 97.171063 
L 204.802357 97.159895 
L 205.802357 97.129777 
L 206.802357 97.07 
L 207.802357 97.032809 
L 208.802357 96.993713 
L 209.802357 96.951273 
L 210.802357 96.918508 
L 211.802357 96.851081 
L 212.802357 96.811955 
L 213.802357 96.769281 
L 214.802357 96.6987 
L 215.802357 96.662309 
L 216.802357 96.603906 
L 217.802357 96.492954 
L 218.802357 96.422295 
L 219.802357 96.309355 
L 220.802357 96.263583 
L 221.802357 96.202299 
L 223.677397 96.1538 
" clip-path="url(#p516e03fcee)" style="fill: none; stroke: #ff7f0e; stroke-opacity: 0.5; stroke-width: 0.2; stroke-linecap: square"/>
   <path d="M 176.802357 209.034811 
L 177.802357 209.066247 
L 178.802357 209.103187 
L 179.802357 209.200934 
L 180.802357 209.233456 
L 181.802357 209.30708 
L 182.802357 209.345646 
L 183.802357 209.381059 
L 184.802357 209.438699 
L 185.802357 209.509085 
L 186.802357 209.561049 
L 187.802357 209.620139 
L 188.802357 209.70846 
L 189.802357 209.754604 
L 190.802357 209.797015 
L 191.802357 209.827508 
L 192.802357 209.853553 
L 193.802357 209.874753 
L 194.802357 209.929054 
L 195.802357 209.956992 
L 196.802357 209.986716 
L 197.802357 210.01211 
L 198.802357 210.023311 
L 199.802357 210.033435 
L 200.802357 210.03323 
L 201.802357 210.023721 
L 202.802357 210.012067 
L 203.802357 209.981038 
L 204.802357 209.96987 
L 205.802357 209.939752 
L 206.802357 209.879975 
L 207.802357 209.842784 
L 208.802357 209.803688 
L 209.802357 209.761248 
L 210.802357 209.728483 
L 211.802357 209.661057 
L 212.802357 209.621931 
L 213.802357 209.579256 
L 214.802357 209.508675 
L 215.802357 209.472285 
L 216.802357 209.413881 
L 217.802357 209.302929 
L 218.802357 209.232271 
L 219.802357 209.119331 
L 220.802357 209.073558 
L 221.802357 209.012275 
L 223.677397 208.963775 
" clip-path="url(#p516e03fcee)" style="fill: none; stroke: #ff7f0e; stroke-opacity: 0.5; stroke-width: 0.2; stroke-linecap: square"/>
   <path d="M 176.802357 153.779102 
L 177.802357 153.810538 
L 178.802357 153.847479 
L 179.802357 153.945225 
L 180.802357 153.977747 
L 181.802357 154.051371 
L 182.802357 154.089937 
L 183.802357 154.12535 
L 184.802357 154.18299 
L 185.802357 154.253376 
L 186.802357 154.30534 
L 187.802357 154.36443 
L 188.802357 154.452751 
L 189.802357 154.498895 
L 190.802357 154.541306 
L 191.802357 154.571799 
L 192.802357 154.597844 
L 193.802357 154.619044 
L 194.802357 154.673345 
L 195.802357 154.701283 
L 196.802357 154.731007 
L 197.802357 154.756402 
L 198.802357 154.767602 
L 199.802357 154.777726 
L 200.802357 154.777522 
L 201.802357 154.768012 
L 202.802357 154.756358 
L 203.802357 154.725329 
L 204.802357 154.714161 
L 205.802357 154.684043 
L 206.802357 154.624267 
L 207.802357 154.587075 
L 208.802357 154.547979 
L 209.802357 154.505539 
L 210.802357 154.472774 
L 211.802357 154.405348 
L 212.802357 154.366222 
L 213.802357 154.323547 
L 214.802357 154.252967 
L 215.802357 154.216576 
L 216.802357 154.158173 
L 217.802357 154.04722 
L 218.802357 153.976562 
L 219.802357 153.863622 
L 220.802357 153.817849 
L 221.802357 153.756566 
L 223.677397 153.708066 
" clip-path="url(#p516e03fcee)" style="fill: none; stroke: #ff7f0e; stroke-opacity: 0.5; stroke-width: 0.2; stroke-linecap: square"/>
   <path d="M 223.677397 167.424974 
L 222.677397 167.393537 
L 221.677397 167.356597 
L 220.677397 167.25885 
L 219.677397 167.226329 
L 218.677397 167.152704 
L 217.677397 167.114138 
L 216.677397 167.078725 
L 215.677397 167.021085 
L 214.677397 166.950699 
L 213.677397 166.898735 
L 212.677397 166.839645 
L 211.677397 166.751324 
L 210.677397 166.70518 
L 209.677397 166.662769 
L 208.677397 166.632276 
L 207.677397 166.606231 
L 206.677397 166.585031 
L 205.677397 166.53073 
L 204.677397 166.502793 
L 203.677397 166.473069 
L 202.677397 166.447674 
L 201.677397 166.436473 
L 200.677397 166.426349 
L 199.677397 166.426554 
L 198.677397 166.436064 
L 197.677397 166.447717 
L 196.677397 166.478747 
L 195.677397 166.489914 
L 194.677397 166.520032 
L 193.677397 166.579809 
L 192.677397 166.617 
L 191.677397 166.656097 
L 190.677397 166.698536 
L 189.677397 166.731301 
L 188.677397 166.798728 
L 187.677397 166.837854 
L 186.677397 166.880528 
L 185.677397 166.951109 
L 184.677397 166.9875 
L 183.677397 167.045903 
L 182.677397 167.156855 
L 181.677397 167.227514 
L 180.677397 167.340454 
L 179.677397 167.386226 
L 178.677397 167.44751 
L 176.802357 167.496009 
" clip-path="url(#p516e03fcee)" style="fill: none; stroke: #2ca02c; stroke-opacity: 0.5; stroke-width: 0.2; stroke-linecap: square"/>
   <path d="M 223.677397 72.100777 
L 222.677397 72.06934 
L 221.677397 72.0324 
L 220.677397 71.934653 
L 219.677397 71.902132 
L 218.677397 71.828507 
L 217.677397 71.789941 
L 216.677397 71.754528 
L 215.677397 71.696888 
L 214.677397 71.626502 
L 213.677397 71.574538 
L 212.677397 71.515448 
L 211.677397 71.427127 
L 210.677397 71.380983 
L 209.677397 71.338572 
L 208.677397 71.308079 
L 207.677397 71.282034 
L 206.677397 71.260834 
L 205.677397 71.206533 
L 204.677397 71.178596 
L 203.677397 71.148872 
L 202.677397 71.123477 
L 201.677397 71.112276 
L 200.677397 71.102152 
L 199.677397 71.102357 
L 198.677397 71.111867 
L 197.677397 71.12352 
L 196.677397 71.15455 
L 195.677397 71.165717 
L 194.677397 71.195835 
L 193.677397 71.255612 
L 192.677397 71.292803 
L 191.677397 71.3319 
L 190.677397 71.374339 
L 189.677397 71.407104 
L 188.677397 71.474531 
L 187.677397 71.513657 
L 186.677397 71.556331 
L 185.677397 71.626912 
L 184.677397 71.663303 
L 183.677397 71.721706 
L 182.677397 71.832658 
L 181.677397 71.903317 
L 180.677397 72.016257 
L 179.677397 72.062029 
L 178.677397 72.123313 
L 176.802357 72.171812 
" clip-path="url(#p516e03fcee)" style="fill: none; stroke: #2ca02c; stroke-opacity: 0.5; stroke-width: 0.2; stroke-linecap: square"/>
   <path d="M 223.677397 120.605822 
L 222.677397 120.574386 
L 221.677397 120.537445 
L 220.677397 120.439699 
L 219.677397 120.407177 
L 218.677397 120.333552 
L 217.677397 120.294987 
L 216.677397 120.259574 
L 215.677397 120.201934 
L 214.677397 120.131548 
L 213.677397 120.079583 
L 212.677397 120.020494 
L 211.677397 119.932173 
L 210.677397 119.886028 
L 209.677397 119.843617 
L 208.677397 119.813125 
L 207.677397 119.78708 
L 206.677397 119.76588 
L 205.677397 119.711579 
L 204.677397 119.683641 
L 203.677397 119.653917 
L 202.677397 119.628522 
L 201.677397 119.617322 
L 200.677397 119.607198 
L 199.677397 119.607402 
L 198.677397 119.616912 
L 197.677397 119.628566 
L 196.677397 119.659595 
L 195.677397 119.670763 
L 194.677397 119.70088 
L 193.677397 119.760657 
L 192.677397 119.797849 
L 191.677397 119.836945 
L 190.677397 119.879385 
L 189.677397 119.91215 
L 188.677397 119.979576 
L 187.677397 120.018702 
L 186.677397 120.061377 
L 185.677397 120.131957 
L 184.677397 120.168348 
L 183.677397 120.226751 
L 182.677397 120.337704 
L 181.677397 120.408362 
L 180.677397 120.521302 
L 179.677397 120.567075 
L 178.677397 120.628358 
L 176.802357 120.676857 
" clip-path="url(#p516e03fcee)" style="fill: none; stroke: #2ca02c; stroke-opacity: 0.5; stroke-width: 0.2; stroke-linecap: square"/>
   <path d="M 223.677397 89.93284 
L 222.677397 89.901404 
L 221.677397 89.864464 
L 220.677397 89.766717 
L 219.677397 89.734195 
L 218.677397 89.660571 
L 217.677397 89.622005 
L 216.677397 89.586592 
L 215.677397 89.528952 
L 214.677397 89.458566 
L 213.677397 89.406602 
L 212.677397 89.347512 
L 211.677397 89.259191 
L 210.677397 89.213047 
L 209.677397 89.170636 
L 208.677397 89.140143 
L 207.677397 89.114098 
L 206.677397 89.092898 
L 205.677397 89.038597 
L 204.677397 89.010659 
L 203.677397 88.980935 
L 202.677397 88.955541 
L 201.677397 88.94434 
L 200.677397 88.934216 
L 199.677397 88.934421 
L 198.677397 88.94393 
L 197.677397 88.955584 
L 196.677397 88.986613 
L 195.677397 88.997781 
L 194.677397 89.027899 
L 193.677397 89.087676 
L 192.677397 89.124867 
L 191.677397 89.163963 
L 190.677397 89.206403 
L 189.677397 89.239168 
L 188.677397 89.306594 
L 187.677397 89.34572 
L 186.677397 89.388395 
L 185.677397 89.458975 
L 184.677397 89.495366 
L 183.677397 89.55377 
L 182.677397 89.664722 
L 181.677397 89.73538 
L 180.677397 89.84832 
L 179.677397 89.894093 
L 178.677397 89.955376 
L 176.802357 90.003876 
" clip-path="url(#p516e03fcee)" style="fill: none; stroke: #2ca02c; stroke-opacity: 0.5; stroke-width: 0.2; stroke-linecap: square"/>
   <path d="M 223.677397 154.974452 
L 222.677397 154.943016 
L 221.677397 154.906076 
L 220.677397 154.808329 
L 219.677397 154.775808 
L 218.677397 154.702183 
L 217.677397 154.663617 
L 216.677397 154.628204 
L 215.677397 154.570564 
L 214.677397 154.500178 
L 213.677397 154.448214 
L 212.677397 154.389124 
L 211.677397 154.300803 
L 210.677397 154.254659 
L 209.677397 154.212248 
L 208.677397 154.181755 
L 207.677397 154.15571 
L 206.677397 154.13451 
L 205.677397 154.080209 
L 204.677397 154.052271 
L 203.677397 154.022547 
L 202.677397 153.997153 
L 201.677397 153.985952 
L 200.677397 153.975828 
L 199.677397 153.976033 
L 198.677397 153.985542 
L 197.677397 153.997196 
L 196.677397 154.028225 
L 195.677397 154.039393 
L 194.677397 154.069511 
L 193.677397 154.129288 
L 192.677397 154.166479 
L 191.677397 154.205575 
L 190.677397 154.248015 
L 189.677397 154.28078 
L 188.677397 154.348207 
L 187.677397 154.387332 
L 186.677397 154.430007 
L 185.677397 154.500588 
L 184.677397 154.536978 
L 183.677397 154.595382 
L 182.677397 154.706334 
L 181.677397 154.776993 
L 180.677397 154.889932 
L 179.677397 154.935705 
L 178.677397 154.996988 
L 176.802357 155.045488 
" clip-path="url(#p516e03fcee)" style="fill: none; stroke: #2ca02c; stroke-opacity: 0.5; stroke-width: 0.2; stroke-linecap: square"/>
   <path d="M 223.677397 192.039161 
L 222.677397 192.007725 
L 221.677397 191.970785 
L 220.677397 191.873038 
L 219.677397 191.840517 
L 218.677397 191.766892 
L 217.677397 191.728326 
L 216.677397 191.692913 
L 215.677397 191.635273 
L 214.677397 191.564887 
L 213.677397 191.512923 
L 212.677397 191.453833 
L 211.677397 191.365512 
L 210.677397 191.319368 
L 209.677397 191.276957 
L 208.677397 191.246464 
L 207.677397 191.220419 
L 206.677397 191.199219 
L 205.677397 191.144918 
L 204.677397 191.11698 
L 203.677397 191.087256 
L 202.677397 191.061862 
L 201.677397 191.050661 
L 200.677397 191.040537 
L 199.677397 191.040742 
L 198.677397 191.050251 
L 197.677397 191.061905 
L 196.677397 191.092934 
L 195.677397 191.104102 
L 194.677397 191.13422 
L 193.677397 191.193997 
L 192.677397 191.231188 
L 191.677397 191.270284 
L 190.677397 191.312724 
L 189.677397 191.345489 
L 188.677397 191.412916 
L 187.677397 191.452041 
L 186.677397 191.494716 
L 185.677397 191.565297 
L 184.677397 191.601687 
L 183.677397 191.660091 
L 182.677397 191.771043 
L 181.677397 191.841702 
L 180.677397 191.954641 
L 179.677397 192.000414 
L 178.677397 192.061697 
L 176.802357 192.110197 
" clip-path="url(#p516e03fcee)" style="fill: none; stroke: #2ca02c; stroke-opacity: 0.5; stroke-width: 0.2; stroke-linecap: square"/>
   <path d="M 223.677397 135.913523 
L 222.677397 135.882087 
L 221.677397 135.845146 
L 220.677397 135.7474 
L 219.677397 135.714878 
L 218.677397 135.641253 
L 217.677397 135.602688 
L 216.677397 135.567275 
L 215.677397 135.509635 
L 214.677397 135.439249 
L 213.677397 135.387284 
L 212.677397 135.328195 
L 211.677397 135.239874 
L 210.677397 135.193729 
L 209.677397 135.151318 
L 208.677397 135.120826 
L 207.677397 135.094781 
L 206.677397 135.073581 
L 205.677397 135.01928 
L 204.677397 134.991342 
L 203.677397 134.961618 
L 202.677397 134.936223 
L 201.677397 134.925023 
L 200.677397 134.914899 
L 199.677397 134.915103 
L 198.677397 134.924613 
L 197.677397 134.936267 
L 196.677397 134.967296 
L 195.677397 134.978464 
L 194.677397 135.008581 
L 193.677397 135.068358 
L 192.677397 135.10555 
L 191.677397 135.144646 
L 190.677397 135.187086 
L 189.677397 135.219851 
L 188.677397 135.287277 
L 187.677397 135.326403 
L 186.677397 135.369078 
L 185.677397 135.439658 
L 184.677397 135.476049 
L 183.677397 135.534452 
L 182.677397 135.645405 
L 181.677397 135.716063 
L 180.677397 135.829003 
L 179.677397 135.874776 
L 178.677397 135.936059 
L 176.802357 135.984558 
" clip-path="url(#p516e03fcee)" style="fill: none; stroke: #2ca02c; stroke-opacity: 0.5; stroke-width: 0.2; stroke-linecap: square"/>
   <path d="M 223.677397 220.058848 
L 222.677397 220.027411 
L 221.677397 219.990471 
L 220.677397 219.892724 
L 219.677397 219.860203 
L 218.677397 219.786578 
L 217.677397 219.748013 
L 216.677397 219.712599 
L 215.677397 219.654959 
L 214.677397 219.584573 
L 213.677397 219.532609 
L 212.677397 219.473519 
L 211.677397 219.385198 
L 210.677397 219.339054 
L 209.677397 219.296643 
L 208.677397 219.26615 
L 207.677397 219.240105 
L 206.677397 219.218905 
L 205.677397 219.164604 
L 204.677397 219.136667 
L 203.677397 219.106943 
L 202.677397 219.081548 
L 201.677397 219.070348 
L 200.677397 219.060224 
L 199.677397 219.060428 
L 198.677397 219.069938 
L 197.677397 219.081591 
L 196.677397 219.112621 
L 195.677397 219.123789 
L 194.677397 219.153906 
L 193.677397 219.213683 
L 192.677397 219.250875 
L 191.677397 219.289971 
L 190.677397 219.33241 
L 189.677397 219.365175 
L 188.677397 219.432602 
L 187.677397 219.471728 
L 186.677397 219.514402 
L 185.677397 219.584983 
L 184.677397 219.621374 
L 183.677397 219.679777 
L 182.677397 219.79073 
L 181.677397 219.861388 
L 180.677397 219.974328 
L 179.677397 220.020101 
L 178.677397 220.081384 
L 176.802357 220.129883 
" clip-path="url(#p516e03fcee)" style="fill: none; stroke: #2ca02c; stroke-opacity: 0.5; stroke-width: 0.2; stroke-linecap: square"/>
   <path d="M 223.677397 89.097922 
L 222.677397 89.066486 
L 221.677397 89.029546 
L 220.677397 88.931799 
L 219.677397 88.899277 
L 218.677397 88.825653 
L 217.677397 88.787087 
L 216.677397 88.751674 
L 215.677397 88.694034 
L 214.677397 88.623648 
L 213.677397 88.571684 
L 212.677397 88.512594 
L 211.677397 88.424273 
L 210.677397 88.378129 
L 209.677397 88.335718 
L 208.677397 88.305225 
L 207.677397 88.27918 
L 206.677397 88.25798 
L 205.677397 88.203679 
L 204.677397 88.175741 
L 203.677397 88.146017 
L 202.677397 88.120623 
L 201.677397 88.109422 
L 200.677397 88.099298 
L 199.677397 88.099503 
L 198.677397 88.109012 
L 197.677397 88.120666 
L 196.677397 88.151695 
L 195.677397 88.162863 
L 194.677397 88.192981 
L 193.677397 88.252758 
L 192.677397 88.289949 
L 191.677397 88.329045 
L 190.677397 88.371485 
L 189.677397 88.40425 
L 188.677397 88.471677 
L 187.677397 88.510802 
L 186.677397 88.553477 
L 185.677397 88.624058 
L 184.677397 88.660448 
L 183.677397 88.718852 
L 182.677397 88.829804 
L 181.677397 88.900463 
L 180.677397 89.013402 
L 179.677397 89.059175 
L 178.677397 89.120458 
L 176.802357 89.168958 
" clip-path="url(#p516e03fcee)" style="fill: none; stroke: #2ca02c; stroke-opacity: 0.5; stroke-width: 0.2; stroke-linecap: square"/>
   <path d="M 223.677397 122.697716 
L 222.677397 122.66628 
L 221.677397 122.629339 
L 220.677397 122.531593 
L 219.677397 122.499071 
L 218.677397 122.425446 
L 217.677397 122.386881 
L 216.677397 122.351468 
L 215.677397 122.293828 
L 214.677397 122.223441 
L 213.677397 122.171477 
L 212.677397 122.112388 
L 211.677397 122.024067 
L 210.677397 121.977922 
L 209.677397 121.935511 
L 208.677397 121.905019 
L 207.677397 121.878974 
L 206.677397 121.857774 
L 205.677397 121.803473 
L 204.677397 121.775535 
L 203.677397 121.745811 
L 202.677397 121.720416 
L 201.677397 121.709216 
L 200.677397 121.699092 
L 199.677397 121.699296 
L 198.677397 121.708806 
L 197.677397 121.72046 
L 196.677397 121.751489 
L 195.677397 121.762657 
L 194.677397 121.792774 
L 193.677397 121.852551 
L 192.677397 121.889743 
L 191.677397 121.928839 
L 190.677397 121.971279 
L 189.677397 122.004044 
L 188.677397 122.07147 
L 187.677397 122.110596 
L 186.677397 122.153271 
L 185.677397 122.223851 
L 184.677397 122.260242 
L 183.677397 122.318645 
L 182.677397 122.429598 
L 181.677397 122.500256 
L 180.677397 122.613196 
L 179.677397 122.658969 
L 178.677397 122.720252 
L 176.802357 122.768751 
" clip-path="url(#p516e03fcee)" style="fill: none; stroke: #2ca02c; stroke-opacity: 0.5; stroke-width: 0.2; stroke-linecap: square"/>
   <g id="patch_3">
    <path d="M 170.406135 16.680006 
L 170.406135 59.544152 
M 238.366125 16.680006 
L 238.366125 59.544152 
" clip-path="url(#p516e03fcee)" style="fill: none; stroke: #ffffff; stroke-width: 3; stroke-linejoin: miter"/>
    <path d="M 170.406135 16.680006 
L 170.406135 59.544152 
M 238.366125 16.680006 
L 238.366125 59.544152 
" clip-path="url(#p516e03fcee)" style="fill: none; stroke: #1f77b4; stroke-linejoin: miter"/>
    <g id="PolyCollection_1">
     <path d="M 238.366125 16.680006 
L 170.406135 16.680006 
L 170.406135 59.544152 
L 238.366125 59.544152 
L 238.366125 59.544152 
L 238.366125 16.680006 
z
" clip-path="url(#p516e03fcee)" style="fill: #1f77b4; fill-opacity: 0.5"/>
    </g>
    <g id="patch_4">
     <path d="M 59.925676 59.544152 
L 59.925676 231.000737 
M 173.533009 59.544152 
L 173.533009 231.000737 
" clip-path="url(#p516e03fcee)" style="fill: none; stroke: #ffffff; stroke-width: 3; stroke-linejoin: miter"/>
     <path d="M 59.925676 59.544152 
L 59.925676 231.000737 
M 173.533009 59.544152 
L 173.533009 231.000737 
" clip-path="url(#p516e03fcee)" style="fill: none; stroke: #ff7f0e; stroke-linejoin: miter"/>
     <g id="PolyCollection_2">
      <path d="M 173.533009 59.544152 
L 59.925676 59.544152 
L 59.925676 231.000737 
L 173.533009 231.000737 
L 173.533009 231.000737 
L 173.533009 59.544152 
z
" clip-path="url(#p516e03fcee)" style="fill: #ff7f0e; fill-opacity: 0.5"/>
     </g>
     <g id="patch_5">
      <path d="M 226.946744 59.544152 
L 226.946744 231.000737 
M 357.139089 59.544152 
L 357.139089 231.000737 
" clip-path="url(#p516e03fcee)" style="fill: none; stroke: #ffffff; stroke-width: 3; stroke-linejoin: miter"/>
      <path d="M 226.946744 59.544152 
L 226.946744 231.000737 
M 357.139089 59.544152 
L 357.139089 231.000737 
" clip-path="url(#p516e03fcee)" style="fill: none; stroke: #2ca02c; stroke-linejoin: miter"/>
      <g id="PolyCollection_3">
       <path d="M 357.139089 59.544152 
L 226.946744 59.544152 
L 226.946744 231.000737 
L 357.139089 231.000737 
L 357.139089 231.000737 
L 357.139089 59.544152 
z
" clip-path="url(#p516e03fcee)" style="fill: #2ca02c; fill-opacity: 0.5"/>
      </g>
      <g id="matplotlib.axis_1">
       <g id="xtick_1">
        <g id="line2d_1"/>
        <g id="text_1">
         <!-- Mallard -->
         <g transform="translate(105.664089 239.342807) scale(0.0675 -0.0675)">
          <defs>
           <path id="Helvetica-4d" d="M 472 4591 
L 1363 4591 
L 2681 709 
L 3991 4591 
L 4872 4591 
L 4872 0 
L 4281 0 
L 4281 2709 
Q 4281 2850 4287 3175 
Q 4294 3500 4294 3872 
L 2984 0 
L 2369 0 
L 1050 3872 
L 1050 3731 
Q 1050 3563 1058 3217 
Q 1066 2872 1066 2709 
L 1066 0 
L 472 0 
L 472 4591 
z
" transform="scale(0.015625)"/>
           <path id="Helvetica-61" d="M 844 891 
Q 844 647 1022 506 
Q 1200 366 1444 366 
Q 1741 366 2019 503 
Q 2488 731 2488 1250 
L 2488 1703 
Q 2384 1638 2221 1594 
Q 2059 1550 1903 1531 
L 1563 1488 
Q 1256 1447 1103 1359 
Q 844 1213 844 891 
z
M 2206 2028 
Q 2400 2053 2466 2191 
Q 2503 2266 2503 2406 
Q 2503 2694 2298 2823 
Q 2094 2953 1713 2953 
Q 1272 2953 1088 2716 
Q 984 2584 953 2325 
L 428 2325 
Q 444 2944 830 3186 
Q 1216 3428 1725 3428 
Q 2316 3428 2684 3203 
Q 3050 2978 3050 2503 
L 3050 575 
Q 3050 488 3086 434 
Q 3122 381 3238 381 
Q 3275 381 3322 386 
Q 3369 391 3422 400 
L 3422 -16 
Q 3291 -53 3222 -62 
Q 3153 -72 3034 -72 
Q 2744 -72 2613 134 
Q 2544 244 2516 444 
Q 2344 219 2022 53 
Q 1700 -113 1313 -113 
Q 847 -113 551 170 
Q 256 453 256 878 
Q 256 1344 547 1600 
Q 838 1856 1309 1916 
L 2206 2028 
z
M 1741 3428 
L 1741 3428 
z
" transform="scale(0.015625)"/>
           <path id="Helvetica-6c" d="M 428 4591 
L 991 4591 
L 991 0 
L 428 0 
L 428 4591 
z
" transform="scale(0.015625)"/>
           <path id="Helvetica-72" d="M 428 3347 
L 963 3347 
L 963 2769 
Q 1028 2938 1284 3180 
Q 1541 3422 1875 3422 
Q 1891 3422 1928 3419 
Q 1966 3416 2056 3406 
L 2056 2813 
Q 2006 2822 1964 2825 
Q 1922 2828 1872 2828 
Q 1447 2828 1219 2554 
Q 991 2281 991 1925 
L 991 0 
L 428 0 
L 428 3347 
z
" transform="scale(0.015625)"/>
           <path id="Helvetica-64" d="M 769 1634 
Q 769 1097 997 734 
Q 1225 372 1728 372 
Q 2119 372 2370 708 
Q 2622 1044 2622 1672 
Q 2622 2306 2362 2611 
Q 2103 2916 1722 2916 
Q 1297 2916 1033 2591 
Q 769 2266 769 1634 
z
M 1616 3406 
Q 2000 3406 2259 3244 
Q 2409 3150 2600 2916 
L 2600 4606 
L 3141 4606 
L 3141 0 
L 2634 0 
L 2634 466 
Q 2438 156 2169 18 
Q 1900 -119 1553 -119 
Q 994 -119 584 351 
Q 175 822 175 1603 
Q 175 2334 548 2870 
Q 922 3406 1616 3406 
z
" transform="scale(0.015625)"/>
          </defs>
          <use xlink:href="#Helvetica-4d"/>
          <use xlink:href="#Helvetica-61" x="83.300781"/>
          <use xlink:href="#Helvetica-6c" x="138.916016"/>
          <use xlink:href="#Helvetica-6c" x="161.132812"/>
          <use xlink:href="#Helvetica-61" x="183.349609"/>
          <use xlink:href="#Helvetica-72" x="238.964844"/>
          <use xlink:href="#Helvetica-64" x="272.265625"/>
         </g>
        </g>
       </g>
       <g id="xtick_2">
        <g id="line2d_2"/>
        <g id="text_2">
         <!-- Black_duck -->
         <g transform="translate(274.784538 239.342807) scale(0.0675 -0.0675)">
          <defs>
           <path id="Helvetica-42" d="M 2213 2650 
Q 2606 2650 2825 2759 
Q 3169 2931 3169 3378 
Q 3169 3828 2803 3984 
Q 2597 4072 2191 4072 
L 1081 4072 
L 1081 2650 
L 2213 2650 
z
M 2422 531 
Q 2994 531 3238 863 
Q 3391 1072 3391 1369 
Q 3391 1869 2944 2050 
Q 2706 2147 2316 2147 
L 1081 2147 
L 1081 531 
L 2422 531 
z
M 472 4591 
L 2444 4591 
Q 3250 4591 3591 4109 
Q 3791 3825 3791 3453 
Q 3791 3019 3544 2741 
Q 3416 2594 3175 2472 
Q 3528 2338 3703 2169 
Q 4013 1869 4013 1341 
Q 4013 897 3734 538 
Q 3319 0 2413 0 
L 472 0 
L 472 4591 
z
" transform="scale(0.015625)"/>
           <path id="Helvetica-63" d="M 1703 3444 
Q 2269 3444 2623 3169 
Q 2978 2894 3050 2222 
L 2503 2222 
Q 2453 2531 2275 2736 
Q 2097 2941 1703 2941 
Q 1166 2941 934 2416 
Q 784 2075 784 1575 
Q 784 1072 996 728 
Q 1209 384 1666 384 
Q 2016 384 2220 598 
Q 2425 813 2503 1184 
L 3050 1184 
Q 2956 519 2581 211 
Q 2206 -97 1622 -97 
Q 966 -97 575 383 
Q 184 863 184 1581 
Q 184 2463 612 2953 
Q 1041 3444 1703 3444 
z
M 1616 3428 
L 1616 3428 
z
" transform="scale(0.015625)"/>
           <path id="Helvetica-6b" d="M 400 4591 
L 941 4591 
L 941 1925 
L 2384 3347 
L 3103 3347 
L 1822 2094 
L 3175 0 
L 2456 0 
L 1413 1688 
L 941 1256 
L 941 0 
L 400 0 
L 400 4591 
z
" transform="scale(0.015625)"/>
           <path id="Helvetica-5f" d="M 0 -800 
L 0 -484 
L 3559 -484 
L 3559 -800 
L 0 -800 
z
" transform="scale(0.015625)"/>
           <path id="Helvetica-75" d="M 975 3347 
L 975 1125 
Q 975 869 1056 706 
Q 1206 406 1616 406 
Q 2203 406 2416 931 
Q 2531 1213 2531 1703 
L 2531 3347 
L 3094 3347 
L 3094 0 
L 2563 0 
L 2569 494 
Q 2459 303 2297 172 
Q 1975 -91 1516 -91 
Q 800 -91 541 388 
Q 400 644 400 1072 
L 400 3347 
L 975 3347 
z
M 1747 3428 
L 1747 3428 
z
" transform="scale(0.015625)"/>
          </defs>
          <use xlink:href="#Helvetica-42"/>
          <use xlink:href="#Helvetica-6c" x="66.699219"/>
          <use xlink:href="#Helvetica-61" x="88.916016"/>
          <use xlink:href="#Helvetica-63" x="144.53125"/>
          <use xlink:href="#Helvetica-6b" x="194.53125"/>
          <use xlink:href="#Helvetica-5f" x="244.53125"/>
          <use xlink:href="#Helvetica-64" x="300.146484"/>
          <use xlink:href="#Helvetica-75" x="355.761719"/>
          <use xlink:href="#Helvetica-63" x="411.376953"/>
          <use xlink:href="#Helvetica-6b" x="461.376953"/>
         </g>
        </g>
       </g>
      </g>
      <g id="matplotlib.axis_2">
       <g id="ytick_1">
        <g id="line2d_3">
         <defs>
          <path id="mbb611f063e" d="M 0 0 
L -3.5 0 
" style="stroke: #000000; stroke-width: 0.8"/>
         </defs>
         <g>
          <use xlink:href="#mbb611f063e" x="45.065006" y="231.000737" style="stroke: #000000; stroke-width: 0.8"/>
         </g>
        </g>
        <g id="text_3">
         <!-- 0 -->
         <g transform="translate(34.311373 233.421772) scale(0.0675 -0.0675)">
          <defs>
           <path id="Helvetica-30" d="M 1731 4475 
Q 2600 4475 2988 3759 
Q 3288 3206 3288 2244 
Q 3288 1331 3016 734 
Q 2622 -122 1728 -122 
Q 922 -122 528 578 
Q 200 1163 200 2147 
Q 200 2909 397 3456 
Q 766 4475 1731 4475 
z
M 1725 391 
Q 2163 391 2422 778 
Q 2681 1166 2681 2222 
Q 2681 2984 2493 3476 
Q 2306 3969 1766 3969 
Q 1269 3969 1039 3501 
Q 809 3034 809 2125 
Q 809 1441 956 1025 
Q 1181 391 1725 391 
z
" transform="scale(0.015625)"/>
          </defs>
          <use xlink:href="#Helvetica-30"/>
         </g>
        </g>
       </g>
       <g id="ytick_2">
        <g id="line2d_4">
         <g>
          <use xlink:href="#mbb611f063e" x="45.065006" y="203.884616" style="stroke: #000000; stroke-width: 0.8"/>
         </g>
        </g>
        <g id="text_4">
         <!-- 25000 -->
         <g transform="translate(19.296842 206.305651) scale(0.0675 -0.0675)">
          <defs>
           <path id="Helvetica-32" d="M 200 0 
Q 231 578 439 1006 
Q 647 1434 1250 1784 
L 1850 2131 
Q 2253 2366 2416 2531 
Q 2672 2791 2672 3125 
Q 2672 3516 2437 3745 
Q 2203 3975 1813 3975 
Q 1234 3975 1013 3538 
Q 894 3303 881 2888 
L 309 2888 
Q 319 3472 525 3841 
Q 891 4491 1816 4491 
Q 2584 4491 2939 4075 
Q 3294 3659 3294 3150 
Q 3294 2613 2916 2231 
Q 2697 2009 2131 1694 
L 1703 1456 
Q 1397 1288 1222 1134 
Q 909 863 828 531 
L 3272 531 
L 3272 0 
L 200 0 
z
" transform="scale(0.015625)"/>
           <path id="Helvetica-35" d="M 791 1141 
Q 847 659 1238 475 
Q 1438 381 1700 381 
Q 2200 381 2440 700 
Q 2681 1019 2681 1406 
Q 2681 1875 2395 2131 
Q 2109 2388 1709 2388 
Q 1419 2388 1211 2275 
Q 1003 2163 856 1963 
L 369 1991 
L 709 4400 
L 3034 4400 
L 3034 3856 
L 1131 3856 
L 941 2613 
Q 1097 2731 1238 2791 
Q 1488 2894 1816 2894 
Q 2431 2894 2859 2497 
Q 3288 2100 3288 1491 
Q 3288 856 2895 371 
Q 2503 -113 1644 -113 
Q 1097 -113 676 195 
Q 256 503 206 1141 
L 791 1141 
z
" transform="scale(0.015625)"/>
          </defs>
          <use xlink:href="#Helvetica-32"/>
          <use xlink:href="#Helvetica-35" x="55.615234"/>
          <use xlink:href="#Helvetica-30" x="111.230469"/>
          <use xlink:href="#Helvetica-30" x="166.845703"/>
          <use xlink:href="#Helvetica-30" x="222.460938"/>
         </g>
        </g>
       </g>
       <g id="ytick_3">
        <g id="line2d_5">
         <g>
          <use xlink:href="#mbb611f063e" x="45.065006" y="176.768496" style="stroke: #000000; stroke-width: 0.8"/>
         </g>
        </g>
        <g id="text_5">
         <!-- 50000 -->
         <g transform="translate(19.296842 179.189531) scale(0.0675 -0.0675)">
          <use xlink:href="#Helvetica-35"/>
          <use xlink:href="#Helvetica-30" x="55.615234"/>
          <use xlink:href="#Helvetica-30" x="111.230469"/>
          <use xlink:href="#Helvetica-30" x="166.845703"/>
          <use xlink:href="#Helvetica-30" x="222.460938"/>
         </g>
        </g>
       </g>
       <g id="ytick_4">
        <g id="line2d_6">
         <g>
          <use xlink:href="#mbb611f063e" x="45.065006" y="149.652376" style="stroke: #000000; stroke-width: 0.8"/>
         </g>
        </g>
        <g id="text_6">
         <!-- 75000 -->
         <g transform="translate(19.296842 152.073411) scale(0.0675 -0.0675)">
          <defs>
           <path id="Helvetica-37" d="M 3347 4400 
L 3347 3909 
Q 3131 3700 2773 3181 
Q 2416 2663 2141 2063 
Q 1869 1478 1728 997 
Q 1638 688 1494 0 
L 872 0 
Q 1084 1281 1809 2550 
Q 2238 3294 2709 3834 
L 234 3834 
L 234 4400 
L 3347 4400 
z
" transform="scale(0.015625)"/>
          </defs>
          <use xlink:href="#Helvetica-37"/>
          <use xlink:href="#Helvetica-35" x="55.615234"/>
          <use xlink:href="#Helvetica-30" x="111.230469"/>
          <use xlink:href="#Helvetica-30" x="166.845703"/>
          <use xlink:href="#Helvetica-30" x="222.460938"/>
         </g>
        </g>
       </g>
       <g id="ytick_5">
        <g id="line2d_7">
         <g>
          <use xlink:href="#mbb611f063e" x="45.065006" y="122.536255" style="stroke: #000000; stroke-width: 0.8"/>
         </g>
        </g>
        <g id="text_7">
         <!-- 100000 -->
         <g transform="translate(15.543209 124.95729) scale(0.0675 -0.0675)">
          <defs>
           <path id="Helvetica-31" d="M 613 3169 
L 613 3600 
Q 1222 3659 1462 3798 
Q 1703 3938 1822 4456 
L 2266 4456 
L 2266 0 
L 1666 0 
L 1666 3169 
L 613 3169 
z
" transform="scale(0.015625)"/>
          </defs>
          <use xlink:href="#Helvetica-31"/>
          <use xlink:href="#Helvetica-30" x="55.615234"/>
          <use xlink:href="#Helvetica-30" x="111.230469"/>
          <use xlink:href="#Helvetica-30" x="166.845703"/>
          <use xlink:href="#Helvetica-30" x="222.460938"/>
          <use xlink:href="#Helvetica-30" x="278.076172"/>
         </g>
        </g>
       </g>
       <g id="ytick_6">
        <g id="line2d_8">
         <g>
          <use xlink:href="#mbb611f063e" x="45.065006" y="95.420135" style="stroke: #000000; stroke-width: 0.8"/>
         </g>
        </g>
        <g id="text_8">
         <!-- 125000 -->
         <g transform="translate(15.543209 97.84117) scale(0.0675 -0.0675)">
          <use xlink:href="#Helvetica-31"/>
          <use xlink:href="#Helvetica-32" x="55.615234"/>
          <use xlink:href="#Helvetica-35" x="111.230469"/>
          <use xlink:href="#Helvetica-30" x="166.845703"/>
          <use xlink:href="#Helvetica-30" x="222.460938"/>
          <use xlink:href="#Helvetica-30" x="278.076172"/>
         </g>
        </g>
       </g>
       <g id="ytick_7">
        <g id="line2d_9">
         <g>
          <use xlink:href="#mbb611f063e" x="45.065006" y="68.304014" style="stroke: #000000; stroke-width: 0.8"/>
         </g>
        </g>
        <g id="text_9">
         <!-- 150000 -->
         <g transform="translate(15.543209 70.72505) scale(0.0675 -0.0675)">
          <use xlink:href="#Helvetica-31"/>
          <use xlink:href="#Helvetica-35" x="55.615234"/>
          <use xlink:href="#Helvetica-30" x="111.230469"/>
          <use xlink:href="#Helvetica-30" x="166.845703"/>
          <use xlink:href="#Helvetica-30" x="222.460938"/>
          <use xlink:href="#Helvetica-30" x="278.076172"/>
         </g>
        </g>
       </g>
       <g id="ytick_8">
        <g id="line2d_10">
         <g>
          <use xlink:href="#mbb611f063e" x="45.065006" y="41.187894" style="stroke: #000000; stroke-width: 0.8"/>
         </g>
        </g>
        <g id="text_10">
         <!-- 175000 -->
         <g transform="translate(15.543209 43.608929) scale(0.0675 -0.0675)">
          <use xlink:href="#Helvetica-31"/>
          <use xlink:href="#Helvetica-37" x="55.615234"/>
          <use xlink:href="#Helvetica-35" x="111.230469"/>
          <use xlink:href="#Helvetica-30" x="166.845703"/>
          <use xlink:href="#Helvetica-30" x="222.460938"/>
          <use xlink:href="#Helvetica-30" x="278.076172"/>
         </g>
        </g>
       </g>
       <g id="text_11">
        <!-- time ago (generations) -->
        <g transform="translate(9.582896 172.093027) rotate(-90) scale(0.09 -0.09)">
         <defs>
          <path id="Helvetica-Bold-74" d="M 1975 634 
L 1975 -31 
L 1553 -47 
Q 922 -69 691 172 
Q 541 325 541 644 
L 541 2741 
L 66 2741 
L 66 3375 
L 541 3375 
L 541 4325 
L 1422 4325 
L 1422 3375 
L 1975 3375 
L 1975 2741 
L 1422 2741 
L 1422 941 
Q 1422 731 1475 679 
Q 1528 628 1800 628 
Q 1841 628 1886 629 
Q 1931 631 1975 634 
z
" transform="scale(0.015625)"/>
          <path id="Helvetica-Bold-69" d="M 1331 3406 
L 1331 0 
L 428 0 
L 428 3406 
L 1331 3406 
z
M 1331 4634 
L 1331 3813 
L 428 3813 
L 428 4634 
L 1331 4634 
z
" transform="scale(0.015625)"/>
          <path id="Helvetica-Bold-6d" d="M 2328 2469 
Q 2216 2716 1888 2716 
Q 1506 2716 1375 2469 
Q 1303 2328 1303 2050 
L 1303 0 
L 400 0 
L 400 3400 
L 1266 3400 
L 1266 2903 
Q 1431 3169 1578 3281 
Q 1838 3481 2250 3481 
Q 2641 3481 2881 3309 
Q 3075 3150 3175 2900 
Q 3350 3200 3609 3341 
Q 3884 3481 4222 3481 
Q 4447 3481 4665 3393 
Q 4884 3306 5063 3088 
Q 5206 2909 5256 2650 
Q 5288 2478 5288 2147 
L 5281 0 
L 4369 0 
L 4369 2169 
Q 4369 2363 4306 2488 
Q 4188 2725 3869 2725 
Q 3500 2725 3359 2419 
Q 3288 2256 3288 2028 
L 3288 0 
L 2391 0 
L 2391 2028 
Q 2391 2331 2328 2469 
z
" transform="scale(0.015625)"/>
          <path id="Helvetica-Bold-65" d="M 3331 1000 
Q 3297 697 3016 384 
Q 2578 -113 1791 -113 
Q 1141 -113 644 306 
Q 147 725 147 1669 
Q 147 2553 595 3025 
Q 1044 3497 1759 3497 
Q 2184 3497 2525 3337 
Q 2866 3178 3088 2834 
Q 3288 2531 3347 2131 
Q 3381 1897 3375 1456 
L 1044 1456 
Q 1063 944 1366 738 
Q 1550 609 1809 609 
Q 2084 609 2256 766 
Q 2350 850 2422 1000 
L 3331 1000 
z
M 2450 2044 
Q 2428 2397 2236 2580 
Q 2044 2763 1759 2763 
Q 1450 2763 1279 2569 
Q 1109 2375 1066 2044 
L 2450 2044 
z
" transform="scale(0.015625)"/>
          <path id="Helvetica-Bold-20" transform="scale(0.015625)"/>
          <path id="Helvetica-Bold-61" d="M 544 3038 
Q 897 3488 1756 3488 
Q 2316 3488 2750 3266 
Q 3184 3044 3184 2428 
L 3184 866 
Q 3184 703 3191 472 
Q 3200 297 3244 234 
Q 3288 172 3375 131 
L 3375 0 
L 2406 0 
Q 2366 103 2350 193 
Q 2334 284 2325 400 
Q 2141 200 1900 59 
Q 1613 -106 1250 -106 
Q 788 -106 486 158 
Q 184 422 184 906 
Q 184 1534 669 1816 
Q 934 1969 1450 2034 
L 1753 2072 
Q 2000 2103 2106 2150 
Q 2297 2231 2297 2403 
Q 2297 2613 2151 2692 
Q 2006 2772 1725 2772 
Q 1409 2772 1278 2616 
Q 1184 2500 1153 2303 
L 294 2303 
Q 322 2750 544 3038 
z
M 1206 644 
Q 1331 541 1513 541 
Q 1800 541 2042 709 
Q 2284 878 2294 1325 
L 2294 1656 
Q 2209 1603 2123 1570 
Q 2038 1538 1888 1509 
L 1688 1472 
Q 1406 1422 1284 1350 
Q 1078 1228 1078 972 
Q 1078 744 1206 644 
z
" transform="scale(0.015625)"/>
          <path id="Helvetica-Bold-67" d="M 1378 -597 
Q 1522 -719 1863 -719 
Q 2344 -719 2506 -397 
Q 2613 -191 2613 297 
L 2613 516 
Q 2484 297 2338 188 
Q 2072 -16 1647 -16 
Q 991 -16 598 445 
Q 206 906 206 1694 
Q 206 2453 584 2970 
Q 963 3488 1656 3488 
Q 1913 3488 2103 3409 
Q 2428 3275 2628 2916 
L 2628 3406 
L 3494 3406 
L 3494 175 
Q 3494 -484 3272 -819 
Q 2891 -1394 1809 -1394 
Q 1156 -1394 743 -1137 
Q 331 -881 288 -372 
L 1256 -372 
Q 1294 -528 1378 -597 
z
M 1228 1163 
Q 1409 731 1878 731 
Q 2191 731 2406 967 
Q 2622 1203 2622 1719 
Q 2622 2203 2417 2456 
Q 2213 2709 1869 2709 
Q 1400 2709 1222 2269 
Q 1128 2034 1128 1691 
Q 1128 1394 1228 1163 
z
" transform="scale(0.015625)"/>
          <path id="Helvetica-Bold-6f" d="M 3256 2975 
Q 3688 2434 3688 1697 
Q 3688 947 3256 414 
Q 2825 -119 1947 -119 
Q 1069 -119 637 414 
Q 206 947 206 1697 
Q 206 2434 637 2975 
Q 1069 3516 1947 3516 
Q 2825 3516 3256 2975 
z
M 1944 2763 
Q 1553 2763 1342 2486 
Q 1131 2209 1131 1697 
Q 1131 1184 1342 906 
Q 1553 628 1944 628 
Q 2334 628 2543 906 
Q 2753 1184 2753 1697 
Q 2753 2209 2543 2486 
Q 2334 2763 1944 2763 
z
" transform="scale(0.015625)"/>
          <path id="Helvetica-Bold-28" d="M 1394 -1291 
L 1172 -988 
Q 956 -713 713 -169 
Q 278 803 278 1744 
Q 278 2600 644 3444 
Q 891 4019 1366 4681 
L 2038 4681 
L 1847 4331 
Q 1453 3609 1300 2819 
Q 1200 2300 1200 1688 
Q 1200 731 1478 -72 
Q 1641 -547 2053 -1291 
L 1394 -1291 
z
" transform="scale(0.015625)"/>
          <path id="Helvetica-Bold-6e" d="M 2019 2747 
Q 1566 2747 1397 2363 
Q 1309 2159 1309 1844 
L 1309 0 
L 422 0 
L 422 3400 
L 1281 3400 
L 1281 2903 
Q 1453 3166 1606 3281 
Q 1881 3488 2303 3488 
Q 2831 3488 3167 3211 
Q 3503 2934 3503 2294 
L 3503 0 
L 2591 0 
L 2591 2072 
Q 2591 2341 2519 2484 
Q 2388 2747 2019 2747 
z
" transform="scale(0.015625)"/>
          <path id="Helvetica-Bold-72" d="M 2128 2584 
Q 1591 2584 1406 2234 
Q 1303 2038 1303 1628 
L 1303 0 
L 406 0 
L 406 3406 
L 1256 3406 
L 1256 2813 
Q 1463 3153 1616 3278 
Q 1866 3488 2266 3488 
Q 2291 3488 2308 3486 
Q 2325 3484 2384 3481 
L 2384 2569 
Q 2300 2578 2234 2581 
Q 2169 2584 2128 2584 
z
" transform="scale(0.015625)"/>
          <path id="Helvetica-Bold-73" d="M 2763 3250 
Q 3163 2994 3222 2369 
L 2331 2369 
Q 2313 2541 2234 2641 
Q 2088 2822 1734 2822 
Q 1444 2822 1320 2731 
Q 1197 2641 1197 2519 
Q 1197 2366 1328 2297 
Q 1459 2225 2256 2050 
Q 2788 1925 3053 1672 
Q 3316 1416 3316 1031 
Q 3316 525 2939 204 
Q 2563 -116 1775 -116 
Q 972 -116 589 223 
Q 206 563 206 1088 
L 1109 1088 
Q 1138 850 1231 750 
Q 1397 572 1844 572 
Q 2106 572 2261 650 
Q 2416 728 2416 884 
Q 2416 1034 2291 1113 
Q 2166 1191 1363 1381 
Q 784 1525 547 1741 
Q 309 1953 309 2353 
Q 309 2825 679 3164 
Q 1050 3503 1722 3503 
Q 2359 3503 2763 3250 
z
" transform="scale(0.015625)"/>
          <path id="Helvetica-Bold-29" d="M 947 -988 
L 725 -1291 
L 66 -1291 
Q 478 -547 641 -72 
Q 919 731 919 1688 
Q 919 2300 819 2819 
Q 666 3609 272 4331 
L 81 4681 
L 753 4681 
Q 1228 4019 1475 3444 
Q 1841 2600 1841 1744 
Q 1841 803 1406 -169 
Q 1163 -713 947 -988 
z
" transform="scale(0.015625)"/>
         </defs>
         <use xlink:href="#Helvetica-Bold-74"/>
         <use xlink:href="#Helvetica-Bold-69" x="33.300781"/>
         <use xlink:href="#Helvetica-Bold-6d" x="61.083984"/>
         <use xlink:href="#Helvetica-Bold-65" x="150"/>
         <use xlink:href="#Helvetica-Bold-20" x="205.615234"/>
         <use xlink:href="#Helvetica-Bold-61" x="233.398438"/>
         <use xlink:href="#Helvetica-Bold-67" x="289.013672"/>
         <use xlink:href="#Helvetica-Bold-6f" x="350.097656"/>
         <use xlink:href="#Helvetica-Bold-20" x="411.181641"/>
         <use xlink:href="#Helvetica-Bold-28" x="438.964844"/>
         <use xlink:href="#Helvetica-Bold-67" x="472.265625"/>
         <use xlink:href="#Helvetica-Bold-65" x="533.349609"/>
         <use xlink:href="#Helvetica-Bold-6e" x="588.964844"/>
         <use xlink:href="#Helvetica-Bold-65" x="650.048828"/>
         <use xlink:href="#Helvetica-Bold-72" x="705.664062"/>
         <use xlink:href="#Helvetica-Bold-61" x="744.580078"/>
         <use xlink:href="#Helvetica-Bold-74" x="800.195312"/>
         <use xlink:href="#Helvetica-Bold-69" x="833.496094"/>
         <use xlink:href="#Helvetica-Bold-6f" x="861.279297"/>
         <use xlink:href="#Helvetica-Bold-6e" x="922.363281"/>
         <use xlink:href="#Helvetica-Bold-73" x="983.447266"/>
         <use xlink:href="#Helvetica-Bold-29" x="1039.0625"/>
        </g>
       </g>
      </g>
      <path d="M 224.677397 98.300876 
L 222.677397 97.300876 
L 222.677397 99.300876 
z
" clip-path="url(#p516e03fcee)" style="fill: #ff7f0e; fill-opacity: 0.5; stroke: #ff7f0e; stroke-opacity: 0.5; stroke-linejoin: miter"/>
      <path d="M 224.677397 155.752138 
L 222.677397 154.752138 
L 222.677397 156.752138 
z
" clip-path="url(#p516e03fcee)" style="fill: #ff7f0e; fill-opacity: 0.5; stroke: #ff7f0e; stroke-opacity: 0.5; stroke-linejoin: miter"/>
      <path d="M 224.677397 83.78847 
L 222.677397 82.78847 
L 222.677397 84.78847 
z
" clip-path="url(#p516e03fcee)" style="fill: #ff7f0e; fill-opacity: 0.5; stroke: #ff7f0e; stroke-opacity: 0.5; stroke-linejoin: miter"/>
      <path d="M 224.677397 111.432396 
L 222.677397 110.432396 
L 222.677397 112.432396 
z
" clip-path="url(#p516e03fcee)" style="fill: #ff7f0e; fill-opacity: 0.5; stroke: #ff7f0e; stroke-opacity: 0.5; stroke-linejoin: miter"/>
      <path d="M 224.677397 214.85341 
L 222.677397 213.85341 
L 222.677397 215.85341 
z
" clip-path="url(#p516e03fcee)" style="fill: #ff7f0e; fill-opacity: 0.5; stroke: #ff7f0e; stroke-opacity: 0.5; stroke-linejoin: miter"/>
      <path d="M 224.677397 63.72386 
L 222.677397 62.72386 
L 222.677397 64.72386 
z
" clip-path="url(#p516e03fcee)" style="fill: #ff7f0e; fill-opacity: 0.5; stroke: #ff7f0e; stroke-opacity: 0.5; stroke-linejoin: miter"/>
      <path d="M 224.677397 100.498323 
L 222.677397 99.498323 
L 222.677397 101.498323 
z
" clip-path="url(#p516e03fcee)" style="fill: #ff7f0e; fill-opacity: 0.5; stroke: #ff7f0e; stroke-opacity: 0.5; stroke-linejoin: miter"/>
      <path d="M 224.677397 96.224835 
L 222.677397 95.224835 
L 222.677397 97.224835 
z
" clip-path="url(#p516e03fcee)" style="fill: #ff7f0e; fill-opacity: 0.5; stroke: #ff7f0e; stroke-opacity: 0.5; stroke-linejoin: miter"/>
      <path d="M 224.677397 209.034811 
L 222.677397 208.034811 
L 222.677397 210.034811 
z
" clip-path="url(#p516e03fcee)" style="fill: #ff7f0e; fill-opacity: 0.5; stroke: #ff7f0e; stroke-opacity: 0.5; stroke-linejoin: miter"/>
      <path d="M 224.677397 153.779102 
L 222.677397 152.779102 
L 222.677397 154.779102 
z
" clip-path="url(#p516e03fcee)" style="fill: #ff7f0e; fill-opacity: 0.5; stroke: #ff7f0e; stroke-opacity: 0.5; stroke-linejoin: miter"/>
      <path d="M 175.802357 167.424974 
L 177.802357 168.424974 
L 177.802357 166.424974 
z
" clip-path="url(#p516e03fcee)" style="fill: #2ca02c; fill-opacity: 0.5; stroke: #2ca02c; stroke-opacity: 0.5; stroke-linejoin: miter"/>
      <path d="M 175.802357 72.100777 
L 177.802357 73.100777 
L 177.802357 71.100777 
z
" clip-path="url(#p516e03fcee)" style="fill: #2ca02c; fill-opacity: 0.5; stroke: #2ca02c; stroke-opacity: 0.5; stroke-linejoin: miter"/>
      <path d="M 175.802357 120.605822 
L 177.802357 121.605822 
L 177.802357 119.605822 
z
" clip-path="url(#p516e03fcee)" style="fill: #2ca02c; fill-opacity: 0.5; stroke: #2ca02c; stroke-opacity: 0.5; stroke-linejoin: miter"/>
      <path d="M 175.802357 89.93284 
L 177.802357 90.93284 
L 177.802357 88.93284 
z
" clip-path="url(#p516e03fcee)" style="fill: #2ca02c; fill-opacity: 0.5; stroke: #2ca02c; stroke-opacity: 0.5; stroke-linejoin: miter"/>
      <path d="M 175.802357 154.974452 
L 177.802357 155.974452 
L 177.802357 153.974452 
z
" clip-path="url(#p516e03fcee)" style="fill: #2ca02c; fill-opacity: 0.5; stroke: #2ca02c; stroke-opacity: 0.5; stroke-linejoin: miter"/>
      <path d="M 175.802357 192.039161 
L 177.802357 193.039161 
L 177.802357 191.039161 
z
" clip-path="url(#p516e03fcee)" style="fill: #2ca02c; fill-opacity: 0.5; stroke: #2ca02c; stroke-opacity: 0.5; stroke-linejoin: miter"/>
      <path d="M 175.802357 135.913523 
L 177.802357 136.913523 
L 177.802357 134.913523 
z
" clip-path="url(#p516e03fcee)" style="fill: #2ca02c; fill-opacity: 0.5; stroke: #2ca02c; stroke-opacity: 0.5; stroke-linejoin: miter"/>
      <path d="M 175.802357 220.058848 
L 177.802357 221.058848 
L 177.802357 219.058848 
z
" clip-path="url(#p516e03fcee)" style="fill: #2ca02c; fill-opacity: 0.5; stroke: #2ca02c; stroke-opacity: 0.5; stroke-linejoin: miter"/>
      <path d="M 175.802357 89.097922 
L 177.802357 90.097922 
L 177.802357 88.097922 
z
" clip-path="url(#p516e03fcee)" style="fill: #2ca02c; fill-opacity: 0.5; stroke: #2ca02c; stroke-opacity: 0.5; stroke-linejoin: miter"/>
      <path d="M 175.802357 122.697716 
L 177.802357 123.697716 
L 177.802357 121.697716 
z
" clip-path="url(#p516e03fcee)" style="fill: #2ca02c; fill-opacity: 0.5; stroke: #2ca02c; stroke-opacity: 0.5; stroke-linejoin: miter"/>
      <g id="patch_6">
       <path d="M 45.065006 231.000737 
L 45.065006 16.680006 
" style="fill: none; stroke: #000000; stroke-width: 0.8; stroke-linejoin: miter; stroke-linecap: square"/>
      </g>
      <g id="text_12">
       <g id="patch_7">
        <path d="M 190.318181 42.58659 
L 218.454079 42.58659 
Q 219.804079 42.58659 219.804079 41.23659 
L 219.804079 34.987567 
Q 219.804079 33.637567 218.454079 33.637567 
L 190.318181 33.637567 
Q 188.968181 33.637567 188.968181 34.987567 
L 188.968181 41.23659 
Q 188.968181 42.58659 190.318181 42.58659 
z
" style="fill: #ffffff; opacity: 0.6"/>
       </g>
       <!-- Ancestral -->
       <g transform="translate(190.318181 39.829637) scale(0.0675 -0.0675)">
        <defs>
         <path id="Helvetica-41" d="M 2844 1881 
L 2147 3909 
L 1406 1881 
L 2844 1881 
z
M 1822 4591 
L 2525 4591 
L 4191 0 
L 3509 0 
L 3044 1375 
L 1228 1375 
L 731 0 
L 94 0 
L 1822 4591 
z
" transform="scale(0.015625)"/>
         <path id="Helvetica-6e" d="M 413 3347 
L 947 3347 
L 947 2872 
Q 1184 3166 1450 3294 
Q 1716 3422 2041 3422 
Q 2753 3422 3003 2925 
Q 3141 2653 3141 2147 
L 3141 0 
L 2569 0 
L 2569 2109 
Q 2569 2416 2478 2603 
Q 2328 2916 1934 2916 
Q 1734 2916 1606 2875 
Q 1375 2806 1200 2600 
Q 1059 2434 1017 2257 
Q 975 2081 975 1753 
L 975 0 
L 413 0 
L 413 3347 
z
M 1734 3428 
L 1734 3428 
z
" transform="scale(0.015625)"/>
         <path id="Helvetica-65" d="M 1806 3422 
Q 2163 3422 2497 3255 
Q 2831 3088 3006 2822 
Q 3175 2569 3231 2231 
Q 3281 2000 3281 1494 
L 828 1494 
Q 844 984 1069 676 
Q 1294 369 1766 369 
Q 2206 369 2469 659 
Q 2619 828 2681 1050 
L 3234 1050 
Q 3213 866 3089 639 
Q 2966 413 2813 269 
Q 2556 19 2178 -69 
Q 1975 -119 1719 -119 
Q 1094 -119 659 336 
Q 225 791 225 1609 
Q 225 2416 662 2919 
Q 1100 3422 1806 3422 
z
M 2703 1941 
Q 2669 2306 2544 2525 
Q 2313 2931 1772 2931 
Q 1384 2931 1121 2651 
Q 859 2372 844 1941 
L 2703 1941 
z
M 1753 3428 
L 1753 3428 
z
" transform="scale(0.015625)"/>
         <path id="Helvetica-73" d="M 747 1050 
Q 772 769 888 619 
Q 1100 347 1625 347 
Q 1938 347 2175 483 
Q 2413 619 2413 903 
Q 2413 1119 2222 1231 
Q 2100 1300 1741 1391 
L 1294 1503 
Q 866 1609 663 1741 
Q 300 1969 300 2372 
Q 300 2847 642 3140 
Q 984 3434 1563 3434 
Q 2319 3434 2653 2991 
Q 2863 2709 2856 2384 
L 2325 2384 
Q 2309 2575 2191 2731 
Q 1997 2953 1519 2953 
Q 1200 2953 1036 2831 
Q 872 2709 872 2509 
Q 872 2291 1088 2159 
Q 1213 2081 1456 2022 
L 1828 1931 
Q 2434 1784 2641 1647 
Q 2969 1431 2969 969 
Q 2969 522 2630 197 
Q 2291 -128 1597 -128 
Q 850 -128 539 211 
Q 228 550 206 1050 
L 747 1050 
z
M 1578 3428 
L 1578 3428 
z
" transform="scale(0.015625)"/>
         <path id="Helvetica-74" d="M 525 4281 
L 1094 4281 
L 1094 3347 
L 1628 3347 
L 1628 2888 
L 1094 2888 
L 1094 703 
Q 1094 528 1213 469 
Q 1278 434 1431 434 
Q 1472 434 1519 436 
Q 1566 438 1628 444 
L 1628 0 
Q 1531 -28 1426 -40 
Q 1322 -53 1200 -53 
Q 806 -53 665 148 
Q 525 350 525 672 
L 525 2888 
L 72 2888 
L 72 3347 
L 525 3347 
L 525 4281 
z
" transform="scale(0.015625)"/>
        </defs>
        <use xlink:href="#Helvetica-41"/>
        <use xlink:href="#Helvetica-6e" x="66.699219"/>
        <use xlink:href="#Helvetica-63" x="122.314453"/>
        <use xlink:href="#Helvetica-65" x="172.314453"/>
        <use xlink:href="#Helvetica-73" x="227.929688"/>
        <use xlink:href="#Helvetica-74" x="277.929688"/>
        <use xlink:href="#Helvetica-72" x="305.712891"/>
        <use xlink:href="#Helvetica-61" x="339.013672"/>
        <use xlink:href="#Helvetica-6c" x="394.628906"/>
       </g>
      </g>
      <g id="text_13">
       <!-- North American Duck Demography (Lavretsky et al., 2020) -->
       <g transform="translate(63.822695 10.680006) scale(0.105 -0.105)">
        <defs>
         <path id="Helvetica-Bold-4e" d="M 4213 0 
L 3250 0 
L 1369 3272 
L 1369 0 
L 472 0 
L 472 4606 
L 1481 4606 
L 3316 1391 
L 3316 4606 
L 4213 4606 
L 4213 0 
z
" transform="scale(0.015625)"/>
         <path id="Helvetica-Bold-68" d="M 3494 2000 
L 3494 0 
L 2584 0 
L 2584 2072 
Q 2584 2347 2491 2516 
Q 2369 2753 2028 2753 
Q 1675 2753 1492 2517 
Q 1309 2281 1309 1844 
L 1309 0 
L 422 0 
L 422 4591 
L 1309 4591 
L 1309 2963 
Q 1503 3259 1758 3376 
Q 2013 3494 2294 3494 
Q 2609 3494 2867 3384 
Q 3125 3275 3291 3050 
Q 3431 2859 3462 2657 
Q 3494 2456 3494 2000 
z
" transform="scale(0.015625)"/>
         <path id="Helvetica-Bold-41" d="M 3184 947 
L 1488 947 
L 1169 0 
L 163 0 
L 1806 4606 
L 2894 4606 
L 4525 0 
L 3481 0 
L 3184 947 
z
M 2916 1741 
L 2341 3553 
L 1747 1741 
L 2916 1741 
z
" transform="scale(0.015625)"/>
         <path id="Helvetica-Bold-63" d="M 3363 2184 
L 2450 2184 
Q 2425 2375 2322 2528 
Q 2172 2734 1856 2734 
Q 1406 2734 1241 2288 
Q 1153 2050 1153 1656 
Q 1153 1281 1241 1053 
Q 1400 628 1841 628 
Q 2153 628 2284 797 
Q 2416 966 2444 1234 
L 3353 1234 
Q 3322 828 3059 466 
Q 2641 -119 1819 -119 
Q 997 -119 609 368 
Q 222 856 222 1634 
Q 222 2513 650 3000 
Q 1078 3488 1831 3488 
Q 2472 3488 2880 3200 
Q 3288 2913 3363 2184 
z
" transform="scale(0.015625)"/>
         <path id="Helvetica-Bold-44" d="M 2472 0 
L 488 0 
L 488 4606 
L 2472 4606 
Q 2900 4600 3184 4506 
Q 3669 4347 3969 3922 
Q 4209 3578 4296 3178 
Q 4384 2778 4384 2416 
Q 4384 1497 4016 859 
Q 3516 0 2472 0 
z
M 3188 3431 
Q 2966 3806 2309 3806 
L 1422 3806 
L 1422 800 
L 2309 800 
Q 2991 800 3259 1472 
Q 3406 1841 3406 2350 
Q 3406 3053 3188 3431 
z
" transform="scale(0.015625)"/>
         <path id="Helvetica-Bold-75" d="M 2600 481 
Q 2588 466 2538 387 
Q 2488 309 2419 250 
Q 2209 63 2014 -6 
Q 1819 -75 1556 -75 
Q 800 -75 538 469 
Q 391 769 391 1353 
L 391 3406 
L 1303 3406 
L 1303 1353 
Q 1303 1063 1372 916 
Q 1494 656 1850 656 
Q 2306 656 2475 1025 
Q 2563 1225 2563 1553 
L 2563 3406 
L 3466 3406 
L 3466 0 
L 2600 0 
L 2600 481 
z
" transform="scale(0.015625)"/>
         <path id="Helvetica-Bold-6b" d="M 3541 0 
L 2466 0 
L 1650 1456 
L 1281 1072 
L 1281 0 
L 406 0 
L 406 4591 
L 1281 4591 
L 1281 2109 
L 2391 3391 
L 3494 3391 
L 2303 2088 
L 3541 0 
z
" transform="scale(0.015625)"/>
         <path id="Helvetica-Bold-70" d="M 3269 3041 
Q 3681 2600 3681 1747 
Q 3681 847 3276 375 
Q 2872 -97 2234 -97 
Q 1828 -97 1559 106 
Q 1413 219 1272 434 
L 1272 -1341 
L 391 -1341 
L 391 3406 
L 1244 3406 
L 1244 2903 
Q 1388 3125 1550 3253 
Q 1847 3481 2256 3481 
Q 2853 3481 3269 3041 
z
M 2763 1703 
Q 2763 2097 2583 2400 
Q 2403 2703 2000 2703 
Q 1516 2703 1334 2244 
Q 1241 2000 1241 1625 
Q 1241 1031 1556 791 
Q 1744 650 2000 650 
Q 2372 650 2567 937 
Q 2763 1225 2763 1703 
z
" transform="scale(0.015625)"/>
         <path id="Helvetica-Bold-79" d="M 1800 894 
L 2503 3406 
L 3450 3406 
L 2281 56 
Q 1944 -913 1747 -1145 
Q 1550 -1378 959 -1378 
Q 841 -1378 769 -1376 
Q 697 -1375 553 -1366 
L 553 -653 
L 666 -659 
Q 797 -666 915 -650 
Q 1034 -634 1116 -578 
Q 1194 -525 1261 -356 
Q 1328 -188 1316 -150 
L 66 3406 
L 1056 3406 
L 1800 894 
z
" transform="scale(0.015625)"/>
         <path id="Helvetica-Bold-4c" d="M 488 4606 
L 1450 4606 
L 1450 828 
L 3731 828 
L 3731 0 
L 488 0 
L 488 4606 
z
" transform="scale(0.015625)"/>
         <path id="Helvetica-Bold-76" d="M 81 3406 
L 1081 3406 
L 1791 894 
L 2516 3406 
L 3472 3406 
L 2244 0 
L 1303 0 
L 81 3406 
z
" transform="scale(0.015625)"/>
         <path id="Helvetica-Bold-6c" d="M 434 4606 
L 1325 4606 
L 1325 0 
L 434 0 
L 434 4606 
z
" transform="scale(0.015625)"/>
         <path id="Helvetica-Bold-2e" d="M 400 931 
L 1347 931 
L 1347 0 
L 400 0 
L 400 931 
z
" transform="scale(0.015625)"/>
         <path id="Helvetica-Bold-2c" d="M 1275 -319 
Q 1219 -550 1066 -719 
Q 900 -900 676 -992 
Q 453 -1084 369 -1084 
L 369 -741 
Q 638 -666 764 -491 
Q 891 -316 909 0 
L 369 0 
L 369 931 
L 1331 931 
L 1331 125 
Q 1331 -88 1275 -319 
z
" transform="scale(0.015625)"/>
         <path id="Helvetica-Bold-32" d="M 2225 3609 
Q 2066 3800 1769 3800 
Q 1363 3800 1216 3497 
Q 1131 3322 1116 2941 
L 250 2941 
Q 272 3519 459 3875 
Q 816 4553 1725 4553 
Q 2444 4553 2869 4154 
Q 3294 3756 3294 3100 
Q 3294 2597 2994 2206 
Q 2797 1947 2347 1628 
L 1991 1375 
Q 1656 1138 1532 1031 
Q 1409 925 1325 784 
L 3303 784 
L 3303 0 
L 200 0 
Q 213 488 409 891 
Q 600 1344 1309 1850 
Q 1925 2291 2106 2481 
Q 2384 2778 2384 3131 
Q 2384 3419 2225 3609 
z
" transform="scale(0.015625)"/>
         <path id="Helvetica-Bold-30" d="M 1763 -113 
Q 897 -113 548 493 
Q 200 1100 200 2222 
Q 200 3344 548 3953 
Q 897 4563 1763 4563 
Q 2628 4563 2978 3953 
Q 3325 3344 3325 2222 
Q 3325 1100 2976 493 
Q 2628 -113 1763 -113 
z
M 2284 1028 
Q 2406 1441 2406 2222 
Q 2406 3041 2282 3434 
Q 2159 3828 1763 3828 
Q 1366 3828 1237 3434 
Q 1109 3041 1109 2222 
Q 1109 1441 1237 1027 
Q 1366 613 1763 613 
Q 2159 613 2284 1028 
z
" transform="scale(0.015625)"/>
        </defs>
        <use xlink:href="#Helvetica-Bold-4e"/>
        <use xlink:href="#Helvetica-Bold-6f" x="72.216797"/>
        <use xlink:href="#Helvetica-Bold-72" x="133.300781"/>
        <use xlink:href="#Helvetica-Bold-74" x="172.216797"/>
        <use xlink:href="#Helvetica-Bold-68" x="205.517578"/>
        <use xlink:href="#Helvetica-Bold-20" x="266.601562"/>
        <use xlink:href="#Helvetica-Bold-41" x="294.384766"/>
        <use xlink:href="#Helvetica-Bold-6d" x="366.601562"/>
        <use xlink:href="#Helvetica-Bold-65" x="455.517578"/>
        <use xlink:href="#Helvetica-Bold-72" x="511.132812"/>
        <use xlink:href="#Helvetica-Bold-69" x="550.048828"/>
        <use xlink:href="#Helvetica-Bold-63" x="577.832031"/>
        <use xlink:href="#Helvetica-Bold-61" x="633.447266"/>
        <use xlink:href="#Helvetica-Bold-6e" x="689.0625"/>
        <use xlink:href="#Helvetica-Bold-20" x="750.146484"/>
        <use xlink:href="#Helvetica-Bold-44" x="777.929688"/>
        <use xlink:href="#Helvetica-Bold-75" x="850.146484"/>
        <use xlink:href="#Helvetica-Bold-63" x="911.230469"/>
        <use xlink:href="#Helvetica-Bold-6b" x="966.845703"/>
        <use xlink:href="#Helvetica-Bold-20" x="1022.460938"/>
        <use xlink:href="#Helvetica-Bold-44" x="1050.244141"/>
        <use xlink:href="#Helvetica-Bold-65" x="1122.460938"/>
        <use xlink:href="#Helvetica-Bold-6d" x="1178.076172"/>
        <use xlink:href="#Helvetica-Bold-6f" x="1266.992188"/>
        <use xlink:href="#Helvetica-Bold-67" x="1328.076172"/>
        <use xlink:href="#Helvetica-Bold-72" x="1389.160156"/>
        <use xlink:href="#Helvetica-Bold-61" x="1428.076172"/>
        <use xlink:href="#Helvetica-Bold-70" x="1483.691406"/>
        <use xlink:href="#Helvetica-Bold-68" x="1544.775391"/>
        <use xlink:href="#Helvetica-Bold-79" x="1605.859375"/>
        <use xlink:href="#Helvetica-Bold-20" x="1661.474609"/>
        <use xlink:href="#Helvetica-Bold-28" x="1689.257812"/>
        <use xlink:href="#Helvetica-Bold-4c" x="1722.558594"/>
        <use xlink:href="#Helvetica-Bold-61" x="1783.642578"/>
        <use xlink:href="#Helvetica-Bold-76" x="1839.257812"/>
        <use xlink:href="#Helvetica-Bold-72" x="1894.873047"/>
        <use xlink:href="#Helvetica-Bold-65" x="1933.789062"/>
        <use xlink:href="#Helvetica-Bold-74" x="1989.404297"/>
        <use xlink:href="#Helvetica-Bold-73" x="2022.705078"/>
        <use xlink:href="#Helvetica-Bold-6b" x="2078.320312"/>
        <use xlink:href="#Helvetica-Bold-79" x="2133.935547"/>
        <use xlink:href="#Helvetica-Bold-20" x="2189.550781"/>
        <use xlink:href="#Helvetica-Bold-65" x="2217.333984"/>
        <use xlink:href="#Helvetica-Bold-74" x="2272.949219"/>
        <use xlink:href="#Helvetica-Bold-20" x="2306.25"/>
        <use xlink:href="#Helvetica-Bold-61" x="2334.033203"/>
        <use xlink:href="#Helvetica-Bold-6c" x="2389.648438"/>
        <use xlink:href="#Helvetica-Bold-2e" x="2417.431641"/>
        <use xlink:href="#Helvetica-Bold-2c" x="2445.214844"/>
        <use xlink:href="#Helvetica-Bold-20" x="2472.998047"/>
        <use xlink:href="#Helvetica-Bold-32" x="2500.78125"/>
        <use xlink:href="#Helvetica-Bold-30" x="2556.396484"/>
        <use xlink:href="#Helvetica-Bold-32" x="2612.011719"/>
        <use xlink:href="#Helvetica-Bold-30" x="2667.626953"/>
        <use xlink:href="#Helvetica-Bold-29" x="2723.242188"/>
       </g>
      </g>
     </g>
    </g>
    <defs>
     <clipPath id="p516e03fcee">
      <rect x="45.065006" y="16.680006" width="326.934754" height="214.320731"/>
     </clipPath>
    </defs>
   </g>
  </g>
 </g>
</svg>
