<svg class="toyplot-canvas-Canvas" xmlns:toyplot="http://www.sandia.gov/toyplot" xmlns:xlink="http://www.w3.org/1999/xlink" xmlns="http://www.w3.org/2000/svg" width="700.0px" height="500.0px" viewBox="0 0 700.0 500.0" preserveAspectRatio="xMidYMid meet" style="background-color:transparent;border-color:#292724;border-style:none;border-width:1.0;fill:rgb(16.1%,15.3%,14.1%);fill-opacity:1.0;font-family:Helvetica;font-size:12px;opacity:1.0;stroke:rgb(16.1%,15.3%,14.1%);stroke-opacity:1.0;stroke-width:1.0" id="t96f4a7936bce40f48a8bd88930bd3ba8"><g class="toyplot-coordinates-Cartesian" id="tf906216f6d204d74924e5d0d3e5a9af5"><clipPath id="t43a1a235da344edf9de7ef0c45d4b103"><rect x="30.0" y="30.0" width="640.0" height="190.0" /></clipPath><g clip-path="url(#t43a1a235da344edf9de7ef0c45d4b103)"><g class="toytree-mark-Toytree" id="tb50efc5e47134be387a8b72b8f3afa78"><g class="toytree-Edges" style="fill:none;stroke:rgb(14.9%,14.9%,14.9%);stroke-linecap:round;stroke-opacity:1;stroke-width:5"><path d="M 62.4 125.0 L 345.8 83.3" id="6,5" /><path d="M 62.4 125.0 L 345.8 166.7" id="6,4" /><path d="M 345.8 83.3 L 558.4 62.5" id="5,3" /><path d="M 345.8 83.3 L 558.4 104.2" id="5,2" /><path d="M 345.8 166.7 L 558.4 145.8" id="4,1" /><path d="M 345.8 166.7 L 558.4 187.5" id="4,0" /></g><g class="toytree-AlignEdges" style="stroke:rgb(66.3%,66.3%,66.3%);stroke-dasharray:2, 4;stroke-linecap:round;stroke-opacity:1.0;stroke-width:2"><path d="M 558.4 187.5 L 558.4 187.5" /><path d="M 558.4 145.8 L 558.4 145.8" /><path d="M 558.4 104.2 L 558.4 104.2" /><path d="M 558.4 62.5 L 558.4 62.5" /></g><g class="toytree-Nodes" style="fill:rgb(10.6%,62%,46.7%);fill-opacity:1.0;stroke:rgb(100%,100%,100%);stroke-opacity:1.0;stroke-width:1.5"><g id="node-0" transform="translate(558.363,187.500)"><circle r="7.5" /></g><g id="node-1" transform="translate(558.363,145.833)"><circle r="7.5" /></g><g id="node-2" transform="translate(558.363,104.167)"><circle r="7.5" /></g><g id="node-3" transform="translate(558.363,62.500)"><circle r="7.5" /></g><g id="node-4" transform="translate(345.807,166.667)"><circle r="7.5" /></g><g id="node-5" transform="translate(345.807,83.333)"><circle r="7.5" /></g><g id="node-6" transform="translate(62.399,125.000)"><circle r="7.5" /></g></g><g class="toytree-TipLabels" style="fill:rgb(14.9%,14.9%,14.9%);fill-opacity:1.0;font-family:helvetica;font-size:11px;font-weight:normal;stroke:none;white-space:pre"><g transform="translate(558.36,187.50)rotate(0)"><text x="15.00" y="2.81" style="">BlackDuck2</text></g><g transform="translate(558.36,145.83)rotate(0)"><text x="15.00" y="2.81" style="">BlackDuck1</text></g><g transform="translate(558.36,104.17)rotate(0)"><text x="15.00" y="2.81" style="">Mallard2</text></g><g transform="translate(558.36,62.50)rotate(0)"><text x="15.00" y="2.81" style="">Mallard1</text></g></g></g></g><g class="toyplot-coordinates-Axis" id="t82664f7433dc488bab67ae271c431760" transform="translate(50.0,200.0)translate(0,20.0)"><line x1="12.399102304993045" y1="0" x2="508.36319450471785" y2="0" style="" /><g transform="translate(300.0,22)"><text x="-44.2968" y="10.265999999999998" style="fill:rgb(16.1%,15.3%,14.1%);fill-opacity:1.0;font-family:helvetica;font-size:12.0px;font-style:italic;font-weight:bold;stroke:none;vertical-align:baseline;white-space:pre">d</text><text x="-36.9648" y="11.945999999999998" style="fill:rgb(16.1%,15.3%,14.1%);fill-opacity:1.0;font-family:helvetica;font-size:8.399999999999999px;font-style:italic;font-weight:bold;stroke:none;vertical-align:baseline;white-space:pre">XY</text><text x="-25.7592" y="10.265999999999998" style="fill:rgb(16.1%,15.3%,14.1%);fill-opacity:1.0;font-family:helvetica;font-size:12.0px;font-weight:bold;stroke:none;vertical-align:baseline;white-space:pre">                     </text></g><g class="toyplot-coordinates-Axis-coordinates" style="visibility:hidden" transform=""><line x1="0" x2="0" y1="-3.0" y2="4.5" style="stroke:rgb(43.9%,50.2%,56.5%);stroke-opacity:1.0;stroke-width:1.0" /><text x="0" y="-6" style="alignment-baseline:alphabetic;fill:rgb(43.9%,50.2%,56.5%);fill-opacity:1.0;font-size:10px;font-weight:normal;stroke:none;text-anchor:middle" /></g></g></g><g class="toyplot-coordinates-Cartesian" id="t59d446dde17146f19bb5394b32828310"><clipPath id="tfae3b3f612a64c5eb8c54a38ef92aca6"><rect x="30.0" y="280.0" width="640.0" height="190.0" /></clipPath><g clip-path="url(#tfae3b3f612a64c5eb8c54a38ef92aca6)"><g class="toytree-mark-Toytree" id="t2586d3b7e76d40f5bad8f0f212423e7a"><g class="toytree-Edges" style="fill:none;stroke:rgb(14.9%,14.9%,14.9%);stroke-linecap:round;stroke-opacity:1;stroke-width:5"><path d="M 62.4 375.0 L 459.2 333.3" id="6,5" /><path d="M 62.4 375.0 L 459.2 416.7" id="6,4" /><path d="M 459.2 333.3 L 558.4 312.5" id="5,3" /><path d="M 459.2 333.3 L 558.4 354.2" id="5,2" /><path d="M 459.2 416.7 L 558.4 395.8" id="4,1" /><path d="M 459.2 416.7 L 558.4 437.5" id="4,0" /></g><g class="toytree-AlignEdges" style="stroke:rgb(66.3%,66.3%,66.3%);stroke-dasharray:2, 4;stroke-linecap:round;stroke-opacity:1.0;stroke-width:2"><path d="M 558.4 437.5 L 558.4 437.5" /><path d="M 558.4 395.8 L 558.4 395.8" /><path d="M 558.4 354.2 L 558.4 354.2" /><path d="M 558.4 312.5 L 558.4 312.5" /></g><g class="toytree-Nodes" style="fill:rgb(10.6%,62%,46.7%);fill-opacity:1.0;stroke:rgb(100%,100%,100%);stroke-opacity:1.0;stroke-width:1.5"><g id="node-0" transform="translate(558.363,437.500)"><circle r="7.5" /></g><g id="node-1" transform="translate(558.363,395.833)"><circle r="7.5" /></g><g id="node-2" transform="translate(558.363,354.167)"><circle r="7.5" /></g><g id="node-3" transform="translate(558.363,312.500)"><circle r="7.5" /></g><g id="node-4" transform="translate(459.170,416.667)"><circle r="7.5" /></g><g id="node-5" transform="translate(459.170,333.333)"><circle r="7.5" /></g><g id="node-6" transform="translate(62.399,375.000)"><circle r="7.5" /></g></g><g class="toytree-TipLabels" style="fill:rgb(14.9%,14.9%,14.9%);fill-opacity:1.0;font-family:helvetica;font-size:11px;font-weight:normal;stroke:none;white-space:pre"><g transform="translate(558.36,437.50)rotate(0)"><text x="15.00" y="2.81" style="">BlackDuck2</text></g><g transform="translate(558.36,395.83)rotate(0)"><text x="15.00" y="2.81" style="">BlackDuck1</text></g><g transform="translate(558.36,354.17)rotate(0)"><text x="15.00" y="2.81" style="">Mallard2</text></g><g transform="translate(558.36,312.50)rotate(0)"><text x="15.00" y="2.81" style="">Mallard1</text></g></g></g></g></g></svg>