<svg class="toyplot-canvas-Canvas" xmlns:toyplot="http://www.sandia.gov/toyplot" xmlns:xlink="http://www.w3.org/1999/xlink" xmlns="http://www.w3.org/2000/svg" width="325.0px" height="500.0px" viewBox="0 0 325.0 500.0" preserveAspectRatio="xMidYMid meet" style="background-color:transparent;border-color:#292724;border-style:none;border-width:1.0;fill:rgb(16.1%,15.3%,14.1%);fill-opacity:1.0;font-family:Helvetica;font-size:12px;opacity:1.0;stroke:rgb(16.1%,15.3%,14.1%);stroke-opacity:1.0;stroke-width:1.0" id="ta32669d17d20433cac8daac386997df5"><g class="toyplot-coordinates-Cartesian" id="t62d8570cc0f64dc7b18aeb80a08f30dd"><clipPath id="t84d3a07fdc9a42f2b7f9e2e09d5f4c90"><rect x="30.0" y="30.0" width="265.0" height="440.0" /></clipPath><g clip-path="url(#t84d3a07fdc9a42f2b7f9e2e09d5f4c90)"><g class="toytree-mark-Toytree" id="tcecf7d48f11a4c7fb8e5225a0c9a044b"><g class="toytree-Edges" style="fill:none;stroke:rgb(14.9%,14.9%,14.9%);stroke-linecap:round;stroke-opacity:1;stroke-width:2"><path d="M 51.1 113.0 L 51.1 200.1 L 61.8 200.1" id="49,48" /><path d="M 61.8 200.1 L 61.8 117.4 L 126.4 117.4" id="48,47" /><path d="M 61.8 200.1 L 61.8 282.9 L 72.6 282.9" id="48,46" /><path d="M 126.4 117.4 L 126.4 99.5 L 158.7 99.5" id="47,45" /><path d="M 126.4 117.4 L 126.4 135.2 L 137.1 135.2" id="47,44" /><path d="M 72.6 282.9 L 72.6 233.1 L 126.4 233.1" id="46,43" /><path d="M 72.6 282.9 L 72.6 332.7 L 83.3 332.7" id="46,42" /><path d="M 137.1 135.2 L 137.1 148.4 L 147.9 148.4" id="44,41" /><path d="M 126.4 233.1 L 126.4 204.8 L 147.9 204.8" id="43,40" /><path d="M 126.4 233.1 L 126.4 261.3 L 137.1 261.3" id="43,39" /><path d="M 83.3 332.7 L 83.3 347.7 L 94.1 347.7" id="42,38" /><path d="M 147.9 148.4 L 147.9 159.7 L 158.7 159.7" id="41,37" /><path d="M 147.9 204.8 L 147.9 189.8 L 158.7 189.8" id="40,36" /><path d="M 147.9 204.8 L 147.9 219.9 L 158.7 219.9" id="40,35" /><path d="M 137.1 261.3 L 137.1 280.1 L 147.9 280.1" id="39,34" /><path d="M 94.1 347.7 L 94.1 362.7 L 104.9 362.7" id="38,33" /><path d="M 147.9 280.1 L 147.9 265.1 L 158.7 265.1" id="34,32" /><path d="M 147.9 280.1 L 147.9 295.2 L 158.7 295.2" id="34,31" /><path d="M 104.9 362.7 L 104.9 377.5 L 115.6 377.5" id="33,30" /><path d="M 115.6 377.5 L 115.6 392.1 L 126.4 392.1" id="30,29" /><path d="M 126.4 392.1 L 126.4 406.2 L 137.1 406.2" id="29,28" /><path d="M 137.1 406.2 L 137.1 419.3 L 147.9 419.3" id="28,27" /><path d="M 147.9 419.3 L 147.9 430.6 L 158.7 430.6" id="27,26" /><path d="M 51.1 113.0 L 51.1 61.9 L 169.4 61.9" id="49,25" /><path d="M 51.1 113.0 L 51.1 76.9 L 169.4 76.9" id="49,24" /><path d="M 158.7 99.5 L 158.7 92.0 L 169.4 92.0" id="45,23" /><path d="M 158.7 99.5 L 158.7 107.0 L 169.4 107.0" id="45,22" /><path d="M 137.1 135.2 L 137.1 122.1 L 169.4 122.1" id="44,21" /><path d="M 147.9 148.4 L 147.9 137.1 L 169.4 137.1" id="41,20" /><path d="M 158.7 159.7 L 158.7 152.2 L 169.4 152.2" id="37,19" /><path d="M 158.7 159.7 L 158.7 167.2 L 169.4 167.2" id="37,18" /><path d="M 158.7 189.8 L 158.7 182.3 L 169.4 182.3" id="36,17" /><path d="M 158.7 189.8 L 158.7 197.3 L 169.4 197.3" id="36,16" /><path d="M 158.7 219.9 L 158.7 212.4 L 169.4 212.4" id="35,15" /><path d="M 158.7 219.9 L 158.7 227.4 L 169.4 227.4" id="35,14" /><path d="M 137.1 261.3 L 137.1 242.5 L 169.4 242.5" id="39,13" /><path d="M 158.7 265.1 L 158.7 257.5 L 169.4 257.5" id="32,12" /><path d="M 158.7 265.1 L 158.7 272.6 L 169.4 272.6" id="32,11" /><path d="M 158.7 295.2 L 158.7 287.6 L 169.4 287.6" id="31,10" /><path d="M 158.7 295.2 L 158.7 302.7 L 169.4 302.7" id="31,9" /><path d="M 83.3 332.7 L 83.3 317.7 L 169.4 317.7" id="42,8" /><path d="M 94.1 347.7 L 94.1 332.8 L 169.4 332.8" id="38,7" /><path d="M 104.9 362.7 L 104.9 347.8 L 169.4 347.8" id="33,6" /><path d="M 115.6 377.5 L 115.6 362.9 L 169.4 362.9" id="30,5" /><path d="M 126.4 392.1 L 126.4 377.9 L 169.4 377.9" id="29,4" /><path d="M 137.1 406.2 L 137.1 393.0 L 169.4 393.0" id="28,3" /><path d="M 147.9 419.3 L 147.9 408.0 L 169.4 408.0" id="27,2" /><path d="M 158.7 430.6 L 158.7 423.1 L 169.4 423.1" id="26,1" /><path d="M 158.7 430.6 L 158.7 438.1 L 169.4 438.1" id="26,0" /></g><g class="toytree-TipLabels" style="fill:rgb(14.9%,14.9%,14.9%);fill-opacity:1.0;font-family:helvetica;font-size:11px;font-weight:normal;stroke:none;white-space:pre"><g transform="translate(169.41,438.15)rotate(0)"><text x="15.00" y="2.81" style="">X. gordoni</text></g><g transform="translate(169.41,423.10)rotate(0)"><text x="15.00" y="2.81" style="">X. meyeri</text></g><g transform="translate(169.41,408.04)rotate(0)"><text x="15.00" y="2.81" style="">X. couchianus</text></g><g transform="translate(169.41,392.99)rotate(0)"><text x="15.00" y="2.81" style="">X. variatus</text></g><g transform="translate(169.41,377.94)rotate(0)"><text x="15.00" y="2.81" style="">X. evelynae</text></g><g transform="translate(169.41,362.89)rotate(0)"><text x="15.00" y="2.81" style="">X. milleri</text></g><g transform="translate(169.41,347.84)rotate(0)"><text x="15.00" y="2.81" style="">X. xiphidium</text></g><g transform="translate(169.41,332.78)rotate(0)"><text x="15.00" y="2.81" style="">X. andersi</text></g><g transform="translate(169.41,317.73)rotate(0)"><text x="15.00" y="2.81" style="">X. maculatus_JpWild</text></g><g transform="translate(169.41,302.68)rotate(0)"><text x="15.00" y="2.81" style="">X. cortezi</text></g><g transform="translate(169.41,287.63)rotate(0)"><text x="15.00" y="2.81" style="">X. nezahuacoyotl</text></g><g transform="translate(169.41,272.58)rotate(0)"><text x="15.00" y="2.81" style="">X. malinche_CHIC2</text></g><g transform="translate(169.41,257.53)rotate(0)"><text x="15.00" y="2.81" style="">X. birchmanni_GARC</text></g><g transform="translate(169.41,242.47)rotate(0)"><text x="15.00" y="2.81" style="">X. montezumae</text></g><g transform="translate(169.41,227.42)rotate(0)"><text x="15.00" y="2.81" style="">X. pygmaeus</text></g><g transform="translate(169.41,212.37)rotate(0)"><text x="15.00" y="2.81" style="">X. continens</text></g><g transform="translate(169.41,197.32)rotate(0)"><text x="15.00" y="2.81" style="">X. multilineatus</text></g><g transform="translate(169.41,182.27)rotate(0)"><text x="15.00" y="2.81" style="">X. nigrensis</text></g><g transform="translate(169.41,167.22)rotate(0)"><text x="15.00" y="2.81" style="">X. mayae</text></g><g transform="translate(169.41,152.16)rotate(0)"><text x="15.00" y="2.81" style="">X. alvarezi</text></g><g transform="translate(169.41,137.11)rotate(0)"><text x="15.00" y="2.81" style="">X. hellerii</text></g><g transform="translate(169.41,122.06)rotate(0)"><text x="15.00" y="2.81" style="">X. signum</text></g><g transform="translate(169.41,107.01)rotate(0)"><text x="15.00" y="2.81" style="">X. monticolus</text></g><g transform="translate(169.41,91.96)rotate(0)"><text x="15.00" y="2.81" style="">X. clemenciae_G</text></g><g transform="translate(169.41,76.90)rotate(0)"><text x="15.00" y="2.81" style="">P. sjonesii</text></g><g transform="translate(169.41,61.85)rotate(0)"><text x="15.00" y="2.81" style="">P. riapella</text></g></g></g></g></g></svg>