<svg class="toyplot-canvas-Canvas" xmlns:toyplot="http://www.sandia.gov/toyplot" xmlns:xlink="http://www.w3.org/1999/xlink" xmlns="http://www.w3.org/2000/svg" width="500.0px" height="325.0px" viewBox="0 0 500.0 325.0" preserveAspectRatio="xMidYMid meet" style="background-color:transparent;border-color:#292724;border-style:none;border-width:1.0;fill:rgb(16.1%,15.3%,14.1%);fill-opacity:1.0;font-family:Helvetica;font-size:12px;opacity:1.0;stroke:rgb(16.1%,15.3%,14.1%);stroke-opacity:1.0;stroke-width:1.0" id="te988c6dc6f0d403c896ed7691830cc8f"><g class="toyplot-coordinates-Cartesian" id="t6dbb1b2fe71f4302860dd4d082e67b47"><clipPath id="tef4a7d8825a946eea9903343bd14d523"><rect x="40.0" y="40.0" width="420.0" height="245.0" /></clipPath><g clip-path="url(#tef4a7d8825a946eea9903343bd14d523)"><g class="toyplot-mark-Plot" style="fill:none;stroke-dasharray:5" id="t281f3376a8e54e4a974f066e4ebe0734"><g class="toyplot-Series"><path d="M 60.0 50.0 L 80.0 50.0 L 100.0 50.0 L 120.0 50.0 L 140.0 50.0 L 160.0 50.0 L 180.0 50.0 L 200.0 50.0 L 220.0 50.0 L 240.0 50.0 L 260.0 50.0 L 280.0 50.0 L 300.0 50.0 L 320.0 50.0 L 340.0 50.0 L 360.0 50.0 L 380.0 50.0 L 400.0 50.0 L 420.0 50.0 L 440.0 50.0" style="stroke:rgb(40%,76.1%,64.7%);stroke-dasharray:5;stroke-opacity:1.0;stroke-width:2.0" /></g></g><g class="toyplot-mark-Plot" style="fill:none" id="tde8a09e06dcf48f4b79355e51351f620"><g class="toyplot-Series"><path d="M 60.0 75.81574765981159 L 80.0 88.48233249073397 L 100.0 99.46949994050351 L 120.0 83.61542589943596 L 140.0 109.63564023661058 L 160.0 123.57715061012027 L 180.0 135.7876779577006 L 200.0 174.63567882702395 L 220.0 211.11728992074924 L 240.0 266.14453249223203 L 260.0 269.67990017427417 L 280.0 200.4963097905976 L 300.0 155.4307799651252 L 320.0 128.6519937985514 L 340.0 107.73000802939674 L 360.0 95.79774462587912 L 380.0 93.45207383913927 L 400.0 81.77218487372075 L 420.0 73.49261983780238 L 440.0 72.70752393209852" style="stroke:rgb(98.8%,55.3%,38.4%);stroke-opacity:1.0;stroke-width:2.0" /></g></g></g><g class="toyplot-coordinates-Axis" id="t5128b838c7f34b05a4f1894715f2cdc8" transform="translate(50.0,275.0)translate(0,10.0)"><line x1="10.0" y1="0" x2="390.0" y2="0" style="" /><g><g transform="translate(0.0,6)"><text x="-2.78" y="8.555" style="fill:rgb(16.1%,15.3%,14.1%);fill-opacity:1.0;font-family:helvetica;font-size:10.0px;font-weight:normal;stroke:none;vertical-align:baseline;white-space:pre">0</text></g><g transform="translate(200.0,6)"><text x="-16.68" y="8.555" style="fill:rgb(16.1%,15.3%,14.1%);fill-opacity:1.0;font-family:helvetica;font-size:10.0px;font-weight:normal;stroke:none;vertical-align:baseline;white-space:pre">500000</text></g><g transform="translate(400.0,6)"><text x="-19.459999999999997" y="8.555" style="fill:rgb(16.1%,15.3%,14.1%);fill-opacity:1.0;font-family:helvetica;font-size:10.0px;font-weight:normal;stroke:none;vertical-align:baseline;white-space:pre">1000000</text></g></g><g transform="translate(200.0,22)"><text x="-36.666" y="10.265999999999998" style="fill:rgb(16.1%,15.3%,14.1%);fill-opacity:1.0;font-family:helvetica;font-size:12.0px;font-weight:bold;stroke:none;vertical-align:baseline;white-space:pre">Position (bp)</text></g><g class="toyplot-coordinates-Axis-coordinates" style="visibility:hidden" transform=""><line x1="0" x2="0" y1="-3.0" y2="4.5" style="stroke:rgb(43.9%,50.2%,56.5%);stroke-opacity:1.0;stroke-width:1.0" /><text x="0" y="-6" style="alignment-baseline:alphabetic;fill:rgb(43.9%,50.2%,56.5%);fill-opacity:1.0;font-size:10px;font-weight:normal;stroke:none;text-anchor:middle" /></g></g><g class="toyplot-coordinates-Axis" id="t316d33c42fab4bb2a1768b45c51f48f7" transform="translate(50.0,275.0)rotate(-90.0)translate(0,-10.0)"><line x1="5.320099825725845" y1="0" x2="225.0" y2="0" style="" /><g><g transform="translate(0.0,-6)"><text x="-11.12" y="-4.440892098500626e-16" style="fill:rgb(16.1%,15.3%,14.1%);fill-opacity:1.0;font-family:helvetica;font-size:10.0px;font-weight:normal;stroke:none;vertical-align:baseline;white-space:pre">1000</text></g><g transform="translate(75.0,-6)"><text x="-11.12" y="-4.440892098500626e-16" style="fill:rgb(16.1%,15.3%,14.1%);fill-opacity:1.0;font-family:helvetica;font-size:10.0px;font-weight:normal;stroke:none;vertical-align:baseline;white-space:pre">2000</text></g><g transform="translate(150.0,-6)"><text x="-11.12" y="-4.440892098500626e-16" style="fill:rgb(16.1%,15.3%,14.1%);fill-opacity:1.0;font-family:helvetica;font-size:10.0px;font-weight:normal;stroke:none;vertical-align:baseline;white-space:pre">3000</text></g><g transform="translate(225.0,-6)"><text x="-11.12" y="-4.440892098500626e-16" style="fill:rgb(16.1%,15.3%,14.1%);fill-opacity:1.0;font-family:helvetica;font-size:10.0px;font-weight:normal;stroke:none;vertical-align:baseline;white-space:pre">4000</text></g></g><g transform="translate(112.5,-22)"><text x="-25.632" y="0.0" style="fill:rgb(16.1%,15.3%,14.1%);fill-opacity:1.0;font-family:helvetica;font-size:12.0px;font-weight:bold;stroke:none;vertical-align:baseline;white-space:pre">Branch &#960;</text></g><g class="toyplot-coordinates-Axis-coordinates" style="visibility:hidden" transform=""><line x1="0" x2="0" y1="3.0" y2="-4.5" style="stroke:rgb(43.9%,50.2%,56.5%);stroke-opacity:1.0;stroke-width:1.0" /><text x="0" y="6" style="alignment-baseline:hanging;fill:rgb(43.9%,50.2%,56.5%);fill-opacity:1.0;font-size:10px;font-weight:normal;stroke:none;text-anchor:middle" /></g></g><g transform="translate(250.0,42.0)"><text x="-54.474" y="-4.823" style="fill:rgb(16.1%,15.3%,14.1%);fill-opacity:1.0;font-family:helvetica;font-size:14.0px;font-weight:bold;stroke:none;vertical-align:baseline;white-space:pre">Selective Sweep</text></g></g><g class="toyplot-coordinates-Table" id="t465d1ff9b70c4ad59ce08fc5e224b826"><g transform="translate(70.0,237.5)"><g style="fill:rgb(40%,76.1%,64.7%);fill-opacity:1.0;stroke:rgb(40%,76.1%,64.7%);stroke-dasharray:5;stroke-opacity:1.0;stroke-width:2" transform="translate(-5.55, -4.440892098500626e-16)"><line y1="-5.55" y2="5.55" transform="rotate(45)" /></g></g><g transform="translate(80.0,237.5)"><text x="0" y="3.066" style="fill:rgb(16.1%,15.3%,14.1%);fill-opacity:1.0;font-family:helvetica;font-size:12.0px;font-weight:normal;stroke:none;vertical-align:baseline;white-space:pre">Neutral Expectation</text></g><g transform="translate(70.0,262.5)"><g style="fill:rgb(98.8%,55.3%,38.4%);fill-opacity:1.0;stroke:rgb(98.8%,55.3%,38.4%);stroke-opacity:1.0;stroke-width:2" transform="translate(-5.55, -4.440892098500626e-16)"><line y1="-5.55" y2="5.55" transform="rotate(45)" /></g></g><g transform="translate(80.0,262.5)"><text x="0" y="3.066" style="fill:rgb(16.1%,15.3%,14.1%);fill-opacity:1.0;font-family:helvetica;font-size:12.0px;font-weight:normal;stroke:none;vertical-align:baseline;white-space:pre">Simulated Sweep</text></g></g></svg>