<svg class="toyplot-canvas-Canvas" xmlns:toyplot="http://www.sandia.gov/toyplot" xmlns:xlink="http://www.w3.org/1999/xlink" xmlns="http://www.w3.org/2000/svg" width="500.0px" height="350.0px" viewBox="0 0 500.0 350.0" preserveAspectRatio="xMidYMid meet" style="background-color:transparent;border-color:#292724;border-style:none;border-width:1.0;fill:rgb(16.1%,15.3%,14.1%);fill-opacity:1.0;font-family:Helvetica;font-size:12px;opacity:1.0;stroke:rgb(16.1%,15.3%,14.1%);stroke-opacity:1.0;stroke-width:1.0" id="t1918edbee5cf4aa6bc25e9921941e626"><g class="toyplot-coordinates-Cartesian" id="tefe9aebcf5144f429d71d9af0479edcd"><clipPath id="t91b746ae08084e50910031ae2061c90f"><rect x="40.0" y="40.0" width="420.0" height="270.0" /></clipPath><g clip-path="url(#t91b746ae08084e50910031ae2061c90f)"><g class="toyplot-mark-Plot" style="fill:none" id="td00f11731f7145b69a7509981864941b"><g class="toyplot-Series"><path d="M 54.04040404040404 52.50000000000003 L 58.08080808080808 176.25000000000003 L 62.121212121212125 217.5 L 66.16161616161617 238.12500000000003 L 70.20202020202021 250.50000000000003 L 74.24242424242425 258.75 L 78.28282828282829 264.6428571428571 L 82.32323232323233 269.0625 L 86.36363636363637 272.5 L 90.40404040404042 275.25 L 94.44444444444444 277.5 L 98.48484848484848 279.375 L 102.52525252525254 280.9615384615385 L 106.56565656565658 282.32142857142856 L 110.60606060606061 283.5 L 114.64646464646465 284.53125 L 118.68686868686869 285.4411764705883 L 122.72727272727273 286.25 L 126.76767676767678 286.9736842105263 L 130.80808080808083 287.625 L 134.84848484848484 288.21428571428567 L 138.88888888888889 288.75 L 142.92929292929296 289.2391304347826 L 146.96969696969697 289.6875 L 151.010101010101 290.1 L 155.05050505050505 290.48076923076917 L 159.09090909090912 290.8333333333333 L 163.13131313131316 291.16071428571433 L 167.17171717171718 291.4655172413793 L 171.21212121212122 291.74999999999994 L 175.25252525252523 292.01612903225805 L 179.2929292929293 292.265625 L 183.33333333333337 292.5 L 187.37373737373738 292.72058823529414 L 191.41414141414145 292.92857142857144 L 195.45454545454547 293.125 L 199.4949494949495 293.3108108108108 L 203.53535353535355 293.4868421052631 L 207.57575757575756 293.6538461538462 L 211.61616161616163 293.8125 L 215.6565656565657 293.9634146341463 L 219.6969696969697 294.1071428571429 L 223.73737373737376 294.24418604651163 L 227.77777777777777 294.375 L 231.81818181818184 294.5 L 235.85858585858588 294.6195652173913 L 239.89898989898992 294.7340425531915 L 243.93939393939394 294.84375 L 247.979797979798 294.94897959183675 L 252.02020202020202 295.05 L 256.0606060606061 295.14705882352945 L 260.1010101010101 295.24038461538464 L 264.14141414141415 295.3301886792452 L 268.18181818181824 295.4166666666667 L 272.22222222222223 295.5 L 276.2626262626263 295.5803571428571 L 280.3030303030303 295.6578947368421 L 284.34343434343435 295.7327586206897 L 288.3838383838384 295.8050847457627 L 292.42424242424244 295.875 L 296.4646464646465 295.94262295081967 L 300.5050505050505 296.008064516129 L 304.5454545454546 296.07142857142856 L 308.5858585858586 296.1328125 L 312.6262626262626 296.1923076923077 L 316.66666666666674 296.25 L 320.7070707070707 296.3059701492537 L 324.74747474747477 296.3602941176471 L 328.7878787878788 296.4130434782609 L 332.8282828282829 296.4642857142857 L 336.8686868686869 296.51408450704224 L 340.90909090909093 296.5625 L 344.949494949495 296.60958904109594 L 348.989898989899 296.65540540540536 L 353.03030303030306 296.70000000000005 L 357.0707070707071 296.7434210526316 L 361.1111111111111 296.7857142857143 L 365.1515151515152 296.82692307692304 L 369.1919191919192 296.86708860759495 L 373.23232323232327 296.90624999999994 L 377.27272727272725 296.9444444444444 L 381.3131313131314 296.9817073170732 L 385.3535353535354 297.0180722891566 L 389.3939393939394 297.05357142857144 L 393.4343434343435 297.0882352941176 L 397.4747474747475 297.1220930232558 L 401.51515151515156 297.15517241379314 L 405.55555555555554 297.1875 L 409.59595959595964 297.2191011235955 L 413.6363636363637 297.25 L 417.67676767676767 297.28021978021974 L 421.71717171717177 297.3097826086957 L 425.75757575757575 297.3387096774194 L 429.79797979797985 297.3670212765957 L 433.8383838383839 297.3947368421052 L 437.8787878787879 297.421875 L 441.9191919191919 297.4484536082474 L 445.959595959596 297.4744897959184 L 450.0 297.5" style="stroke:rgb(40%,76.1%,64.7%);stroke-opacity:1.0;stroke-width:2.0" /></g></g></g><g class="toyplot-coordinates-Axis" id="t2f1355d7210245a081f88d1e11a34434" transform="translate(50.0,300.0)translate(0,10.0)"><line x1="0" y1="0" x2="400.0" y2="0" style="" /><g><g transform="translate(0.0,6)"><text x="-6.95" y="8.555" style="fill:rgb(16.1%,15.3%,14.1%);fill-opacity:1.0;font-family:helvetica;font-size:10.0px;font-weight:normal;stroke:none;vertical-align:baseline;white-space:pre">0.0</text></g><g transform="translate(200.0,6)"><text x="-6.95" y="8.555" style="fill:rgb(16.1%,15.3%,14.1%);fill-opacity:1.0;font-family:helvetica;font-size:10.0px;font-weight:normal;stroke:none;vertical-align:baseline;white-space:pre">0.5</text></g><g transform="translate(400.0,6)"><text x="-6.95" y="8.555" style="fill:rgb(16.1%,15.3%,14.1%);fill-opacity:1.0;font-family:helvetica;font-size:10.0px;font-weight:normal;stroke:none;vertical-align:baseline;white-space:pre">1.0</text></g></g><g transform="translate(200.0,22)"><text x="-1.6680000000000001" y="10.265999999999998" style="fill:rgb(16.1%,15.3%,14.1%);fill-opacity:1.0;font-family:helvetica;font-size:12.0px;font-style:italic;font-weight:bold;stroke:none;vertical-align:baseline;white-space:pre">i</text></g><g class="toyplot-coordinates-Axis-coordinates" style="visibility:hidden" transform=""><line x1="0" x2="0" y1="-3.0" y2="4.5" style="stroke:rgb(43.9%,50.2%,56.5%);stroke-opacity:1.0;stroke-width:1.0" /><text x="0" y="-6" style="alignment-baseline:alphabetic;fill:rgb(43.9%,50.2%,56.5%);fill-opacity:1.0;font-size:10px;font-weight:normal;stroke:none;text-anchor:middle" /></g></g><g class="toyplot-coordinates-Axis" id="t15113194be39415499feb19d6e8fa6eb" transform="translate(50.0,300.0)rotate(-90.0)translate(0,-10.0)"><line x1="2.5" y1="0" x2="247.49999999999997" y2="0" style="" /><g><g transform="translate(0.0,-6)"><text x="-9.729999999999999" y="-4.440892098500626e-16" style="fill:rgb(16.1%,15.3%,14.1%);fill-opacity:1.0;font-family:helvetica;font-size:10.0px;font-weight:normal;stroke:none;vertical-align:baseline;white-space:pre">0.00</text></g><g transform="translate(83.33333333333334,-6)"><text x="-9.729999999999999" y="-4.440892098500626e-16" style="fill:rgb(16.1%,15.3%,14.1%);fill-opacity:1.0;font-family:helvetica;font-size:10.0px;font-weight:normal;stroke:none;vertical-align:baseline;white-space:pre">0.01</text></g><g transform="translate(166.66666666666669,-6)"><text x="-9.729999999999999" y="-4.440892098500626e-16" style="fill:rgb(16.1%,15.3%,14.1%);fill-opacity:1.0;font-family:helvetica;font-size:10.0px;font-weight:normal;stroke:none;vertical-align:baseline;white-space:pre">0.02</text></g><g transform="translate(250.0,-6)"><text x="-9.729999999999999" y="-4.440892098500626e-16" style="fill:rgb(16.1%,15.3%,14.1%);fill-opacity:1.0;font-family:helvetica;font-size:10.0px;font-weight:normal;stroke:none;vertical-align:baseline;white-space:pre">0.03</text></g></g><g transform="translate(125.0,-22)"><text x="-4.5036000000000005" y="0.0" style="fill:rgb(16.1%,15.3%,14.1%);fill-opacity:1.0;font-family:helvetica;font-size:12.0px;font-style:italic;font-weight:bold;stroke:none;vertical-align:baseline;white-space:pre">x</text><text x="2.1684" y="1.6799999999999997" style="fill:rgb(16.1%,15.3%,14.1%);fill-opacity:1.0;font-family:helvetica;font-size:8.399999999999999px;font-style:italic;font-weight:bold;stroke:none;vertical-align:baseline;white-space:pre">i</text></g><g class="toyplot-coordinates-Axis-coordinates" style="visibility:hidden" transform=""><line x1="0" x2="0" y1="3.0" y2="-4.5" style="stroke:rgb(43.9%,50.2%,56.5%);stroke-opacity:1.0;stroke-width:1.0" /><text x="0" y="6" style="alignment-baseline:hanging;fill:rgb(43.9%,50.2%,56.5%);fill-opacity:1.0;font-size:10px;font-weight:normal;stroke:none;text-anchor:middle" /></g></g><g transform="translate(250.0,42.0)"><text x="-33.033" y="-4.823" style="fill:rgb(16.1%,15.3%,14.1%);fill-opacity:1.0;font-family:helvetica;font-size:14.0px;font-weight:bold;stroke:none;vertical-align:baseline;white-space:pre">&#952; = 0.0003</text></g></g></svg>