<svg class="toyplot-canvas-Canvas" xmlns:toyplot="http://www.sandia.gov/toyplot" xmlns:xlink="http://www.w3.org/1999/xlink" xmlns="http://www.w3.org/2000/svg" width="350.0px" height="350.0px" viewBox="0 0 350.0 350.0" preserveAspectRatio="xMidYMid meet" style="background-color:transparent;border-color:#292724;border-style:none;border-width:1.0;fill:rgb(16.1%,15.3%,14.1%);fill-opacity:1.0;font-family:Helvetica;font-size:12px;opacity:1.0;stroke:rgb(16.1%,15.3%,14.1%);stroke-opacity:1.0;stroke-width:1.0" id="t1838ef4ce1064d518a1da33bca2433cf"><g class="toyplot-coordinates-Cartesian" id="te07c337a510a4c24bc0fe5a7b78dcfff"><clipPath id="t8491816ee58a4805a590bb702e32c6e7"><rect x="-20.0" y="-20.0" width="390.0" height="390.0" /></clipPath><g clip-path="url(#t8491816ee58a4805a590bb702e32c6e7)"><g class="toyplot-mark-Graph" id="tf79ca4cceab7479ab8254e0f74abfa7b"><g class="toyplot-Edges"><path d="M 47.568312523774026 64.33027251514422 Q 80.76923076923077 175.0 47.568312523774026 285.6697274848558" style="fill:none;stroke:rgb(100%,0%,0%);stroke-opacity:0.35;stroke-width:5.0" /><path d="M 64.33027251514417 33.20091824545679 Q 175.0 0.0 285.6697274848558 33.20091824545679" style="fill:none;stroke:rgb(0%,0%,100%);stroke-opacity:0.35;stroke-width:5.0" /><path d="M 62.39639288266977 52.23711096049087 Q 215.3846153846154 134.6153846153846 297.76288903950916 287.6036071173302" style="fill:none;stroke:rgb(100%,0%,0%);stroke-opacity:0.35;stroke-width:5.0" /><path d="M 33.20091824545675 285.6697274848558 Q 0.0 175.0 33.20091824545675 64.33027251514422" style="fill:none;stroke:rgb(100%,0%,0%);stroke-opacity:0.35;stroke-width:5.0" /><path d="M 52.237110960490824 287.6036071173302 Q 134.6153846153846 134.6153846153846 287.60360711733017 52.23711096049087" style="fill:none;stroke:rgb(100%,0%,0%);stroke-opacity:0.35;stroke-width:5.0" /><path d="M 64.33027251514417 302.43168747622593 Q 175.0 269.2307692307692 285.6697274848558 302.43168747622593" style="fill:none;stroke:rgb(0%,0%,100%);stroke-opacity:0.35;stroke-width:5.0" /><path d="M 285.6697274848558 47.56831252377407 Q 175.0 80.76923076923079 64.33027251514417 47.56831252377407" style="fill:none;stroke:rgb(0%,0%,100%);stroke-opacity:0.35;stroke-width:5.0" /><path d="M 297.76288903950916 62.396392882669815 Q 215.3846153846154 215.3846153846154 62.39639288266977 297.76288903950916" style="fill:none;stroke:rgb(100%,0%,0%);stroke-opacity:0.35;stroke-width:5.0" /><path d="M 316.79908175454324 64.33027251514422 Q 350.0 175.0 316.79908175454324 285.6697274848558" style="fill:none;stroke:rgb(100%,0%,0%);stroke-opacity:0.35;stroke-width:5.0" /><path d="M 287.6036071173302 297.76288903950916 Q 134.6153846153846 215.3846153846154 52.237110960490824 62.396392882669815" style="fill:none;stroke:rgb(100%,0%,0%);stroke-opacity:0.35;stroke-width:5.0" /><path d="M 285.6697274848558 316.79908175454324 Q 175.0 350.0 64.33027251514417 316.79908175454324" style="fill:none;stroke:rgb(0%,0%,100%);stroke-opacity:0.35;stroke-width:5.0" /><path d="M 302.43168747622593 285.6697274848558 Q 269.2307692307692 175.0 302.43168747622593 64.33027251514423" style="fill:none;stroke:rgb(100%,0%,0%);stroke-opacity:0.35;stroke-width:5.0" /><g class="toyplot-HeadMarkers" /><g class="toyplot-MiddleMarkers" /><g class="toyplot-TailMarkers"><g style="fill:rgb(100%,0%,0%);fill-opacity:1.0;stroke:rgb(100%,0%,0%);stroke-opacity:0.35;stroke-width:5.0" transform="translate(47.568312523774026, 285.6697274848558) rotate(106.69924423399362) translate(-5.0, 0)"><polygon points="-5.0,5.0 0,-5.0 5.0,5.0" transform="rotate(90)" /></g><g style="fill:rgb(0%,0%,100%);fill-opacity:1.0;stroke:rgb(0%,0%,100%);stroke-opacity:0.35;stroke-width:5.0" transform="translate(285.6697274848558, 33.20091824545679) rotate(16.69924423399365) translate(-5.0, 0)"><polygon points="-5.0,5.0 0,-5.0 5.0,5.0" transform="rotate(90)" /></g><g style="fill:rgb(100%,0%,0%);fill-opacity:1.0;stroke:rgb(100%,0%,0%);stroke-opacity:0.35;stroke-width:5.0" transform="translate(297.76288903950916, 287.6036071173302) rotate(61.69924423399363) translate(-5.0, 0)"><polygon points="-5.0,5.0 0,-5.0 5.0,5.0" transform="rotate(90)" /></g><g style="fill:rgb(100%,0%,0%);fill-opacity:1.0;stroke:rgb(100%,0%,0%);stroke-opacity:0.35;stroke-width:5.0" transform="translate(33.20091824545675, 64.33027251514422) rotate(-73.30075576600638) translate(-5.0, 0)"><polygon points="-5.0,5.0 0,-5.0 5.0,5.0" transform="rotate(90)" /></g><g style="fill:rgb(100%,0%,0%);fill-opacity:1.0;stroke:rgb(100%,0%,0%);stroke-opacity:0.35;stroke-width:5.0" transform="translate(287.60360711733017, 52.23711096049087) rotate(-28.300755766006375) translate(-5.0, 0)"><polygon points="-5.0,5.0 0,-5.0 5.0,5.0" transform="rotate(90)" /></g><g style="fill:rgb(0%,0%,100%);fill-opacity:1.0;stroke:rgb(0%,0%,100%);stroke-opacity:0.35;stroke-width:5.0" transform="translate(285.6697274848558, 302.43168747622593) rotate(16.699244233993607) translate(-5.0, 0)"><polygon points="-5.0,5.0 0,-5.0 5.0,5.0" transform="rotate(90)" /></g><g style="fill:rgb(0%,0%,100%);fill-opacity:1.0;stroke:rgb(0%,0%,100%);stroke-opacity:0.35;stroke-width:5.0" transform="translate(64.33027251514417, 47.56831252377407) rotate(-163.3007557660064) translate(-5.0, 0)"><polygon points="-5.0,5.0 0,-5.0 5.0,5.0" transform="rotate(90)" /></g><g style="fill:rgb(100%,0%,0%);fill-opacity:1.0;stroke:rgb(100%,0%,0%);stroke-opacity:0.35;stroke-width:5.0" transform="translate(62.39639288266977, 297.76288903950916) rotate(151.69924423399362) translate(-5.0, 0)"><polygon points="-5.0,5.0 0,-5.0 5.0,5.0" transform="rotate(90)" /></g><g style="fill:rgb(100%,0%,0%);fill-opacity:1.0;stroke:rgb(100%,0%,0%);stroke-opacity:0.35;stroke-width:5.0" transform="translate(316.79908175454324, 285.6697274848558) rotate(106.69924423399364) translate(-5.0, 0)"><polygon points="-5.0,5.0 0,-5.0 5.0,5.0" transform="rotate(90)" /></g><g style="fill:rgb(100%,0%,0%);fill-opacity:1.0;stroke:rgb(100%,0%,0%);stroke-opacity:0.35;stroke-width:5.0" transform="translate(52.237110960490824, 62.396392882669815) rotate(-118.30075576600639) translate(-5.0, 0)"><polygon points="-5.0,5.0 0,-5.0 5.0,5.0" transform="rotate(90)" /></g><g style="fill:rgb(0%,0%,100%);fill-opacity:1.0;stroke:rgb(0%,0%,100%);stroke-opacity:0.35;stroke-width:5.0" transform="translate(64.33027251514417, 316.79908175454324) rotate(-163.30075576600638) translate(-5.0, 0)"><polygon points="-5.0,5.0 0,-5.0 5.0,5.0" transform="rotate(90)" /></g><g style="fill:rgb(100%,0%,0%);fill-opacity:1.0;stroke:rgb(100%,0%,0%);stroke-opacity:0.35;stroke-width:5.0" transform="translate(302.43168747622593, 64.33027251514423) rotate(-73.30075576600639) translate(-5.0, 0)"><polygon points="-5.0,5.0 0,-5.0 5.0,5.0" transform="rotate(90)" /></g></g></g><g class="toyplot-Vertices"><g style="fill:none;opacity:1.0;stroke:rgb(0%,0%,0%);stroke-opacity:1.0;stroke-width:2" class="toyplot-Datum" transform="translate(40.38461538461539, 40.38461538461544)"><circle r="25.0" /></g><g style="fill:none;opacity:1.0;stroke:rgb(0%,0%,0%);stroke-opacity:1.0;stroke-width:2" class="toyplot-Datum" transform="translate(40.38461538461539, 309.6153846153846)"><circle r="25.0" /></g><g style="fill:none;opacity:1.0;stroke:rgb(0%,0%,0%);stroke-opacity:1.0;stroke-width:2" class="toyplot-Datum" transform="translate(309.6153846153846, 40.38461538461544)"><circle r="25.0" /></g><g style="fill:none;opacity:1.0;stroke:rgb(0%,0%,0%);stroke-opacity:1.0;stroke-width:2" class="toyplot-Datum" transform="translate(309.6153846153846, 309.6153846153846)"><circle r="25.0" /></g></g><g class="toyplot-Labels"><g class="toyplot-Datum" transform="translate(40.38461538461539,40.38461538461544)"><text x="-6.670000000000001" y="5.109999999999999" style="fill:rgb(16.1%,15.3%,14.1%);fill-opacity:1.0;font-family:helvetica;font-size:20.0px;font-weight:normal;stroke:none;vertical-align:baseline;white-space:pre">A</text></g><g class="toyplot-Datum" transform="translate(40.38461538461539,309.6153846153846)"><text x="-7.22" y="5.109999999999999" style="fill:rgb(16.1%,15.3%,14.1%);fill-opacity:1.0;font-family:helvetica;font-size:20.0px;font-weight:normal;stroke:none;vertical-align:baseline;white-space:pre">C</text></g><g class="toyplot-Datum" transform="translate(309.6153846153846,40.38461538461544)"><text x="-7.78" y="5.109999999999999" style="fill:rgb(16.1%,15.3%,14.1%);fill-opacity:1.0;font-family:helvetica;font-size:20.0px;font-weight:normal;stroke:none;vertical-align:baseline;white-space:pre">G</text></g><g class="toyplot-Datum" transform="translate(309.6153846153846,309.6153846153846)"><text x="-6.109999999999999" y="5.109999999999999" style="fill:rgb(16.1%,15.3%,14.1%);fill-opacity:1.0;font-family:helvetica;font-size:20.0px;font-weight:normal;stroke:none;vertical-align:baseline;white-space:pre">T</text></g></g></g></g></g><g class="toyplot-mark-Text" id="t335980ae0b124fb3bef2abcfd30ae91b"><g class="toyplot-Series"><g class="toyplot-Datum" transform="translate(175.0,40.0)"><text x="-34.23" y="3.577" style="fill:rgb(16.1%,15.3%,14.1%);fill-opacity:1.0;font-family:helvetica;font-size:14.0px;font-weight:normal;opacity:1;stroke:none;vertical-align:baseline;white-space:pre">Transitions</text></g></g></g><g class="toyplot-mark-Text" id="te5a1e16898874de5ba112755b8617808"><g class="toyplot-Series"><g class="toyplot-Datum" transform="translate(175.0,310.0)"><text x="-34.23" y="3.577" style="fill:rgb(16.1%,15.3%,14.1%);fill-opacity:1.0;font-family:helvetica;font-size:14.0px;font-weight:normal;opacity:1;stroke:none;vertical-align:baseline;white-space:pre">Transitions</text></g></g></g><g class="toyplot-mark-Text" id="tbd420a5415624e1bb54aa2dcdf2b6d86"><g class="toyplot-Series"><g class="toyplot-Datum" transform="translate(40.0,175.0)rotate(-90.0)"><text x="-43.953" y="3.577" style="fill:rgb(16.1%,15.3%,14.1%);fill-opacity:1.0;font-family:helvetica;font-size:14.0px;font-weight:normal;opacity:1;stroke:none;vertical-align:baseline;white-space:pre">Transversions</text></g></g></g><g class="toyplot-mark-Text" id="t9a04842d0f6f47c7a1faea3a2f0cc7bb"><g class="toyplot-Series"><g class="toyplot-Datum" transform="translate(175.0,175.0)"><text x="-43.953" y="3.577" style="fill:rgb(16.1%,15.3%,14.1%);fill-opacity:1.0;font-family:helvetica;font-size:14.0px;font-weight:normal;opacity:1;stroke:none;vertical-align:baseline;white-space:pre">Transversions</text></g></g></g><g class="toyplot-mark-Text" id="t86b7bbf58ea24b58b17aa22c51dba1dc"><g class="toyplot-Series"><g class="toyplot-Datum" transform="translate(310.0,175.0)rotate(-270.0)"><text x="-43.953" y="3.577" style="fill:rgb(16.1%,15.3%,14.1%);fill-opacity:1.0;font-family:helvetica;font-size:14.0px;font-weight:normal;opacity:1;stroke:none;vertical-align:baseline;white-space:pre">Transversions</text></g></g></g></svg>