<?xml version="1.0" encoding="utf-8" standalone="no"?>
<!DOCTYPE svg PUBLIC "-//W3C//DTD SVG 1.1//EN"
  "http://www.w3.org/Graphics/SVG/1.1/DTD/svg11.dtd">
<svg xmlns:xlink="http://www.w3.org/1999/xlink" width="375pt" height="243.75pt" viewBox="0 0 375 243.75" xmlns="http://www.w3.org/2000/svg" version="1.1">
 <metadata>
  <rdf:RDF xmlns:dc="http://purl.org/dc/elements/1.1/" xmlns:cc="http://creativecommons.org/ns#" xmlns:rdf="http://www.w3.org/1999/02/22-rdf-syntax-ns#">
   <cc:Work>
    <dc:type rdf:resource="http://purl.org/dc/dcmitype/StillImage"/>
    <dc:date>2023-04-25T08:43:17.602627</dc:date>
    <dc:format>image/svg+xml</dc:format>
    <dc:creator>
     <cc:Agent>
      <dc:title>Matplotlib v3.6.3, https://matplotlib.org/</dc:title>
     </cc:Agent>
    </dc:creator>
   </cc:Work>
  </rdf:RDF>
 </metadata>
 <defs>
  <style type="text/css">*{stroke-linejoin: round; stroke-linecap: butt}</style>
 </defs>
 <g id="figure_1">
  <g id="patch_1">
   <path d="M 0 243.75 
L 375 243.75 
L 375 0 
L 0 0 
z
" style="fill: #ffffff"/>
  </g>
  <g id="axes_1">
   <g id="patch_2">
    <path d="M 35.776373 214.957768 
L 371.99976 214.957768 
L 371.99976 16.56024 
L 35.776373 16.56024 
z
" style="fill: #ffffff"/>
   </g>
   <g id="matplotlib.axis_1">
    <g id="xtick_1">
     <g id="line2d_1">
      <defs>
       <path id="mb6c4262f46" d="M 0 0 
L 0 3.5 
" style="stroke: #000000; stroke-width: 0.8"/>
      </defs>
      <g>
       <use xlink:href="#mb6c4262f46" x="54.146705" y="214.957768" style="stroke: #000000; stroke-width: 0.8"/>
      </g>
     </g>
     <g id="text_1">
      <!-- 1 -->
      <g transform="translate(52.269888 226.799838) scale(0.0675 -0.0675)">
       <defs>
        <path id="Helvetica-31" d="M 613 3169 
L 613 3600 
Q 1222 3659 1462 3798 
Q 1703 3938 1822 4456 
L 2266 4456 
L 2266 0 
L 1666 0 
L 1666 3169 
L 613 3169 
z
" transform="scale(0.015625)"/>
       </defs>
       <use xlink:href="#Helvetica-31"/>
      </g>
     </g>
    </g>
    <g id="xtick_2">
     <g id="line2d_2">
      <g>
       <use xlink:href="#mb6c4262f46" x="205.431792" y="214.957768" style="stroke: #000000; stroke-width: 0.8"/>
      </g>
     </g>
     <g id="text_2">
      <!-- 50 -->
      <g transform="translate(201.678159 226.799838) scale(0.0675 -0.0675)">
       <defs>
        <path id="Helvetica-35" d="M 791 1141 
Q 847 659 1238 475 
Q 1438 381 1700 381 
Q 2200 381 2440 700 
Q 2681 1019 2681 1406 
Q 2681 1875 2395 2131 
Q 2109 2388 1709 2388 
Q 1419 2388 1211 2275 
Q 1003 2163 856 1963 
L 369 1991 
L 709 4400 
L 3034 4400 
L 3034 3856 
L 1131 3856 
L 941 2613 
Q 1097 2731 1238 2791 
Q 1488 2894 1816 2894 
Q 2431 2894 2859 2497 
Q 3288 2100 3288 1491 
Q 3288 856 2895 371 
Q 2503 -113 1644 -113 
Q 1097 -113 676 195 
Q 256 503 206 1141 
L 791 1141 
z
" transform="scale(0.015625)"/>
        <path id="Helvetica-30" d="M 1731 4475 
Q 2600 4475 2988 3759 
Q 3288 3206 3288 2244 
Q 3288 1331 3016 734 
Q 2622 -122 1728 -122 
Q 922 -122 528 578 
Q 200 1163 200 2147 
Q 200 2909 397 3456 
Q 766 4475 1731 4475 
z
M 1725 391 
Q 2163 391 2422 778 
Q 2681 1166 2681 2222 
Q 2681 2984 2493 3476 
Q 2306 3969 1766 3969 
Q 1269 3969 1039 3501 
Q 809 3034 809 2125 
Q 809 1441 956 1025 
Q 1181 391 1725 391 
z
" transform="scale(0.015625)"/>
       </defs>
       <use xlink:href="#Helvetica-35"/>
       <use xlink:href="#Helvetica-30" x="55.615234"/>
      </g>
     </g>
    </g>
    <g id="xtick_3">
     <g id="line2d_3">
      <g>
       <use xlink:href="#mb6c4262f46" x="359.80433" y="214.957768" style="stroke: #000000; stroke-width: 0.8"/>
      </g>
     </g>
     <g id="text_3">
      <!-- 100 -->
      <g transform="translate(354.17388 226.799838) scale(0.0675 -0.0675)">
       <use xlink:href="#Helvetica-31"/>
       <use xlink:href="#Helvetica-30" x="55.615234"/>
       <use xlink:href="#Helvetica-30" x="111.230469"/>
      </g>
     </g>
    </g>
    <g id="text_4">
     <!-- Time (generations) -->
     <g transform="translate(163.634863 238.789447) scale(0.09 -0.09)">
      <defs>
       <path id="Helvetica-Bold-54" d="M 3834 4606 
L 3834 3791 
L 2456 3791 
L 2456 0 
L 1488 0 
L 1488 3791 
L 103 3791 
L 103 4606 
L 3834 4606 
z
" transform="scale(0.015625)"/>
       <path id="Helvetica-Bold-69" d="M 1331 3406 
L 1331 0 
L 428 0 
L 428 3406 
L 1331 3406 
z
M 1331 4634 
L 1331 3813 
L 428 3813 
L 428 4634 
L 1331 4634 
z
" transform="scale(0.015625)"/>
       <path id="Helvetica-Bold-6d" d="M 2328 2469 
Q 2216 2716 1888 2716 
Q 1506 2716 1375 2469 
Q 1303 2328 1303 2050 
L 1303 0 
L 400 0 
L 400 3400 
L 1266 3400 
L 1266 2903 
Q 1431 3169 1578 3281 
Q 1838 3481 2250 3481 
Q 2641 3481 2881 3309 
Q 3075 3150 3175 2900 
Q 3350 3200 3609 3341 
Q 3884 3481 4222 3481 
Q 4447 3481 4665 3393 
Q 4884 3306 5063 3088 
Q 5206 2909 5256 2650 
Q 5288 2478 5288 2147 
L 5281 0 
L 4369 0 
L 4369 2169 
Q 4369 2363 4306 2488 
Q 4188 2725 3869 2725 
Q 3500 2725 3359 2419 
Q 3288 2256 3288 2028 
L 3288 0 
L 2391 0 
L 2391 2028 
Q 2391 2331 2328 2469 
z
" transform="scale(0.015625)"/>
       <path id="Helvetica-Bold-65" d="M 3331 1000 
Q 3297 697 3016 384 
Q 2578 -113 1791 -113 
Q 1141 -113 644 306 
Q 147 725 147 1669 
Q 147 2553 595 3025 
Q 1044 3497 1759 3497 
Q 2184 3497 2525 3337 
Q 2866 3178 3088 2834 
Q 3288 2531 3347 2131 
Q 3381 1897 3375 1456 
L 1044 1456 
Q 1063 944 1366 738 
Q 1550 609 1809 609 
Q 2084 609 2256 766 
Q 2350 850 2422 1000 
L 3331 1000 
z
M 2450 2044 
Q 2428 2397 2236 2580 
Q 2044 2763 1759 2763 
Q 1450 2763 1279 2569 
Q 1109 2375 1066 2044 
L 2450 2044 
z
" transform="scale(0.015625)"/>
       <path id="Helvetica-Bold-20" transform="scale(0.015625)"/>
       <path id="Helvetica-Bold-28" d="M 1394 -1291 
L 1172 -988 
Q 956 -713 713 -169 
Q 278 803 278 1744 
Q 278 2600 644 3444 
Q 891 4019 1366 4681 
L 2038 4681 
L 1847 4331 
Q 1453 3609 1300 2819 
Q 1200 2300 1200 1688 
Q 1200 731 1478 -72 
Q 1641 -547 2053 -1291 
L 1394 -1291 
z
" transform="scale(0.015625)"/>
       <path id="Helvetica-Bold-67" d="M 1378 -597 
Q 1522 -719 1863 -719 
Q 2344 -719 2506 -397 
Q 2613 -191 2613 297 
L 2613 516 
Q 2484 297 2338 188 
Q 2072 -16 1647 -16 
Q 991 -16 598 445 
Q 206 906 206 1694 
Q 206 2453 584 2970 
Q 963 3488 1656 3488 
Q 1913 3488 2103 3409 
Q 2428 3275 2628 2916 
L 2628 3406 
L 3494 3406 
L 3494 175 
Q 3494 -484 3272 -819 
Q 2891 -1394 1809 -1394 
Q 1156 -1394 743 -1137 
Q 331 -881 288 -372 
L 1256 -372 
Q 1294 -528 1378 -597 
z
M 1228 1163 
Q 1409 731 1878 731 
Q 2191 731 2406 967 
Q 2622 1203 2622 1719 
Q 2622 2203 2417 2456 
Q 2213 2709 1869 2709 
Q 1400 2709 1222 2269 
Q 1128 2034 1128 1691 
Q 1128 1394 1228 1163 
z
" transform="scale(0.015625)"/>
       <path id="Helvetica-Bold-6e" d="M 2019 2747 
Q 1566 2747 1397 2363 
Q 1309 2159 1309 1844 
L 1309 0 
L 422 0 
L 422 3400 
L 1281 3400 
L 1281 2903 
Q 1453 3166 1606 3281 
Q 1881 3488 2303 3488 
Q 2831 3488 3167 3211 
Q 3503 2934 3503 2294 
L 3503 0 
L 2591 0 
L 2591 2072 
Q 2591 2341 2519 2484 
Q 2388 2747 2019 2747 
z
" transform="scale(0.015625)"/>
       <path id="Helvetica-Bold-72" d="M 2128 2584 
Q 1591 2584 1406 2234 
Q 1303 2038 1303 1628 
L 1303 0 
L 406 0 
L 406 3406 
L 1256 3406 
L 1256 2813 
Q 1463 3153 1616 3278 
Q 1866 3488 2266 3488 
Q 2291 3488 2308 3486 
Q 2325 3484 2384 3481 
L 2384 2569 
Q 2300 2578 2234 2581 
Q 2169 2584 2128 2584 
z
" transform="scale(0.015625)"/>
       <path id="Helvetica-Bold-61" d="M 544 3038 
Q 897 3488 1756 3488 
Q 2316 3488 2750 3266 
Q 3184 3044 3184 2428 
L 3184 866 
Q 3184 703 3191 472 
Q 3200 297 3244 234 
Q 3288 172 3375 131 
L 3375 0 
L 2406 0 
Q 2366 103 2350 193 
Q 2334 284 2325 400 
Q 2141 200 1900 59 
Q 1613 -106 1250 -106 
Q 788 -106 486 158 
Q 184 422 184 906 
Q 184 1534 669 1816 
Q 934 1969 1450 2034 
L 1753 2072 
Q 2000 2103 2106 2150 
Q 2297 2231 2297 2403 
Q 2297 2613 2151 2692 
Q 2006 2772 1725 2772 
Q 1409 2772 1278 2616 
Q 1184 2500 1153 2303 
L 294 2303 
Q 322 2750 544 3038 
z
M 1206 644 
Q 1331 541 1513 541 
Q 1800 541 2042 709 
Q 2284 878 2294 1325 
L 2294 1656 
Q 2209 1603 2123 1570 
Q 2038 1538 1888 1509 
L 1688 1472 
Q 1406 1422 1284 1350 
Q 1078 1228 1078 972 
Q 1078 744 1206 644 
z
" transform="scale(0.015625)"/>
       <path id="Helvetica-Bold-74" d="M 1975 634 
L 1975 -31 
L 1553 -47 
Q 922 -69 691 172 
Q 541 325 541 644 
L 541 2741 
L 66 2741 
L 66 3375 
L 541 3375 
L 541 4325 
L 1422 4325 
L 1422 3375 
L 1975 3375 
L 1975 2741 
L 1422 2741 
L 1422 941 
Q 1422 731 1475 679 
Q 1528 628 1800 628 
Q 1841 628 1886 629 
Q 1931 631 1975 634 
z
" transform="scale(0.015625)"/>
       <path id="Helvetica-Bold-6f" d="M 3256 2975 
Q 3688 2434 3688 1697 
Q 3688 947 3256 414 
Q 2825 -119 1947 -119 
Q 1069 -119 637 414 
Q 206 947 206 1697 
Q 206 2434 637 2975 
Q 1069 3516 1947 3516 
Q 2825 3516 3256 2975 
z
M 1944 2763 
Q 1553 2763 1342 2486 
Q 1131 2209 1131 1697 
Q 1131 1184 1342 906 
Q 1553 628 1944 628 
Q 2334 628 2543 906 
Q 2753 1184 2753 1697 
Q 2753 2209 2543 2486 
Q 2334 2763 1944 2763 
z
" transform="scale(0.015625)"/>
       <path id="Helvetica-Bold-73" d="M 2763 3250 
Q 3163 2994 3222 2369 
L 2331 2369 
Q 2313 2541 2234 2641 
Q 2088 2822 1734 2822 
Q 1444 2822 1320 2731 
Q 1197 2641 1197 2519 
Q 1197 2366 1328 2297 
Q 1459 2225 2256 2050 
Q 2788 1925 3053 1672 
Q 3316 1416 3316 1031 
Q 3316 525 2939 204 
Q 2563 -116 1775 -116 
Q 972 -116 589 223 
Q 206 563 206 1088 
L 1109 1088 
Q 1138 850 1231 750 
Q 1397 572 1844 572 
Q 2106 572 2261 650 
Q 2416 728 2416 884 
Q 2416 1034 2291 1113 
Q 2166 1191 1363 1381 
Q 784 1525 547 1741 
Q 309 1953 309 2353 
Q 309 2825 679 3164 
Q 1050 3503 1722 3503 
Q 2359 3503 2763 3250 
z
" transform="scale(0.015625)"/>
       <path id="Helvetica-Bold-29" d="M 947 -988 
L 725 -1291 
L 66 -1291 
Q 478 -547 641 -72 
Q 919 731 919 1688 
Q 919 2300 819 2819 
Q 666 3609 272 4331 
L 81 4681 
L 753 4681 
Q 1228 4019 1475 3444 
Q 1841 2600 1841 1744 
Q 1841 803 1406 -169 
Q 1163 -713 947 -988 
z
" transform="scale(0.015625)"/>
      </defs>
      <use xlink:href="#Helvetica-Bold-54"/>
      <use xlink:href="#Helvetica-Bold-69" x="61.083984"/>
      <use xlink:href="#Helvetica-Bold-6d" x="88.867188"/>
      <use xlink:href="#Helvetica-Bold-65" x="177.783203"/>
      <use xlink:href="#Helvetica-Bold-20" x="233.398438"/>
      <use xlink:href="#Helvetica-Bold-28" x="261.181641"/>
      <use xlink:href="#Helvetica-Bold-67" x="294.482422"/>
      <use xlink:href="#Helvetica-Bold-65" x="355.566406"/>
      <use xlink:href="#Helvetica-Bold-6e" x="411.181641"/>
      <use xlink:href="#Helvetica-Bold-65" x="472.265625"/>
      <use xlink:href="#Helvetica-Bold-72" x="527.880859"/>
      <use xlink:href="#Helvetica-Bold-61" x="566.796875"/>
      <use xlink:href="#Helvetica-Bold-74" x="622.412109"/>
      <use xlink:href="#Helvetica-Bold-69" x="655.712891"/>
      <use xlink:href="#Helvetica-Bold-6f" x="683.496094"/>
      <use xlink:href="#Helvetica-Bold-6e" x="744.580078"/>
      <use xlink:href="#Helvetica-Bold-73" x="805.664062"/>
      <use xlink:href="#Helvetica-Bold-29" x="861.279297"/>
     </g>
    </g>
   </g>
   <g id="matplotlib.axis_2">
    <g id="ytick_1">
     <g id="line2d_4">
      <defs>
       <path id="m6ecd3b95d6" d="M 0 0 
L -3.5 0 
" style="stroke: #000000; stroke-width: 0.8"/>
      </defs>
      <g>
       <use xlink:href="#m6ecd3b95d6" x="35.776373" y="214.957768" style="stroke: #000000; stroke-width: 0.8"/>
      </g>
     </g>
     <g id="text_5">
      <!-- 0.0 -->
      <g transform="translate(19.393873 217.378803) scale(0.0675 -0.0675)">
       <defs>
        <path id="Helvetica-2e" d="M 547 681 
L 1200 681 
L 1200 0 
L 547 0 
L 547 681 
z
" transform="scale(0.015625)"/>
       </defs>
       <use xlink:href="#Helvetica-30"/>
       <use xlink:href="#Helvetica-2e" x="55.615234"/>
       <use xlink:href="#Helvetica-30" x="83.398438"/>
      </g>
     </g>
    </g>
    <g id="ytick_2">
     <g id="line2d_5">
      <g>
       <use xlink:href="#m6ecd3b95d6" x="35.776373" y="165.358386" style="stroke: #000000; stroke-width: 0.8"/>
      </g>
     </g>
     <g id="text_6">
      <!-- 0.25 -->
      <g transform="translate(15.64024 167.779421) scale(0.0675 -0.0675)">
       <defs>
        <path id="Helvetica-32" d="M 200 0 
Q 231 578 439 1006 
Q 647 1434 1250 1784 
L 1850 2131 
Q 2253 2366 2416 2531 
Q 2672 2791 2672 3125 
Q 2672 3516 2437 3745 
Q 2203 3975 1813 3975 
Q 1234 3975 1013 3538 
Q 894 3303 881 2888 
L 309 2888 
Q 319 3472 525 3841 
Q 891 4491 1816 4491 
Q 2584 4491 2939 4075 
Q 3294 3659 3294 3150 
Q 3294 2613 2916 2231 
Q 2697 2009 2131 1694 
L 1703 1456 
Q 1397 1288 1222 1134 
Q 909 863 828 531 
L 3272 531 
L 3272 0 
L 200 0 
z
" transform="scale(0.015625)"/>
       </defs>
       <use xlink:href="#Helvetica-30"/>
       <use xlink:href="#Helvetica-2e" x="55.615234"/>
       <use xlink:href="#Helvetica-32" x="83.398438"/>
       <use xlink:href="#Helvetica-35" x="139.013672"/>
      </g>
     </g>
    </g>
    <g id="ytick_3">
     <g id="line2d_6">
      <g>
       <use xlink:href="#m6ecd3b95d6" x="35.776373" y="115.759004" style="stroke: #000000; stroke-width: 0.8"/>
      </g>
     </g>
     <g id="text_7">
      <!-- 0.5 -->
      <g transform="translate(19.393873 118.180039) scale(0.0675 -0.0675)">
       <use xlink:href="#Helvetica-30"/>
       <use xlink:href="#Helvetica-2e" x="55.615234"/>
       <use xlink:href="#Helvetica-35" x="83.398438"/>
      </g>
     </g>
    </g>
    <g id="ytick_4">
     <g id="line2d_7">
      <g>
       <use xlink:href="#m6ecd3b95d6" x="35.776373" y="66.159622" style="stroke: #000000; stroke-width: 0.8"/>
      </g>
     </g>
     <g id="text_8">
      <!-- 0.75 -->
      <g transform="translate(15.64024 68.580657) scale(0.0675 -0.0675)">
       <defs>
        <path id="Helvetica-37" d="M 3347 4400 
L 3347 3909 
Q 3131 3700 2773 3181 
Q 2416 2663 2141 2063 
Q 1869 1478 1728 997 
Q 1638 688 1494 0 
L 872 0 
Q 1084 1281 1809 2550 
Q 2238 3294 2709 3834 
L 234 3834 
L 234 4400 
L 3347 4400 
z
" transform="scale(0.015625)"/>
       </defs>
       <use xlink:href="#Helvetica-30"/>
       <use xlink:href="#Helvetica-2e" x="55.615234"/>
       <use xlink:href="#Helvetica-37" x="83.398438"/>
       <use xlink:href="#Helvetica-35" x="139.013672"/>
      </g>
     </g>
    </g>
    <g id="ytick_5">
     <g id="line2d_8">
      <g>
       <use xlink:href="#m6ecd3b95d6" x="35.776373" y="16.56024" style="stroke: #000000; stroke-width: 0.8"/>
      </g>
     </g>
     <g id="text_9">
      <!-- 1.0 -->
      <g transform="translate(19.393873 18.981275) scale(0.0675 -0.0675)">
       <use xlink:href="#Helvetica-31"/>
       <use xlink:href="#Helvetica-2e" x="55.615234"/>
       <use xlink:href="#Helvetica-30" x="83.398438"/>
      </g>
     </g>
    </g>
    <g id="text_10">
     <!-- Allele Frequency ($\mathbf{p}$) -->
     <g transform="translate(9.66024 159.274004) rotate(-90) scale(0.09 -0.09)">
      <defs>
       <path id="Helvetica-Bold-41" d="M 3184 947 
L 1488 947 
L 1169 0 
L 163 0 
L 1806 4606 
L 2894 4606 
L 4525 0 
L 3481 0 
L 3184 947 
z
M 2916 1741 
L 2341 3553 
L 1747 1741 
L 2916 1741 
z
" transform="scale(0.015625)"/>
       <path id="Helvetica-Bold-6c" d="M 434 4606 
L 1325 4606 
L 1325 0 
L 434 0 
L 434 4606 
z
" transform="scale(0.015625)"/>
       <path id="Helvetica-Bold-46" d="M 3753 3791 
L 1444 3791 
L 1444 2731 
L 3466 2731 
L 3466 1931 
L 1444 1931 
L 1444 0 
L 488 0 
L 488 4600 
L 3753 4600 
L 3753 3791 
z
" transform="scale(0.015625)"/>
       <path id="Helvetica-Bold-71" d="M 2613 -1350 
L 2613 422 
Q 2513 216 2270 55 
Q 2028 -106 1609 -106 
Q 1019 -106 603 366 
Q 188 838 188 1625 
Q 188 2475 605 2984 
Q 1022 3494 1634 3494 
Q 2059 3494 2322 3284 
Q 2475 3166 2634 2894 
L 2634 3400 
L 3494 3400 
L 3494 -1350 
L 2613 -1350 
z
M 1209 1084 
Q 1384 656 1859 656 
Q 2319 656 2513 1050 
Q 2638 1309 2638 1706 
Q 2638 2019 2531 2266 
Q 2341 2709 1863 2709 
Q 1525 2709 1320 2450 
Q 1116 2191 1116 1663 
Q 1116 1309 1209 1084 
z
" transform="scale(0.015625)"/>
       <path id="Helvetica-Bold-75" d="M 2600 481 
Q 2588 466 2538 387 
Q 2488 309 2419 250 
Q 2209 63 2014 -6 
Q 1819 -75 1556 -75 
Q 800 -75 538 469 
Q 391 769 391 1353 
L 391 3406 
L 1303 3406 
L 1303 1353 
Q 1303 1063 1372 916 
Q 1494 656 1850 656 
Q 2306 656 2475 1025 
Q 2563 1225 2563 1553 
L 2563 3406 
L 3466 3406 
L 3466 0 
L 2600 0 
L 2600 481 
z
" transform="scale(0.015625)"/>
       <path id="Helvetica-Bold-63" d="M 3363 2184 
L 2450 2184 
Q 2425 2375 2322 2528 
Q 2172 2734 1856 2734 
Q 1406 2734 1241 2288 
Q 1153 2050 1153 1656 
Q 1153 1281 1241 1053 
Q 1400 628 1841 628 
Q 2153 628 2284 797 
Q 2416 966 2444 1234 
L 3353 1234 
Q 3322 828 3059 466 
Q 2641 -119 1819 -119 
Q 997 -119 609 368 
Q 222 856 222 1634 
Q 222 2513 650 3000 
Q 1078 3488 1831 3488 
Q 2472 3488 2880 3200 
Q 3288 2913 3363 2184 
z
" transform="scale(0.015625)"/>
       <path id="Helvetica-Bold-79" d="M 1800 894 
L 2503 3406 
L 3450 3406 
L 2281 56 
Q 1944 -913 1747 -1145 
Q 1550 -1378 959 -1378 
Q 841 -1378 769 -1376 
Q 697 -1375 553 -1366 
L 553 -653 
L 666 -659 
Q 797 -666 915 -650 
Q 1034 -634 1116 -578 
Q 1194 -525 1261 -356 
Q 1328 -188 1316 -150 
L 66 3406 
L 1056 3406 
L 1800 894 
z
" transform="scale(0.015625)"/>
       <path id="DejaVuSans-Bold-70" d="M 1656 506 
L 1656 -1331 
L 538 -1331 
L 538 3500 
L 1656 3500 
L 1656 2988 
Q 1888 3294 2169 3439 
Q 2450 3584 2816 3584 
Q 3463 3584 3878 3070 
Q 4294 2556 4294 1747 
Q 4294 938 3878 423 
Q 3463 -91 2816 -91 
Q 2450 -91 2169 54 
Q 1888 200 1656 506 
z
M 2400 2772 
Q 2041 2772 1848 2508 
Q 1656 2244 1656 1747 
Q 1656 1250 1848 986 
Q 2041 722 2400 722 
Q 2759 722 2948 984 
Q 3138 1247 3138 1747 
Q 3138 2247 2948 2509 
Q 2759 2772 2400 2772 
z
" transform="scale(0.015625)"/>
      </defs>
      <use xlink:href="#Helvetica-Bold-41" transform="translate(0 0.859375)"/>
      <use xlink:href="#Helvetica-Bold-6c" transform="translate(72.216797 0.859375)"/>
      <use xlink:href="#Helvetica-Bold-6c" transform="translate(100 0.859375)"/>
      <use xlink:href="#Helvetica-Bold-65" transform="translate(127.783203 0.859375)"/>
      <use xlink:href="#Helvetica-Bold-6c" transform="translate(183.398438 0.859375)"/>
      <use xlink:href="#Helvetica-Bold-65" transform="translate(211.181641 0.859375)"/>
      <use xlink:href="#Helvetica-Bold-20" transform="translate(266.796875 0.859375)"/>
      <use xlink:href="#Helvetica-Bold-46" transform="translate(294.580078 0.859375)"/>
      <use xlink:href="#Helvetica-Bold-72" transform="translate(355.664062 0.859375)"/>
      <use xlink:href="#Helvetica-Bold-65" transform="translate(394.580078 0.859375)"/>
      <use xlink:href="#Helvetica-Bold-71" transform="translate(450.195312 0.859375)"/>
      <use xlink:href="#Helvetica-Bold-75" transform="translate(511.279297 0.859375)"/>
      <use xlink:href="#Helvetica-Bold-65" transform="translate(572.363281 0.859375)"/>
      <use xlink:href="#Helvetica-Bold-6e" transform="translate(627.978516 0.859375)"/>
      <use xlink:href="#Helvetica-Bold-63" transform="translate(689.0625 0.859375)"/>
      <use xlink:href="#Helvetica-Bold-79" transform="translate(744.677734 0.859375)"/>
      <use xlink:href="#Helvetica-Bold-20" transform="translate(800.292969 0.859375)"/>
      <use xlink:href="#Helvetica-Bold-28" transform="translate(828.076172 0.859375)"/>
      <use xlink:href="#DejaVuSans-Bold-70" transform="translate(861.376953 0.859375)"/>
      <use xlink:href="#Helvetica-Bold-29" transform="translate(932.958984 0.859375)"/>
     </g>
    </g>
   </g>
   <g id="line2d_9">
    <path d="M 51.059254 115.759004 
L 54.146705 115.759004 
L 57.234156 115.759004 
L 60.321606 115.759004 
L 63.409057 115.759004 
L 66.496508 115.759004 
L 69.583959 115.759004 
L 72.671409 115.759004 
L 75.75886 115.759004 
L 78.846311 115.759004 
L 81.933762 115.759004 
L 85.021212 115.759004 
L 88.108663 115.759004 
L 91.196114 115.759004 
L 94.283565 115.759004 
L 97.371015 115.759004 
L 100.458466 115.759004 
L 103.545917 115.759004 
L 106.633368 115.759004 
L 109.720818 115.759004 
L 112.808269 115.759004 
L 115.89572 115.759004 
L 118.983171 115.759004 
L 122.070621 115.759004 
L 125.158072 115.759004 
L 128.245523 115.759004 
L 131.332974 115.759004 
L 134.420424 115.759004 
L 137.507875 115.759004 
L 140.595326 115.759004 
L 143.682777 115.759004 
L 146.770227 115.759004 
L 149.857678 115.759004 
L 152.945129 115.759004 
L 156.03258 115.759004 
L 159.12003 115.759004 
L 162.207481 115.759004 
L 165.294932 115.759004 
L 168.382383 115.759004 
L 171.469833 115.759004 
L 174.557284 115.759004 
L 177.644735 115.759004 
L 180.732186 115.759004 
L 183.819637 115.759004 
L 186.907087 115.759004 
L 189.994538 115.759004 
L 193.081989 115.759004 
L 196.16944 115.759004 
L 199.25689 115.759004 
L 202.344341 115.759004 
L 205.431792 115.759004 
L 208.519243 115.759004 
L 211.606693 115.759004 
L 214.694144 115.759004 
L 217.781595 115.759004 
L 220.869046 115.759004 
L 223.956496 115.759004 
L 227.043947 115.759004 
L 230.131398 115.759004 
L 233.218849 115.759004 
L 236.306299 115.759004 
L 239.39375 115.759004 
L 242.481201 115.759004 
L 245.568652 115.759004 
L 248.656102 115.759004 
L 251.743553 115.759004 
L 254.831004 115.759004 
L 257.918455 115.759004 
L 261.005905 115.759004 
L 264.093356 115.759004 
L 267.180807 115.759004 
L 270.268258 115.759004 
L 273.355708 115.759004 
L 276.443159 115.759004 
L 279.53061 115.759004 
L 282.618061 115.759004 
L 285.705511 115.759004 
L 288.792962 115.759004 
L 291.880413 115.759004 
L 294.967864 115.759004 
L 298.055314 115.759004 
L 301.142765 115.759004 
L 304.230216 115.759004 
L 307.317667 115.759004 
L 310.405117 115.759004 
L 313.492568 115.759004 
L 316.580019 115.759004 
L 319.66747 115.759004 
L 322.75492 115.759004 
L 325.842371 115.759004 
L 328.929822 115.759004 
L 332.017273 115.759004 
L 335.104723 115.759004 
L 338.192174 115.759004 
L 341.279625 115.759004 
L 344.367076 115.759004 
L 347.454527 115.759004 
L 350.541977 115.759004 
L 353.629428 115.759004 
L 356.716879 115.759004 
" clip-path="url(#pedb73685c6)" style="fill: none; stroke: #1f77b4; stroke-width: 3; stroke-linecap: square"/>
   </g>
   <g id="patch_3">
    <path d="M 35.776373 214.957768 
L 35.776373 16.56024 
" style="fill: none; stroke: #000000; stroke-width: 0.8; stroke-linejoin: miter; stroke-linecap: square"/>
   </g>
   <g id="patch_4">
    <path d="M 35.776373 214.957768 
L 371.99976 214.957768 
" style="fill: none; stroke: #000000; stroke-width: 0.8; stroke-linejoin: miter; stroke-linecap: square"/>
   </g>
   <g id="text_11">
    <!-- $\mathbf{p_0}$ = 0.5; $\mathbf{w_{11} = w_{12} = w_{22}}$ -->
    <g transform="translate(137.475566 10.56024) scale(0.105 -0.105)">
     <defs>
      <path id="DejaVuSans-Bold-30" d="M 2944 2338 
Q 2944 3213 2780 3570 
Q 2616 3928 2228 3928 
Q 1841 3928 1675 3570 
Q 1509 3213 1509 2338 
Q 1509 1453 1675 1090 
Q 1841 728 2228 728 
Q 2613 728 2778 1090 
Q 2944 1453 2944 2338 
z
M 4147 2328 
Q 4147 1169 3647 539 
Q 3147 -91 2228 -91 
Q 1306 -91 806 539 
Q 306 1169 306 2328 
Q 306 3491 806 4120 
Q 1306 4750 2228 4750 
Q 3147 4750 3647 4120 
Q 4147 3491 4147 2328 
z
" transform="scale(0.015625)"/>
      <path id="Helvetica-Bold-3d" d="M 3613 2834 
L 3613 2013 
L 228 2013 
L 228 2834 
L 3613 2834 
z
M 228 553 
L 228 1375 
L 3613 1375 
L 3613 553 
L 228 553 
z
" transform="scale(0.015625)"/>
      <path id="Helvetica-Bold-30" d="M 1763 -113 
Q 897 -113 548 493 
Q 200 1100 200 2222 
Q 200 3344 548 3953 
Q 897 4563 1763 4563 
Q 2628 4563 2978 3953 
Q 3325 3344 3325 2222 
Q 3325 1100 2976 493 
Q 2628 -113 1763 -113 
z
M 2284 1028 
Q 2406 1441 2406 2222 
Q 2406 3041 2282 3434 
Q 2159 3828 1763 3828 
Q 1366 3828 1237 3434 
Q 1109 3041 1109 2222 
Q 1109 1441 1237 1027 
Q 1366 613 1763 613 
Q 2159 613 2284 1028 
z
" transform="scale(0.015625)"/>
      <path id="Helvetica-Bold-2e" d="M 400 931 
L 1347 931 
L 1347 0 
L 400 0 
L 400 931 
z
" transform="scale(0.015625)"/>
      <path id="Helvetica-Bold-35" d="M 1706 2250 
Q 1544 2250 1425 2209 
Q 1216 2134 1109 1931 
L 309 1969 
L 628 4472 
L 3125 4472 
L 3125 3716 
L 1272 3716 
L 1109 2725 
Q 1316 2859 1431 2903 
Q 1625 2975 1903 2975 
Q 2466 2975 2884 2597 
Q 3303 2219 3303 1497 
Q 3303 869 2900 375 
Q 2497 -119 1694 -119 
Q 1047 -119 631 228 
Q 216 575 169 1213 
L 1056 1213 
Q 1109 922 1259 764 
Q 1409 606 1697 606 
Q 2028 606 2201 839 
Q 2375 1072 2375 1425 
Q 2375 1772 2212 2011 
Q 2050 2250 1706 2250 
z
" transform="scale(0.015625)"/>
      <path id="Helvetica-Bold-3b" d="M 1038 -991 
Q 813 -1084 725 -1084 
L 725 -741 
Q 1041 -650 1166 -419 
Q 1244 -275 1266 0 
L 725 0 
L 725 931 
L 1688 931 
L 1688 125 
Q 1688 -91 1631 -320 
Q 1575 -550 1422 -719 
Q 1263 -897 1038 -991 
z
M 1672 2341 
L 725 2341 
L 725 3272 
L 1672 3272 
L 1672 2341 
z
" transform="scale(0.015625)"/>
      <path id="DejaVuSans-Bold-77" d="M 225 3500 
L 1313 3500 
L 1900 1088 
L 2491 3500 
L 3425 3500 
L 4013 1113 
L 4603 3500 
L 5691 3500 
L 4769 0 
L 3547 0 
L 2956 2406 
L 2369 0 
L 1147 0 
L 225 3500 
z
" transform="scale(0.015625)"/>
      <path id="DejaVuSans-Bold-31" d="M 750 831 
L 1813 831 
L 1813 3847 
L 722 3622 
L 722 4441 
L 1806 4666 
L 2950 4666 
L 2950 831 
L 4013 831 
L 4013 0 
L 750 0 
L 750 831 
z
" transform="scale(0.015625)"/>
      <path id="DejaVuSans-Bold-3d" d="M 678 3084 
L 4684 3084 
L 4684 2350 
L 678 2350 
L 678 3084 
z
M 678 1663 
L 4684 1663 
L 4684 922 
L 678 922 
L 678 1663 
z
" transform="scale(0.015625)"/>
      <path id="DejaVuSans-Bold-32" d="M 1844 884 
L 3897 884 
L 3897 0 
L 506 0 
L 506 884 
L 2209 2388 
Q 2438 2594 2547 2791 
Q 2656 2988 2656 3200 
Q 2656 3528 2436 3728 
Q 2216 3928 1850 3928 
Q 1569 3928 1234 3808 
Q 900 3688 519 3450 
L 519 4475 
Q 925 4609 1322 4679 
Q 1719 4750 2100 4750 
Q 2938 4750 3402 4381 
Q 3866 4013 3866 3353 
Q 3866 2972 3669 2642 
Q 3472 2313 2841 1759 
L 1844 884 
z
" transform="scale(0.015625)"/>
     </defs>
     <use xlink:href="#DejaVuSans-Bold-70" transform="translate(0 0.703125)"/>
     <use xlink:href="#DejaVuSans-Bold-30" transform="translate(72.539062 -15.703125) scale(0.7)"/>
     <use xlink:href="#Helvetica-Bold-20" transform="translate(123.979492 0.703125)"/>
     <use xlink:href="#Helvetica-Bold-3d" transform="translate(151.762695 0.703125)"/>
     <use xlink:href="#Helvetica-Bold-20" transform="translate(210.161133 0.703125)"/>
     <use xlink:href="#Helvetica-Bold-30" transform="translate(237.944336 0.703125)"/>
     <use xlink:href="#Helvetica-Bold-2e" transform="translate(293.55957 0.703125)"/>
     <use xlink:href="#Helvetica-Bold-35" transform="translate(321.342773 0.703125)"/>
     <use xlink:href="#Helvetica-Bold-3b" transform="translate(376.958008 0.703125)"/>
     <use xlink:href="#Helvetica-Bold-20" transform="translate(410.258789 0.703125)"/>
     <use xlink:href="#DejaVuSans-Bold-77" transform="translate(438.041992 0.703125)"/>
     <use xlink:href="#DejaVuSans-Bold-31" transform="translate(531.381836 -15.703125) scale(0.7)"/>
     <use xlink:href="#DejaVuSans-Bold-31" transform="translate(580.087891 -15.703125) scale(0.7)"/>
     <use xlink:href="#DejaVuSans-Bold-3d" transform="translate(651.010742 0.703125)"/>
     <use xlink:href="#DejaVuSans-Bold-77" transform="translate(754.282227 0.703125)"/>
     <use xlink:href="#DejaVuSans-Bold-31" transform="translate(847.62207 -15.703125) scale(0.7)"/>
     <use xlink:href="#DejaVuSans-Bold-32" transform="translate(896.328125 -15.703125) scale(0.7)"/>
     <use xlink:href="#DejaVuSans-Bold-3d" transform="translate(967.250977 0.703125)"/>
     <use xlink:href="#DejaVuSans-Bold-77" transform="translate(1070.522461 0.703125)"/>
     <use xlink:href="#DejaVuSans-Bold-32" transform="translate(1163.862305 -15.703125) scale(0.7)"/>
     <use xlink:href="#DejaVuSans-Bold-32" transform="translate(1212.568359 -15.703125) scale(0.7)"/>
    </g>
   </g>
  </g>
 </g>
 <defs>
  <clipPath id="pedb73685c6">
   <rect x="35.776373" y="16.56024" width="336.223387" height="198.397528"/>
  </clipPath>
 </defs>
</svg>
