<svg class="toyplot-canvas-Canvas" xmlns:toyplot="http://www.sandia.gov/toyplot" xmlns:xlink="http://www.w3.org/1999/xlink" xmlns="http://www.w3.org/2000/svg" width="700.0px" height="500.0px" viewBox="0 0 700.0 500.0" preserveAspectRatio="xMidYMid meet" style="background-color:transparent;border-color:#292724;border-style:none;border-width:1.0;fill:rgb(16.1%,15.3%,14.1%);fill-opacity:1.0;font-family:Helvetica;font-size:12px;opacity:1.0;stroke:rgb(16.1%,15.3%,14.1%);stroke-opacity:1.0;stroke-width:1.0" id="t2dbcd11679014a2290fad64ef8d11c3b"><g class="toyplot-coordinates-Cartesian" id="t250d54052afd4491a21fe1e3644d61aa"><clipPath id="tae3a64c922a84590aa15b76a8d0c337e"><rect x="40.0" y="40.0" width="620.0" height="420.0" /></clipPath><g clip-path="url(#tae3a64c922a84590aa15b76a8d0c337e)"><g class="toyplot-mark-Plot" style="fill:none" id="t1d31ddcecc1a4eb3ae41d740911a4c0e"><g class="toyplot-Series"><path d="M 50.0 450.0 L 56.06060606060606 372.74080871306427 L 62.121212121212125 334.11121306959643 L 68.18181818181819 308.35814930728446 L 74.24242424242425 289.0433514855506 L 80.30303030303031 273.5915132281634 L 86.36363636363637 260.71498134700744 L 92.42424242424242 249.6779540203023 L 98.4848484848485 240.02055510943538 L 104.54545454545455 231.4362005219981 L 110.60606060606061 223.7102813933045 L 116.66666666666666 216.68671854903764 L 122.72727272727273 210.24845260845962 L 128.7878787878788 204.30543789407994 L 134.84848484848484 198.78692423072735 L 140.9090909090909 193.63631147826496 L 146.969696969697 188.80761202283145 L 153.03030303030303 184.2629537118353 L 159.0909090909091 179.97077641811666 L 165.15151515151513 175.90450319248845 L 171.21212121212122 172.04154362814168 L 177.27272727272725 168.36253451923997 L 183.33333333333331 164.85075309710655 L 189.3939393939394 161.49165782376147 L 195.45454545454547 158.27252485347248 L 201.5151515151515 155.18215720199504 L 207.5757575757576 152.2106498448052 L 213.63636363636363 149.34919831565946 L 219.6969696969697 146.58994148398315 L 225.75757575757578 143.9258314396061 L 231.8181818181818 141.3505250633749 L 237.87878787878788 138.85829308637696 L 243.93939393939397 136.44394335866025 L 250.0 134.1027557439046 L 256.06060606060606 131.83042658840648 L 262.1212121212121 129.62302112306548 L 268.1818181818182 127.47693247620617 L 274.24242424242425 125.38884622520791 L 280.3030303030303 123.35570961239378 L 286.3636363636364 121.37470470760059 L 292.42424242424244 119.44322492542719 L 298.48484848484844 117.55885440623364 L 304.54545454545456 115.71934985178278 L 310.6060606060606 113.92262447301684 L 316.66666666666663 112.16673376195013 L 322.7272727272727 110.44986284446264 L 328.7878787878788 108.77031520779016 L 334.8484848484849 107.12650262721709 L 340.90909090909093 105.51693614207255 L 346.96969696969694 103.94021795254326 L 353.03030303030306 102.3950341268046 L 359.09090909090907 100.88014802313921 L 365.1515151515152 99.39439434454428 L 371.2121212121212 97.9366737542247 L 377.27272727272725 96.50594798965187 L 383.33333333333337 95.10123542079847 L 389.3939393939394 93.72160700496028 L 395.45454545454544 92.36618259641759 L 401.51515151515156 91.03412757422902 L 407.57575757575756 89.72464975580635 L 413.6363636363636 88.43699656769078 L 419.69696969696963 87.17045244823285 L 425.7575757575758 85.92433645973384 L 431.8181818181818 84.69800009009995 L 437.87878787878793 83.4908252262415 L 443.93939393939394 82.30222228336558 L 450.0 81.13162847598772 L 456.06060606060606 79.97850621797373 L 462.1212121212121 78.84234164022467 L 468.1818181818182 77.72264321577634 L 474.24242424242425 76.61894048310583 L 480.30303030303025 75.53078285934615 L 486.3636363636364 74.4577385359166 L 492.4242424242424 73.3993934497942 L 498.48484848484856 72.35535032429513 L 504.54545454545456 71.32522777380261 L 510.60606060606057 70.30865946739553 L 516.6666666666666 69.30529334678597 L 522.7272727272727 68.31479089438935 L 528.7878787878788 67.33682644771926 L 534.8484848484849 66.37108655663258 L 540.909090909091 65.41726938025064 L 546.9696969696969 64.47508412065388 L 553.030303030303 63.544250490690814 L 559.0909090909091 62.62449821346539 L 565.1515151515151 61.715566551266136 L 571.2121212121212 60.817203861883144 L 577.2727272727273 59.92916718042416 L 583.3333333333333 59.051221824890774 L 589.3939393939395 58.18314102391393 L 595.4545454545454 57.32470556517022 L 601.5151515151515 56.47570346311599 L 607.5757575757576 55.6359296447797 L 613.6363636363636 54.80518565244705 L 619.6969696969697 53.983279362160545 L 625.7575757575758 53.170024717034934 L 631.8181818181819 52.36524147446264 L 637.8787878787879 51.56875496634989 L 643.9393939393939 50.78039587158525 L 650.0 50.0" style="stroke:rgb(40%,76.1%,64.7%);stroke-opacity:1.0;stroke-width:2.0" /></g></g></g><g class="toyplot-coordinates-Axis" id="ta050f934608248e7ae90fa8f6b9c7b7a" transform="translate(50.0,450.0)translate(0,10.0)"><line x1="0" y1="0" x2="600.0" y2="0" style="" /><g><g transform="translate(6.060606060606061,6)"><text x="-3.892000000000001" y="11.977" style="fill:rgb(16.1%,15.3%,14.1%);fill-opacity:1.0;font-family:helvetica;font-size:14.0px;font-weight:normal;stroke:none;vertical-align:baseline;white-space:pre">2</text></g><g transform="translate(296.969696969697,6)"><text x="-7.784000000000002" y="11.977" style="fill:rgb(16.1%,15.3%,14.1%);fill-opacity:1.0;font-family:helvetica;font-size:14.0px;font-weight:normal;stroke:none;vertical-align:baseline;white-space:pre">50</text></g><g transform="translate(600.0,6)"><text x="-11.676" y="11.977" style="fill:rgb(16.1%,15.3%,14.1%);fill-opacity:1.0;font-family:helvetica;font-size:14.0px;font-weight:normal;stroke:none;vertical-align:baseline;white-space:pre">100</text></g></g><g transform="translate(300.0,22)"><text x="-4.888" y="13.687999999999999" style="fill:rgb(16.1%,15.3%,14.1%);fill-opacity:1.0;font-family:helvetica;font-size:16.0px;font-style:italic;font-weight:bold;stroke:none;vertical-align:baseline;white-space:pre">n</text></g><g class="toyplot-coordinates-Axis-coordinates" style="visibility:hidden" transform=""><line x1="0" x2="0" y1="-3.0" y2="4.5" style="stroke:rgb(43.9%,50.2%,56.5%);stroke-opacity:1.0;stroke-width:1.0" /><text x="0" y="-6" style="alignment-baseline:alphabetic;fill:rgb(43.9%,50.2%,56.5%);fill-opacity:1.0;font-size:10px;font-weight:normal;stroke:none;text-anchor:middle" /></g></g><g class="toyplot-coordinates-Axis" id="tbcf9b827c25145ff8f27352854a8bd70" transform="translate(50.0,450.0)rotate(-90.0)translate(0,-10.0)"><line x1="0" y1="0" x2="400.0" y2="0" style="" /><g><g transform="translate(38.62959564346787,-6)"><text x="-3.892000000000001" y="0.0" style="fill:rgb(16.1%,15.3%,14.1%);fill-opacity:1.0;font-family:helvetica;font-size:14.0px;font-weight:normal;stroke:none;vertical-align:baseline;white-space:pre">1</text></g><g transform="translate(193.14797821733936,-6)"><text x="-3.892000000000001" y="0.0" style="fill:rgb(16.1%,15.3%,14.1%);fill-opacity:1.0;font-family:helvetica;font-size:14.0px;font-weight:normal;stroke:none;vertical-align:baseline;white-space:pre">5</text></g><g transform="translate(386.2959564346787,-6)"><text x="-7.784000000000002" y="0.0" style="fill:rgb(16.1%,15.3%,14.1%);fill-opacity:1.0;font-family:helvetica;font-size:14.0px;font-weight:normal;stroke:none;vertical-align:baseline;white-space:pre">10</text></g></g><g transform="translate(200.0,-22)"><text x="-59.128" y="0.0" style="fill:rgb(16.1%,15.3%,14.1%);fill-opacity:1.0;font-family:helvetica;font-size:16.0px;font-style:italic;font-weight:bold;stroke:none;vertical-align:baseline;white-space:pre">2N</text><text x="-38.68" y="0.0" style="fill:rgb(16.1%,15.3%,14.1%);fill-opacity:1.0;font-family:helvetica;font-size:16.0px;font-weight:bold;stroke:none;vertical-align:baseline;white-space:pre"> Generations</text></g><g class="toyplot-coordinates-Axis-coordinates" style="visibility:hidden" transform=""><line x1="0" x2="0" y1="3.0" y2="-4.5" style="stroke:rgb(43.9%,50.2%,56.5%);stroke-opacity:1.0;stroke-width:1.0" /><text x="0" y="6" style="alignment-baseline:hanging;fill:rgb(43.9%,50.2%,56.5%);fill-opacity:1.0;font-size:10px;font-weight:normal;stroke:none;text-anchor:middle" /></g></g><g transform="translate(350.0,42.0)"><text x="-25.5411" y="-6.200999999999999" style="fill:rgb(16.1%,15.3%,14.1%);fill-opacity:1.0;font-family:helvetica;font-size:18.0px;font-weight:bold;stroke:none;vertical-align:baseline;white-space:pre">E[</text><text x="-7.5411" y="-6.200999999999999" style="fill:rgb(16.1%,15.3%,14.1%);fill-opacity:1.0;font-family:helvetica;font-size:18.0px;font-style:italic;font-weight:bold;stroke:none;vertical-align:baseline;white-space:pre">T</text><text x="3.456899999999999" y="-3.6809999999999987" style="fill:rgb(16.1%,15.3%,14.1%);fill-opacity:1.0;font-family:helvetica;font-size:12.6px;font-style:italic;font-weight:bold;stroke:none;vertical-align:baseline;white-space:pre">tot</text><text x="19.5471" y="-6.200999999999999" style="fill:rgb(16.1%,15.3%,14.1%);fill-opacity:1.0;font-family:helvetica;font-size:18.0px;font-weight:bold;stroke:none;vertical-align:baseline;white-space:pre">]</text></g></g></svg>