<svg class="toyplot-canvas-Canvas" xmlns:toyplot="http://www.sandia.gov/toyplot" xmlns:xlink="http://www.w3.org/1999/xlink" xmlns="http://www.w3.org/2000/svg" width="500.0px" height="325.0px" viewBox="0 0 500.0 325.0" preserveAspectRatio="xMidYMid meet" style="background-color:transparent;border-color:#292724;border-style:none;border-width:1.0;fill:rgb(16.1%,15.3%,14.1%);fill-opacity:1.0;font-family:Helvetica;font-size:12px;opacity:1.0;stroke:rgb(16.1%,15.3%,14.1%);stroke-opacity:1.0;stroke-width:1.0" id="t1411ba8a73784f2fa1ee8e9f601100f7"><g class="toyplot-coordinates-Cartesian" id="taaef06b355bf425d978865c832bb4ea4"><clipPath id="tf84de2e22ac24906814dddd0e6200b1c"><rect x="40.0" y="40.0" width="420.0" height="245.0" /></clipPath><g clip-path="url(#tf84de2e22ac24906814dddd0e6200b1c)"><g class="toyplot-mark-Plot" style="fill:none;stroke-dasharray:5" id="tf54636ecbea54f3093db3d3d28070057"><g class="toyplot-Series"><path d="M 60.0 170.84506647369415 L 80.0 170.84506647369415 L 100.0 170.84506647369415 L 120.0 170.84506647369415 L 140.0 170.84506647369415 L 160.0 170.84506647369415 L 180.0 170.84506647369415 L 200.0 170.84506647369415 L 220.0 170.84506647369415 L 240.0 170.84506647369415 L 260.0 170.84506647369415 L 280.0 170.84506647369415 L 300.0 170.84506647369415 L 320.0 170.84506647369415 L 340.0 170.84506647369415 L 360.0 170.84506647369415 L 380.0 170.84506647369415 L 400.0 170.84506647369415 L 420.0 170.84506647369415 L 440.0 170.84506647369415" style="stroke:rgb(40%,76.1%,64.7%);stroke-dasharray:5;stroke-opacity:1.0;stroke-width:2.0" /></g></g><g class="toyplot-mark-Plot" style="fill:none" id="t92176f081bf74946b3aefe6b9dcd2958"><g class="toyplot-Series"><path d="M 60.0 123.55251798606565 L 80.0 133.44770672249788 L 100.0 142.03092761790776 L 120.0 129.64565905721787 L 140.0 149.97275868711978 L 160.0 160.86392455844646 L 180.0 170.40283929264598 L 200.0 200.75105909824023 L 220.0 229.25064537190235 L 240.0 272.2381560670492 L 260.0 275.0 L 280.0 220.95349153315178 L 300.0 185.74811225509006 L 320.0 164.82841315798845 L 340.0 148.48407088339772 L 360.0 139.16253709929623 L 380.0 137.3300893276078 L 400.0 128.20571150389944 L 420.0 121.7376808721564 L 440.0 121.1243606862627" style="stroke:rgb(98.8%,55.3%,38.4%);stroke-opacity:1.0;stroke-width:2.0" /></g></g><g class="toyplot-mark-Plot" style="fill:none" id="tb3835aa477994bc4a4f903f11864a38e"><g class="toyplot-Series"><path d="M 60.0 201.44748201393438 L 80.0 191.55229327750212 L 100.0 182.9690723820922 L 120.0 195.35434094278213 L 140.0 175.02724131288028 L 160.0 164.13607544155354 L 180.0 154.597160707354 L 200.0 124.24894090175974 L 220.0 95.74935462809766 L 240.0 52.7618439329508 L 260.0 50.0 L 280.0 104.04650846684825 L 300.0 139.25188774490994 L 320.0 160.17158684201155 L 340.0 176.5159291166023 L 360.0 185.83746290070377 L 380.0 187.66991067239223 L 400.0 196.79428849610053 L 420.0 203.26231912784357 L 440.0 203.8756393137373" style="stroke:rgb(55.3%,62.7%,79.6%);stroke-opacity:1.0;stroke-width:2.0" /></g></g></g><g class="toyplot-coordinates-Axis" id="t24b4d2e050f8429a9f7c8f6c94236eb6" transform="translate(50.0,275.0)translate(0,10.0)"><line x1="10.0" y1="0" x2="390.0" y2="0" style="" /><g><g transform="translate(0.0,6)"><text x="-2.78" y="8.555" style="fill:rgb(16.1%,15.3%,14.1%);fill-opacity:1.0;font-family:helvetica;font-size:10.0px;font-weight:normal;stroke:none;vertical-align:baseline;white-space:pre">0</text></g><g transform="translate(200.0,6)"><text x="-16.68" y="8.555" style="fill:rgb(16.1%,15.3%,14.1%);fill-opacity:1.0;font-family:helvetica;font-size:10.0px;font-weight:normal;stroke:none;vertical-align:baseline;white-space:pre">500000</text></g><g transform="translate(400.0,6)"><text x="-19.459999999999997" y="8.555" style="fill:rgb(16.1%,15.3%,14.1%);fill-opacity:1.0;font-family:helvetica;font-size:10.0px;font-weight:normal;stroke:none;vertical-align:baseline;white-space:pre">1000000</text></g></g><g transform="translate(200.0,22)"><text x="-36.666" y="10.265999999999998" style="fill:rgb(16.1%,15.3%,14.1%);fill-opacity:1.0;font-family:helvetica;font-size:12.0px;font-weight:bold;stroke:none;vertical-align:baseline;white-space:pre">Position (bp)</text></g><g class="toyplot-coordinates-Axis-coordinates" style="visibility:hidden" transform=""><line x1="0" x2="0" y1="-3.0" y2="4.5" style="stroke:rgb(43.9%,50.2%,56.5%);stroke-opacity:1.0;stroke-width:1.0" /><text x="0" y="-6" style="alignment-baseline:alphabetic;fill:rgb(43.9%,50.2%,56.5%);fill-opacity:1.0;font-size:10px;font-weight:normal;stroke:none;text-anchor:middle" /></g></g><g class="toyplot-coordinates-Axis" id="t965f60e825024e68aa67ec5f612c1bf2" transform="translate(50.0,275.0)rotate(-90.0)translate(0,-10.0)"><line x1="0" y1="0" x2="225.0" y2="0" style="" /><g><g transform="translate(4.014135841975819,-6)"><text x="-6.95" y="-4.440892098500626e-16" style="fill:rgb(16.1%,15.3%,14.1%);fill-opacity:1.0;font-family:helvetica;font-size:10.0px;font-weight:normal;stroke:none;vertical-align:baseline;white-space:pre">0.2</text></g><g transform="translate(70.77466763152916,-6)"><text x="-6.95" y="-4.440892098500626e-16" style="fill:rgb(16.1%,15.3%,14.1%);fill-opacity:1.0;font-family:helvetica;font-size:10.0px;font-weight:normal;stroke:none;vertical-align:baseline;white-space:pre">0.4</text></g><g transform="translate(137.53519942108252,-6)"><text x="-6.95" y="-4.440892098500626e-16" style="fill:rgb(16.1%,15.3%,14.1%);fill-opacity:1.0;font-family:helvetica;font-size:10.0px;font-weight:normal;stroke:none;vertical-align:baseline;white-space:pre">0.6</text></g><g transform="translate(204.29573121063584,-6)"><text x="-6.95" y="-4.440892098500626e-16" style="fill:rgb(16.1%,15.3%,14.1%);fill-opacity:1.0;font-family:helvetica;font-size:10.0px;font-weight:normal;stroke:none;vertical-align:baseline;white-space:pre">0.8</text></g></g><g class="toyplot-coordinates-Axis-coordinates" style="visibility:hidden" transform=""><line x1="0" x2="0" y1="3.0" y2="-4.5" style="stroke:rgb(43.9%,50.2%,56.5%);stroke-opacity:1.0;stroke-width:1.0" /><text x="0" y="6" style="alignment-baseline:hanging;fill:rgb(43.9%,50.2%,56.5%);fill-opacity:1.0;font-size:10px;font-weight:normal;stroke:none;text-anchor:middle" /></g></g></g><g class="toyplot-coordinates-Table" id="tb302efc429294ce8a7682fdf09ce9908"><g transform="translate(70.0,58.333333333333336)"><g style="fill:rgb(40%,76.1%,64.7%);fill-opacity:1.0;stroke:rgb(40%,76.1%,64.7%);stroke-dasharray:5;stroke-opacity:1.0;stroke-width:2" transform="translate(-5.55, -4.440892098500626e-16)"><line y1="-5.55" y2="5.55" transform="rotate(45)" /></g></g><g transform="translate(80.0,58.333333333333336)"><text x="0" y="3.066" style="fill:rgb(16.1%,15.3%,14.1%);fill-opacity:1.0;font-family:helvetica;font-size:12.0px;font-style:italic;font-weight:normal;stroke:none;vertical-align:baseline;white-space:pre">F</text><text x="7.332" y="4.7459999999999996" style="fill:rgb(16.1%,15.3%,14.1%);fill-opacity:1.0;font-family:helvetica;font-size:8.399999999999999px;font-style:italic;font-weight:normal;stroke:none;vertical-align:baseline;white-space:pre">ST</text><text x="18.0672" y="3.066" style="fill:rgb(16.1%,15.3%,14.1%);fill-opacity:1.0;font-family:helvetica;font-size:12.0px;font-weight:normal;stroke:none;vertical-align:baseline;white-space:pre"> (Genome Average)</text></g><g transform="translate(70.0,75.0)"><g style="fill:rgb(98.8%,55.3%,38.4%);fill-opacity:1.0;stroke:rgb(98.8%,55.3%,38.4%);stroke-opacity:1.0;stroke-width:2" transform="translate(-5.55, -4.440892098500626e-16)"><line y1="-5.55" y2="5.55" transform="rotate(45)" /></g></g><g transform="translate(80.0,75.0)"><text x="0" y="3.066" style="fill:rgb(16.1%,15.3%,14.1%);fill-opacity:1.0;font-family:helvetica;font-size:12.0px;font-weight:normal;stroke:none;vertical-align:baseline;white-space:pre">&#960; (Sweep)</text></g><g transform="translate(70.0,91.66666666666667)"><g style="fill:rgb(55.3%,62.7%,79.6%);fill-opacity:1.0;stroke:rgb(55.3%,62.7%,79.6%);stroke-opacity:1.0;stroke-width:2" transform="translate(-5.55, -4.440892098500626e-16)"><line y1="-5.55" y2="5.55" transform="rotate(45)" /></g></g><g transform="translate(80.0,91.66666666666667)"><text x="0" y="3.066" style="fill:rgb(16.1%,15.3%,14.1%);fill-opacity:1.0;font-family:helvetica;font-size:12.0px;font-style:italic;font-weight:normal;stroke:none;vertical-align:baseline;white-space:pre">F</text><text x="7.332" y="4.7459999999999996" style="fill:rgb(16.1%,15.3%,14.1%);fill-opacity:1.0;font-family:helvetica;font-size:8.399999999999999px;font-style:italic;font-weight:normal;stroke:none;vertical-align:baseline;white-space:pre">ST</text><text x="18.0672" y="3.066" style="fill:rgb(16.1%,15.3%,14.1%);fill-opacity:1.0;font-family:helvetica;font-size:12.0px;font-weight:normal;stroke:none;vertical-align:baseline;white-space:pre"> (Sweep)</text></g></g></svg>