<?xml version="1.0" encoding="utf-8" standalone="no"?>
<!DOCTYPE svg PUBLIC "-//W3C//DTD SVG 1.1//EN"
  "http://www.w3.org/Graphics/SVG/1.1/DTD/svg11.dtd">
<svg xmlns:xlink="http://www.w3.org/1999/xlink" width="375pt" height="243.75pt" viewBox="0 0 375 243.75" xmlns="http://www.w3.org/2000/svg" version="1.1">
 <metadata>
  <rdf:RDF xmlns:dc="http://purl.org/dc/elements/1.1/" xmlns:cc="http://creativecommons.org/ns#" xmlns:rdf="http://www.w3.org/1999/02/22-rdf-syntax-ns#">
   <cc:Work>
    <dc:type rdf:resource="http://purl.org/dc/dcmitype/StillImage"/>
    <dc:date>2023-02-22T22:28:02.506473</dc:date>
    <dc:format>image/svg+xml</dc:format>
    <dc:creator>
     <cc:Agent>
      <dc:title>Matplotlib v3.6.3, https://matplotlib.org/</dc:title>
     </cc:Agent>
    </dc:creator>
   </cc:Work>
  </rdf:RDF>
 </metadata>
 <defs>
  <style type="text/css">*{stroke-linejoin: round; stroke-linecap: butt}</style>
 </defs>
 <g id="figure_1">
  <g id="patch_1">
   <path d="M 0 243.75 
L 375 243.75 
L 375 0 
L 0 0 
z
" style="fill: #ffffff"/>
  </g>
  <g id="axes_1">
   <g id="patch_2">
    <path d="M 32.938209 231.000737 
L 371.99976 231.000737 
L 371.99976 16.680006 
L 32.938209 16.680006 
z
" style="fill: #ffffff"/>
   </g>
   <g id="patch_3">
    <path d="M 199.818205 16.680006 
L 199.818205 59.544152 
L 197.220369 59.544152 
L 197.220369 125.96728 
L 197.220369 125.96728 
L 195.049414 128.089168 
L 192.344083 130.211056 
L 189.083245 132.332944 
L 185.268686 134.454832 
L 180.924745 136.57672 
L 176.096012 138.698608 
L 168.081067 141.88144 
L 159.36766 145.064272 
L 144.044537 150.368992 
L 125.784957 156.734656 
L 114.415853 160.978432 
L 106.524183 164.161264 
L 99.252988 167.344096 
L 92.632118 170.526928 
L 86.663703 173.70976 
L 81.329287 176.892592 
L 76.596128 180.075424 
L 72.422416 183.258256 
L 68.761398 186.441088 
L 65.564492 189.62392 
L 62.783516 192.806752 
L 60.372217 195.989584 
L 58.287239 199.172416 
L 56.488665 202.355248 
L 54.940265 205.538081 
L 53.609516 208.720913 
L 52.124236 212.964689 
L 50.915498 217.208465 
L 49.933516 221.452241 
L 48.962509 226.756961 
L 48.350097 231.000737 
M 205.119764 16.680006 
L 205.119764 59.544152 
L 207.7176 59.544152 
L 207.7176 125.96728 
L 207.7176 125.96728 
L 209.888555 128.089168 
L 212.593885 130.211056 
L 215.854724 132.332944 
L 219.669283 134.454832 
L 224.013224 136.57672 
L 228.841957 138.698608 
L 236.856902 141.88144 
L 245.570309 145.064272 
L 260.893432 150.368992 
L 279.153012 156.734656 
L 290.522116 160.978432 
L 298.413785 164.161264 
L 305.68498 167.344096 
L 312.305851 170.526928 
L 318.274266 173.70976 
L 323.608681 176.892592 
L 328.34184 180.075424 
L 332.515553 183.258256 
L 336.17657 186.441088 
L 339.373476 189.62392 
L 342.154452 192.806752 
L 344.565751 195.989584 
L 346.65073 199.172416 
L 348.449304 202.355248 
L 349.997704 205.538081 
L 351.328453 208.720913 
L 352.813732 212.964689 
L 354.022471 217.208465 
L 355.004452 221.452241 
L 355.97546 226.756961 
L 356.587871 231.000737 
L 356.587871 231.000737 
" clip-path="url(#p50b992deaa)" style="fill: none; stroke: #ffffff; stroke-width: 3; stroke-linejoin: miter"/>
    <path d="M 199.818205 16.680006 
L 199.818205 59.544152 
L 197.220369 59.544152 
L 197.220369 125.96728 
L 197.220369 125.96728 
L 195.049414 128.089168 
L 192.344083 130.211056 
L 189.083245 132.332944 
L 185.268686 134.454832 
L 180.924745 136.57672 
L 176.096012 138.698608 
L 168.081067 141.88144 
L 159.36766 145.064272 
L 144.044537 150.368992 
L 125.784957 156.734656 
L 114.415853 160.978432 
L 106.524183 164.161264 
L 99.252988 167.344096 
L 92.632118 170.526928 
L 86.663703 173.70976 
L 81.329287 176.892592 
L 76.596128 180.075424 
L 72.422416 183.258256 
L 68.761398 186.441088 
L 65.564492 189.62392 
L 62.783516 192.806752 
L 60.372217 195.989584 
L 58.287239 199.172416 
L 56.488665 202.355248 
L 54.940265 205.538081 
L 53.609516 208.720913 
L 52.124236 212.964689 
L 50.915498 217.208465 
L 49.933516 221.452241 
L 48.962509 226.756961 
L 48.350097 231.000737 
M 205.119764 16.680006 
L 205.119764 59.544152 
L 207.7176 59.544152 
L 207.7176 125.96728 
L 207.7176 125.96728 
L 209.888555 128.089168 
L 212.593885 130.211056 
L 215.854724 132.332944 
L 219.669283 134.454832 
L 224.013224 136.57672 
L 228.841957 138.698608 
L 236.856902 141.88144 
L 245.570309 145.064272 
L 260.893432 150.368992 
L 279.153012 156.734656 
L 290.522116 160.978432 
L 298.413785 164.161264 
L 305.68498 167.344096 
L 312.305851 170.526928 
L 318.274266 173.70976 
L 323.608681 176.892592 
L 328.34184 180.075424 
L 332.515553 183.258256 
L 336.17657 186.441088 
L 339.373476 189.62392 
L 342.154452 192.806752 
L 344.565751 195.989584 
L 346.65073 199.172416 
L 348.449304 202.355248 
L 349.997704 205.538081 
L 351.328453 208.720913 
L 352.813732 212.964689 
L 354.022471 217.208465 
L 355.004452 221.452241 
L 355.97546 226.756961 
L 356.587871 231.000737 
L 356.587871 231.000737 
" clip-path="url(#p50b992deaa)" style="fill: none; stroke: #1f77b4; stroke-linejoin: miter"/>
    <g id="PolyCollection_1">
     <path d="M 205.119764 16.680006 
L 199.818205 16.680006 
L 199.818205 59.544152 
L 197.220369 59.544152 
L 197.220369 125.96728 
L 197.220369 125.96728 
L 196.199507 127.028224 
L 195.049414 128.089168 
L 193.765393 129.150112 
L 192.344083 130.211056 
L 190.783534 131.272 
L 189.083245 132.332944 
L 187.244169 133.393888 
L 185.268686 134.454832 
L 183.160538 135.515776 
L 180.924745 136.57672 
L 178.567494 137.637664 
L 176.096012 138.698608 
L 173.518427 139.759552 
L 170.843618 140.820496 
L 168.081067 141.88144 
L 165.240705 142.942384 
L 162.33277 144.003328 
L 159.36766 145.064272 
L 156.355811 146.125216 
L 153.307572 147.18616 
L 150.233096 148.247104 
L 147.142251 149.308048 
L 144.044537 150.368992 
L 140.949014 151.429936 
L 137.864254 152.49088 
L 134.798291 153.551824 
L 131.758598 154.612768 
L 128.752057 155.673712 
L 125.784957 156.734656 
L 122.862984 157.7956 
L 119.991231 158.856544 
L 117.174207 159.917488 
L 114.415853 160.978432 
L 111.719564 162.039376 
L 109.088215 163.10032 
L 106.524183 164.161264 
L 104.029384 165.222208 
L 101.605294 166.283152 
L 99.252988 167.344096 
L 96.973169 168.40504 
L 94.766196 169.465984 
L 92.632118 170.526928 
L 90.570704 171.587872 
L 88.581468 172.648816 
L 86.663703 173.70976 
L 84.816498 174.770704 
L 83.038771 175.831648 
L 81.329287 176.892592 
L 79.686684 177.953536 
L 78.109486 179.01448 
L 76.596128 180.075424 
L 75.144971 181.136368 
L 73.754315 182.197312 
L 72.422416 183.258256 
L 71.147497 184.3192 
L 69.927761 185.380144 
L 68.761398 186.441088 
L 67.6466 187.502032 
L 66.581562 188.562976 
L 65.564492 189.62392 
L 64.593621 190.684864 
L 63.667201 191.745808 
L 62.783516 192.806752 
L 61.940882 193.867696 
L 61.137652 194.92864 
L 60.372217 195.989584 
L 59.643012 197.050528 
L 58.948512 198.111472 
L 58.287239 199.172416 
L 57.657757 200.23336 
L 57.05868 201.294304 
L 56.488665 202.355248 
L 55.946416 203.416193 
L 55.430684 204.477137 
L 54.940265 205.538081 
L 54.473999 206.599025 
L 54.030773 207.659969 
L 53.609516 208.720913 
L 53.209199 209.781857 
L 52.828837 210.842801 
L 52.467485 211.903745 
L 52.124236 212.964689 
L 51.798225 214.025633 
L 51.488621 215.086577 
L 51.194632 216.147521 
L 50.915498 217.208465 
L 50.650496 218.269409 
L 50.398933 219.330353 
L 50.16015 220.391297 
L 49.933516 221.452241 
L 49.718431 222.513185 
L 49.514321 223.574129 
L 49.32064 224.635073 
L 49.136868 225.696017 
L 48.962509 226.756961 
L 48.797091 227.817905 
L 48.640165 228.878849 
L 48.491303 229.939793 
L 48.350097 231.000737 
L 356.587871 231.000737 
L 356.587871 231.000737 
L 356.446666 229.939793 
L 356.297804 228.878849 
L 356.140878 227.817905 
L 355.97546 226.756961 
L 355.801101 225.696017 
L 355.617329 224.635073 
L 355.423648 223.574129 
L 355.219538 222.513185 
L 355.004452 221.452241 
L 354.777819 220.391297 
L 354.539035 219.330353 
L 354.287473 218.269409 
L 354.022471 217.208465 
L 353.743337 216.147521 
L 353.449348 215.086577 
L 353.139744 214.025633 
L 352.813732 212.964689 
L 352.470484 211.903745 
L 352.109132 210.842801 
L 351.72877 209.781857 
L 351.328453 208.720913 
L 350.907195 207.659969 
L 350.463969 206.599025 
L 349.997704 205.538081 
L 349.507284 204.477137 
L 348.991552 203.416193 
L 348.449304 202.355248 
L 347.879289 201.294304 
L 347.280212 200.23336 
L 346.65073 199.172416 
L 345.989457 198.111472 
L 345.294957 197.050528 
L 344.565751 195.989584 
L 343.800317 194.92864 
L 342.997087 193.867696 
L 342.154452 192.806752 
L 341.270767 191.745808 
L 340.344348 190.684864 
L 339.373476 189.62392 
L 338.356407 188.562976 
L 337.291369 187.502032 
L 336.17657 186.441088 
L 335.010208 185.380144 
L 333.790472 184.3192 
L 332.515553 183.258256 
L 331.183654 182.197312 
L 329.792998 181.136368 
L 328.34184 180.075424 
L 326.828483 179.01448 
L 325.251285 177.953536 
L 323.608681 176.892592 
L 321.899198 175.831648 
L 320.121471 174.770704 
L 318.274266 173.70976 
L 316.3565 172.648816 
L 314.367265 171.587872 
L 312.305851 170.526928 
L 310.171773 169.465984 
L 307.9648 168.40504 
L 305.68498 167.344096 
L 303.332675 166.283152 
L 300.908585 165.222208 
L 298.413785 164.161264 
L 295.849754 163.10032 
L 293.218404 162.039376 
L 290.522116 160.978432 
L 287.763762 159.917488 
L 284.946737 158.856544 
L 282.074985 157.7956 
L 279.153012 156.734656 
L 276.185911 155.673712 
L 273.179371 154.612768 
L 270.139677 153.551824 
L 267.073715 152.49088 
L 263.988955 151.429936 
L 260.893432 150.368992 
L 257.795718 149.308048 
L 254.704873 148.247104 
L 251.630397 147.18616 
L 248.582157 146.125216 
L 245.570309 145.064272 
L 242.605199 144.003328 
L 239.697263 142.942384 
L 236.856902 141.88144 
L 234.094351 140.820496 
L 231.419542 139.759552 
L 228.841957 138.698608 
L 226.370475 137.637664 
L 224.013224 136.57672 
L 221.777431 135.515776 
L 219.669283 134.454832 
L 217.6938 133.393888 
L 215.854724 132.332944 
L 214.154434 131.272 
L 212.593885 130.211056 
L 211.172576 129.150112 
L 209.888555 128.089168 
L 208.738461 127.028224 
L 207.7176 125.96728 
L 207.7176 125.96728 
L 207.7176 59.544152 
L 205.119764 59.544152 
L 205.119764 16.680006 
z
" clip-path="url(#p50b992deaa)" style="fill: #1f77b4; fill-opacity: 0.5"/>
    </g>
    <g id="matplotlib.axis_1">
     <g id="xtick_1">
      <g id="line2d_1"/>
      <g id="text_1">
       <!-- AFR -->
       <g transform="translate(195.718984 239.342807) scale(0.0675 -0.0675)">
        <defs>
         <path id="Helvetica-41" d="M 2844 1881 
L 2147 3909 
L 1406 1881 
L 2844 1881 
z
M 1822 4591 
L 2525 4591 
L 4191 0 
L 3509 0 
L 3044 1375 
L 1228 1375 
L 731 0 
L 94 0 
L 1822 4591 
z
" transform="scale(0.015625)"/>
         <path id="Helvetica-46" d="M 547 4591 
L 3731 4591 
L 3731 4028 
L 1169 4028 
L 1169 2634 
L 3422 2634 
L 3422 2088 
L 1169 2088 
L 1169 0 
L 547 0 
L 547 4591 
z
" transform="scale(0.015625)"/>
         <path id="Helvetica-52" d="M 2622 2488 
Q 3059 2488 3314 2663 
Q 3569 2838 3569 3294 
Q 3569 3784 3213 3963 
Q 3022 4056 2703 4056 
L 1184 4056 
L 1184 2488 
L 2622 2488 
z
M 563 4591 
L 2688 4591 
Q 3213 4591 3553 4438 
Q 4200 4144 4200 3353 
Q 4200 2941 4029 2678 
Q 3859 2416 3553 2256 
Q 3822 2147 3958 1969 
Q 4094 1791 4109 1391 
L 4131 775 
Q 4141 513 4175 384 
Q 4231 166 4375 103 
L 4375 0 
L 3613 0 
Q 3581 59 3562 153 
Q 3544 247 3531 516 
L 3494 1281 
Q 3472 1731 3159 1884 
Q 2981 1969 2600 1969 
L 1184 1969 
L 1184 0 
L 563 0 
L 563 4591 
z
" transform="scale(0.015625)"/>
        </defs>
        <use xlink:href="#Helvetica-41"/>
        <use xlink:href="#Helvetica-46" x="66.699219"/>
        <use xlink:href="#Helvetica-52" x="127.783203"/>
       </g>
      </g>
     </g>
    </g>
    <g id="matplotlib.axis_2">
     <g id="ytick_1">
      <g id="line2d_2">
       <defs>
        <path id="meb6fb77b0b" d="M 0 0 
L -3.5 0 
" style="stroke: #000000; stroke-width: 0.8"/>
       </defs>
       <g>
        <use xlink:href="#meb6fb77b0b" x="32.938209" y="231.000737" style="stroke: #000000; stroke-width: 0.8"/>
       </g>
      </g>
      <g id="text_2">
       <!-- $\mathdefault{10^{0}}$ -->
       <g transform="translate(15.543209 233.421772) scale(0.0675 -0.0675)">
        <defs>
         <path id="Helvetica-31" d="M 613 3169 
L 613 3600 
Q 1222 3659 1462 3798 
Q 1703 3938 1822 4456 
L 2266 4456 
L 2266 0 
L 1666 0 
L 1666 3169 
L 613 3169 
z
" transform="scale(0.015625)"/>
         <path id="Helvetica-30" d="M 1731 4475 
Q 2600 4475 2988 3759 
Q 3288 3206 3288 2244 
Q 3288 1331 3016 734 
Q 2622 -122 1728 -122 
Q 922 -122 528 578 
Q 200 1163 200 2147 
Q 200 2909 397 3456 
Q 766 4475 1731 4475 
z
M 1725 391 
Q 2163 391 2422 778 
Q 2681 1166 2681 2222 
Q 2681 2984 2493 3476 
Q 2306 3969 1766 3969 
Q 1269 3969 1039 3501 
Q 809 3034 809 2125 
Q 809 1441 956 1025 
Q 1181 391 1725 391 
z
" transform="scale(0.015625)"/>
        </defs>
        <use xlink:href="#Helvetica-31" transform="translate(0 0.446875)"/>
        <use xlink:href="#Helvetica-30" transform="translate(55.615234 0.446875)"/>
        <use xlink:href="#Helvetica-30" transform="translate(112.145664 37.054688) scale(0.7)"/>
       </g>
      </g>
     </g>
     <g id="ytick_2">
      <g id="line2d_3">
       <g>
        <use xlink:href="#meb6fb77b0b" x="32.938209" y="185.549527" style="stroke: #000000; stroke-width: 0.8"/>
       </g>
      </g>
      <g id="text_3">
       <!-- $\mathdefault{10^{1}}$ -->
       <g transform="translate(15.543209 187.970562) scale(0.0675 -0.0675)">
        <use xlink:href="#Helvetica-31" transform="translate(0 0.654688)"/>
        <use xlink:href="#Helvetica-30" transform="translate(55.615234 0.654688)"/>
        <use xlink:href="#Helvetica-31" transform="translate(112.145664 37.2625) scale(0.7)"/>
       </g>
      </g>
     </g>
     <g id="ytick_3">
      <g id="line2d_4">
       <g>
        <use xlink:href="#meb6fb77b0b" x="32.938209" y="140.098317" style="stroke: #000000; stroke-width: 0.8"/>
       </g>
      </g>
      <g id="text_4">
       <!-- $\mathdefault{10^{2}}$ -->
       <g transform="translate(15.543209 142.519352) scale(0.0675 -0.0675)">
        <defs>
         <path id="Helvetica-32" d="M 200 0 
Q 231 578 439 1006 
Q 647 1434 1250 1784 
L 1850 2131 
Q 2253 2366 2416 2531 
Q 2672 2791 2672 3125 
Q 2672 3516 2437 3745 
Q 2203 3975 1813 3975 
Q 1234 3975 1013 3538 
Q 894 3303 881 2888 
L 309 2888 
Q 319 3472 525 3841 
Q 891 4491 1816 4491 
Q 2584 4491 2939 4075 
Q 3294 3659 3294 3150 
Q 3294 2613 2916 2231 
Q 2697 2009 2131 1694 
L 1703 1456 
Q 1397 1288 1222 1134 
Q 909 863 828 531 
L 3272 531 
L 3272 0 
L 200 0 
z
" transform="scale(0.015625)"/>
        </defs>
        <use xlink:href="#Helvetica-31" transform="translate(0 0.271875)"/>
        <use xlink:href="#Helvetica-30" transform="translate(55.615234 0.271875)"/>
        <use xlink:href="#Helvetica-32" transform="translate(112.145664 36.879688) scale(0.7)"/>
       </g>
      </g>
     </g>
     <g id="ytick_4">
      <g id="line2d_5">
       <g>
        <use xlink:href="#meb6fb77b0b" x="32.938209" y="94.647108" style="stroke: #000000; stroke-width: 0.8"/>
       </g>
      </g>
      <g id="text_5">
       <!-- $\mathdefault{10^{3}}$ -->
       <g transform="translate(15.543209 97.068143) scale(0.0675 -0.0675)">
        <defs>
         <path id="Helvetica-33" d="M 1663 -122 
Q 869 -122 511 314 
Q 153 750 153 1375 
L 741 1375 
Q 778 941 903 744 
Q 1122 391 1694 391 
Q 2138 391 2406 628 
Q 2675 866 2675 1241 
Q 2675 1703 2392 1887 
Q 2109 2072 1606 2072 
Q 1550 2072 1492 2070 
Q 1434 2069 1375 2066 
L 1375 2563 
Q 1463 2553 1522 2550 
Q 1581 2547 1650 2547 
Q 1966 2547 2169 2647 
Q 2525 2822 2525 3272 
Q 2525 3606 2287 3787 
Q 2050 3969 1734 3969 
Q 1172 3969 956 3594 
Q 838 3388 822 3006 
L 266 3006 
Q 266 3506 466 3856 
Q 809 4481 1675 4481 
Q 2359 4481 2734 4176 
Q 3109 3872 3109 3294 
Q 3109 2881 2888 2625 
Q 2750 2466 2531 2375 
Q 2884 2278 3082 2001 
Q 3281 1725 3281 1325 
Q 3281 684 2859 281 
Q 2438 -122 1663 -122 
z
" transform="scale(0.015625)"/>
        </defs>
        <use xlink:href="#Helvetica-31" transform="translate(0 0.38125)"/>
        <use xlink:href="#Helvetica-30" transform="translate(55.615234 0.38125)"/>
        <use xlink:href="#Helvetica-33" transform="translate(112.145664 36.989063) scale(0.7)"/>
       </g>
      </g>
     </g>
     <g id="ytick_5">
      <g id="line2d_6">
       <g>
        <use xlink:href="#meb6fb77b0b" x="32.938209" y="49.195898" style="stroke: #000000; stroke-width: 0.8"/>
       </g>
      </g>
      <g id="text_6">
       <!-- $\mathdefault{10^{4}}$ -->
       <g transform="translate(15.543209 51.616933) scale(0.0675 -0.0675)">
        <defs>
         <path id="Helvetica-34" d="M 2116 1584 
L 2116 3613 
L 681 1584 
L 2116 1584 
z
M 2125 0 
L 2125 1094 
L 163 1094 
L 163 1644 
L 2213 4488 
L 2688 4488 
L 2688 1584 
L 3347 1584 
L 3347 1094 
L 2688 1094 
L 2688 0 
L 2125 0 
z
" transform="scale(0.015625)"/>
        </defs>
        <use xlink:href="#Helvetica-31" transform="translate(0 0.304688)"/>
        <use xlink:href="#Helvetica-30" transform="translate(55.615234 0.304688)"/>
        <use xlink:href="#Helvetica-34" transform="translate(112.145664 36.9125) scale(0.7)"/>
       </g>
      </g>
     </g>
     <g id="ytick_6">
      <g id="line2d_7">
       <defs>
        <path id="mbaac53b4fc" d="M 0 0 
L -2 0 
" style="stroke: #000000; stroke-width: 0.6"/>
       </defs>
       <g>
        <use xlink:href="#mbaac53b4fc" x="32.938209" y="217.318559" style="stroke: #000000; stroke-width: 0.6"/>
       </g>
      </g>
     </g>
     <g id="ytick_7">
      <g id="line2d_8">
       <g>
        <use xlink:href="#mbaac53b4fc" x="32.938209" y="209.314998" style="stroke: #000000; stroke-width: 0.6"/>
       </g>
      </g>
     </g>
     <g id="ytick_8">
      <g id="line2d_9">
       <g>
        <use xlink:href="#mbaac53b4fc" x="32.938209" y="203.636382" style="stroke: #000000; stroke-width: 0.6"/>
       </g>
      </g>
     </g>
     <g id="ytick_9">
      <g id="line2d_10">
       <g>
        <use xlink:href="#mbaac53b4fc" x="32.938209" y="199.231704" style="stroke: #000000; stroke-width: 0.6"/>
       </g>
      </g>
     </g>
     <g id="ytick_10">
      <g id="line2d_11">
       <g>
        <use xlink:href="#mbaac53b4fc" x="32.938209" y="195.632821" style="stroke: #000000; stroke-width: 0.6"/>
       </g>
      </g>
     </g>
     <g id="ytick_11">
      <g id="line2d_12">
       <g>
        <use xlink:href="#mbaac53b4fc" x="32.938209" y="192.590008" style="stroke: #000000; stroke-width: 0.6"/>
       </g>
      </g>
     </g>
     <g id="ytick_12">
      <g id="line2d_13">
       <g>
        <use xlink:href="#mbaac53b4fc" x="32.938209" y="189.954204" style="stroke: #000000; stroke-width: 0.6"/>
       </g>
      </g>
     </g>
     <g id="ytick_13">
      <g id="line2d_14">
       <g>
        <use xlink:href="#mbaac53b4fc" x="32.938209" y="187.62926" style="stroke: #000000; stroke-width: 0.6"/>
       </g>
      </g>
     </g>
     <g id="ytick_14">
      <g id="line2d_15">
       <g>
        <use xlink:href="#mbaac53b4fc" x="32.938209" y="171.867349" style="stroke: #000000; stroke-width: 0.6"/>
       </g>
      </g>
     </g>
     <g id="ytick_15">
      <g id="line2d_16">
       <g>
        <use xlink:href="#mbaac53b4fc" x="32.938209" y="163.863789" style="stroke: #000000; stroke-width: 0.6"/>
       </g>
      </g>
     </g>
     <g id="ytick_16">
      <g id="line2d_17">
       <g>
        <use xlink:href="#mbaac53b4fc" x="32.938209" y="158.185172" style="stroke: #000000; stroke-width: 0.6"/>
       </g>
      </g>
     </g>
     <g id="ytick_17">
      <g id="line2d_18">
       <g>
        <use xlink:href="#mbaac53b4fc" x="32.938209" y="153.780495" style="stroke: #000000; stroke-width: 0.6"/>
       </g>
      </g>
     </g>
     <g id="ytick_18">
      <g id="line2d_19">
       <g>
        <use xlink:href="#mbaac53b4fc" x="32.938209" y="150.181611" style="stroke: #000000; stroke-width: 0.6"/>
       </g>
      </g>
     </g>
     <g id="ytick_19">
      <g id="line2d_20">
       <g>
        <use xlink:href="#mbaac53b4fc" x="32.938209" y="147.138799" style="stroke: #000000; stroke-width: 0.6"/>
       </g>
      </g>
     </g>
     <g id="ytick_20">
      <g id="line2d_21">
       <g>
        <use xlink:href="#mbaac53b4fc" x="32.938209" y="144.502995" style="stroke: #000000; stroke-width: 0.6"/>
       </g>
      </g>
     </g>
     <g id="ytick_21">
      <g id="line2d_22">
       <g>
        <use xlink:href="#mbaac53b4fc" x="32.938209" y="142.178051" style="stroke: #000000; stroke-width: 0.6"/>
       </g>
      </g>
     </g>
     <g id="ytick_22">
      <g id="line2d_23">
       <g>
        <use xlink:href="#mbaac53b4fc" x="32.938209" y="126.41614" style="stroke: #000000; stroke-width: 0.6"/>
       </g>
      </g>
     </g>
     <g id="ytick_23">
      <g id="line2d_24">
       <g>
        <use xlink:href="#mbaac53b4fc" x="32.938209" y="118.412579" style="stroke: #000000; stroke-width: 0.6"/>
       </g>
      </g>
     </g>
     <g id="ytick_24">
      <g id="line2d_25">
       <g>
        <use xlink:href="#mbaac53b4fc" x="32.938209" y="112.733962" style="stroke: #000000; stroke-width: 0.6"/>
       </g>
      </g>
     </g>
     <g id="ytick_25">
      <g id="line2d_26">
       <g>
        <use xlink:href="#mbaac53b4fc" x="32.938209" y="108.329285" style="stroke: #000000; stroke-width: 0.6"/>
       </g>
      </g>
     </g>
     <g id="ytick_26">
      <g id="line2d_27">
       <g>
        <use xlink:href="#mbaac53b4fc" x="32.938209" y="104.730402" style="stroke: #000000; stroke-width: 0.6"/>
       </g>
      </g>
     </g>
     <g id="ytick_27">
      <g id="line2d_28">
       <g>
        <use xlink:href="#mbaac53b4fc" x="32.938209" y="101.687589" style="stroke: #000000; stroke-width: 0.6"/>
       </g>
      </g>
     </g>
     <g id="ytick_28">
      <g id="line2d_29">
       <g>
        <use xlink:href="#mbaac53b4fc" x="32.938209" y="99.051785" style="stroke: #000000; stroke-width: 0.6"/>
       </g>
      </g>
     </g>
     <g id="ytick_29">
      <g id="line2d_30">
       <g>
        <use xlink:href="#mbaac53b4fc" x="32.938209" y="96.726841" style="stroke: #000000; stroke-width: 0.6"/>
       </g>
      </g>
     </g>
     <g id="ytick_30">
      <g id="line2d_31">
       <g>
        <use xlink:href="#mbaac53b4fc" x="32.938209" y="80.96493" style="stroke: #000000; stroke-width: 0.6"/>
       </g>
      </g>
     </g>
     <g id="ytick_31">
      <g id="line2d_32">
       <g>
        <use xlink:href="#mbaac53b4fc" x="32.938209" y="72.961369" style="stroke: #000000; stroke-width: 0.6"/>
       </g>
      </g>
     </g>
     <g id="ytick_32">
      <g id="line2d_33">
       <g>
        <use xlink:href="#mbaac53b4fc" x="32.938209" y="67.282753" style="stroke: #000000; stroke-width: 0.6"/>
       </g>
      </g>
     </g>
     <g id="ytick_33">
      <g id="line2d_34">
       <g>
        <use xlink:href="#mbaac53b4fc" x="32.938209" y="62.878075" style="stroke: #000000; stroke-width: 0.6"/>
       </g>
      </g>
     </g>
     <g id="ytick_34">
      <g id="line2d_35">
       <g>
        <use xlink:href="#mbaac53b4fc" x="32.938209" y="59.279192" style="stroke: #000000; stroke-width: 0.6"/>
       </g>
      </g>
     </g>
     <g id="ytick_35">
      <g id="line2d_36">
       <g>
        <use xlink:href="#mbaac53b4fc" x="32.938209" y="56.236379" style="stroke: #000000; stroke-width: 0.6"/>
       </g>
      </g>
     </g>
     <g id="ytick_36">
      <g id="line2d_37">
       <g>
        <use xlink:href="#mbaac53b4fc" x="32.938209" y="53.600575" style="stroke: #000000; stroke-width: 0.6"/>
       </g>
      </g>
     </g>
     <g id="ytick_37">
      <g id="line2d_38">
       <g>
        <use xlink:href="#mbaac53b4fc" x="32.938209" y="51.275631" style="stroke: #000000; stroke-width: 0.6"/>
       </g>
      </g>
     </g>
     <g id="ytick_38">
      <g id="line2d_39">
       <g>
        <use xlink:href="#mbaac53b4fc" x="32.938209" y="35.513721" style="stroke: #000000; stroke-width: 0.6"/>
       </g>
      </g>
     </g>
     <g id="ytick_39">
      <g id="line2d_40">
       <g>
        <use xlink:href="#mbaac53b4fc" x="32.938209" y="27.51016" style="stroke: #000000; stroke-width: 0.6"/>
       </g>
      </g>
     </g>
     <g id="ytick_40">
      <g id="line2d_41">
       <g>
        <use xlink:href="#mbaac53b4fc" x="32.938209" y="21.831543" style="stroke: #000000; stroke-width: 0.6"/>
       </g>
      </g>
     </g>
     <g id="ytick_41">
      <g id="line2d_42">
       <g>
        <use xlink:href="#mbaac53b4fc" x="32.938209" y="17.426866" style="stroke: #000000; stroke-width: 0.6"/>
       </g>
      </g>
     </g>
     <g id="text_7">
      <!-- time ago (generations) -->
      <g transform="translate(9.582896 172.093027) rotate(-90) scale(0.09 -0.09)">
       <defs>
        <path id="Helvetica-Bold-74" d="M 1975 634 
L 1975 -31 
L 1553 -47 
Q 922 -69 691 172 
Q 541 325 541 644 
L 541 2741 
L 66 2741 
L 66 3375 
L 541 3375 
L 541 4325 
L 1422 4325 
L 1422 3375 
L 1975 3375 
L 1975 2741 
L 1422 2741 
L 1422 941 
Q 1422 731 1475 679 
Q 1528 628 1800 628 
Q 1841 628 1886 629 
Q 1931 631 1975 634 
z
" transform="scale(0.015625)"/>
        <path id="Helvetica-Bold-69" d="M 1331 3406 
L 1331 0 
L 428 0 
L 428 3406 
L 1331 3406 
z
M 1331 4634 
L 1331 3813 
L 428 3813 
L 428 4634 
L 1331 4634 
z
" transform="scale(0.015625)"/>
        <path id="Helvetica-Bold-6d" d="M 2328 2469 
Q 2216 2716 1888 2716 
Q 1506 2716 1375 2469 
Q 1303 2328 1303 2050 
L 1303 0 
L 400 0 
L 400 3400 
L 1266 3400 
L 1266 2903 
Q 1431 3169 1578 3281 
Q 1838 3481 2250 3481 
Q 2641 3481 2881 3309 
Q 3075 3150 3175 2900 
Q 3350 3200 3609 3341 
Q 3884 3481 4222 3481 
Q 4447 3481 4665 3393 
Q 4884 3306 5063 3088 
Q 5206 2909 5256 2650 
Q 5288 2478 5288 2147 
L 5281 0 
L 4369 0 
L 4369 2169 
Q 4369 2363 4306 2488 
Q 4188 2725 3869 2725 
Q 3500 2725 3359 2419 
Q 3288 2256 3288 2028 
L 3288 0 
L 2391 0 
L 2391 2028 
Q 2391 2331 2328 2469 
z
" transform="scale(0.015625)"/>
        <path id="Helvetica-Bold-65" d="M 3331 1000 
Q 3297 697 3016 384 
Q 2578 -113 1791 -113 
Q 1141 -113 644 306 
Q 147 725 147 1669 
Q 147 2553 595 3025 
Q 1044 3497 1759 3497 
Q 2184 3497 2525 3337 
Q 2866 3178 3088 2834 
Q 3288 2531 3347 2131 
Q 3381 1897 3375 1456 
L 1044 1456 
Q 1063 944 1366 738 
Q 1550 609 1809 609 
Q 2084 609 2256 766 
Q 2350 850 2422 1000 
L 3331 1000 
z
M 2450 2044 
Q 2428 2397 2236 2580 
Q 2044 2763 1759 2763 
Q 1450 2763 1279 2569 
Q 1109 2375 1066 2044 
L 2450 2044 
z
" transform="scale(0.015625)"/>
        <path id="Helvetica-Bold-20" transform="scale(0.015625)"/>
        <path id="Helvetica-Bold-61" d="M 544 3038 
Q 897 3488 1756 3488 
Q 2316 3488 2750 3266 
Q 3184 3044 3184 2428 
L 3184 866 
Q 3184 703 3191 472 
Q 3200 297 3244 234 
Q 3288 172 3375 131 
L 3375 0 
L 2406 0 
Q 2366 103 2350 193 
Q 2334 284 2325 400 
Q 2141 200 1900 59 
Q 1613 -106 1250 -106 
Q 788 -106 486 158 
Q 184 422 184 906 
Q 184 1534 669 1816 
Q 934 1969 1450 2034 
L 1753 2072 
Q 2000 2103 2106 2150 
Q 2297 2231 2297 2403 
Q 2297 2613 2151 2692 
Q 2006 2772 1725 2772 
Q 1409 2772 1278 2616 
Q 1184 2500 1153 2303 
L 294 2303 
Q 322 2750 544 3038 
z
M 1206 644 
Q 1331 541 1513 541 
Q 1800 541 2042 709 
Q 2284 878 2294 1325 
L 2294 1656 
Q 2209 1603 2123 1570 
Q 2038 1538 1888 1509 
L 1688 1472 
Q 1406 1422 1284 1350 
Q 1078 1228 1078 972 
Q 1078 744 1206 644 
z
" transform="scale(0.015625)"/>
        <path id="Helvetica-Bold-67" d="M 1378 -597 
Q 1522 -719 1863 -719 
Q 2344 -719 2506 -397 
Q 2613 -191 2613 297 
L 2613 516 
Q 2484 297 2338 188 
Q 2072 -16 1647 -16 
Q 991 -16 598 445 
Q 206 906 206 1694 
Q 206 2453 584 2970 
Q 963 3488 1656 3488 
Q 1913 3488 2103 3409 
Q 2428 3275 2628 2916 
L 2628 3406 
L 3494 3406 
L 3494 175 
Q 3494 -484 3272 -819 
Q 2891 -1394 1809 -1394 
Q 1156 -1394 743 -1137 
Q 331 -881 288 -372 
L 1256 -372 
Q 1294 -528 1378 -597 
z
M 1228 1163 
Q 1409 731 1878 731 
Q 2191 731 2406 967 
Q 2622 1203 2622 1719 
Q 2622 2203 2417 2456 
Q 2213 2709 1869 2709 
Q 1400 2709 1222 2269 
Q 1128 2034 1128 1691 
Q 1128 1394 1228 1163 
z
" transform="scale(0.015625)"/>
        <path id="Helvetica-Bold-6f" d="M 3256 2975 
Q 3688 2434 3688 1697 
Q 3688 947 3256 414 
Q 2825 -119 1947 -119 
Q 1069 -119 637 414 
Q 206 947 206 1697 
Q 206 2434 637 2975 
Q 1069 3516 1947 3516 
Q 2825 3516 3256 2975 
z
M 1944 2763 
Q 1553 2763 1342 2486 
Q 1131 2209 1131 1697 
Q 1131 1184 1342 906 
Q 1553 628 1944 628 
Q 2334 628 2543 906 
Q 2753 1184 2753 1697 
Q 2753 2209 2543 2486 
Q 2334 2763 1944 2763 
z
" transform="scale(0.015625)"/>
        <path id="Helvetica-Bold-28" d="M 1394 -1291 
L 1172 -988 
Q 956 -713 713 -169 
Q 278 803 278 1744 
Q 278 2600 644 3444 
Q 891 4019 1366 4681 
L 2038 4681 
L 1847 4331 
Q 1453 3609 1300 2819 
Q 1200 2300 1200 1688 
Q 1200 731 1478 -72 
Q 1641 -547 2053 -1291 
L 1394 -1291 
z
" transform="scale(0.015625)"/>
        <path id="Helvetica-Bold-6e" d="M 2019 2747 
Q 1566 2747 1397 2363 
Q 1309 2159 1309 1844 
L 1309 0 
L 422 0 
L 422 3400 
L 1281 3400 
L 1281 2903 
Q 1453 3166 1606 3281 
Q 1881 3488 2303 3488 
Q 2831 3488 3167 3211 
Q 3503 2934 3503 2294 
L 3503 0 
L 2591 0 
L 2591 2072 
Q 2591 2341 2519 2484 
Q 2388 2747 2019 2747 
z
" transform="scale(0.015625)"/>
        <path id="Helvetica-Bold-72" d="M 2128 2584 
Q 1591 2584 1406 2234 
Q 1303 2038 1303 1628 
L 1303 0 
L 406 0 
L 406 3406 
L 1256 3406 
L 1256 2813 
Q 1463 3153 1616 3278 
Q 1866 3488 2266 3488 
Q 2291 3488 2308 3486 
Q 2325 3484 2384 3481 
L 2384 2569 
Q 2300 2578 2234 2581 
Q 2169 2584 2128 2584 
z
" transform="scale(0.015625)"/>
        <path id="Helvetica-Bold-73" d="M 2763 3250 
Q 3163 2994 3222 2369 
L 2331 2369 
Q 2313 2541 2234 2641 
Q 2088 2822 1734 2822 
Q 1444 2822 1320 2731 
Q 1197 2641 1197 2519 
Q 1197 2366 1328 2297 
Q 1459 2225 2256 2050 
Q 2788 1925 3053 1672 
Q 3316 1416 3316 1031 
Q 3316 525 2939 204 
Q 2563 -116 1775 -116 
Q 972 -116 589 223 
Q 206 563 206 1088 
L 1109 1088 
Q 1138 850 1231 750 
Q 1397 572 1844 572 
Q 2106 572 2261 650 
Q 2416 728 2416 884 
Q 2416 1034 2291 1113 
Q 2166 1191 1363 1381 
Q 784 1525 547 1741 
Q 309 1953 309 2353 
Q 309 2825 679 3164 
Q 1050 3503 1722 3503 
Q 2359 3503 2763 3250 
z
" transform="scale(0.015625)"/>
        <path id="Helvetica-Bold-29" d="M 947 -988 
L 725 -1291 
L 66 -1291 
Q 478 -547 641 -72 
Q 919 731 919 1688 
Q 919 2300 819 2819 
Q 666 3609 272 4331 
L 81 4681 
L 753 4681 
Q 1228 4019 1475 3444 
Q 1841 2600 1841 1744 
Q 1841 803 1406 -169 
Q 1163 -713 947 -988 
z
" transform="scale(0.015625)"/>
       </defs>
       <use xlink:href="#Helvetica-Bold-74"/>
       <use xlink:href="#Helvetica-Bold-69" x="33.300781"/>
       <use xlink:href="#Helvetica-Bold-6d" x="61.083984"/>
       <use xlink:href="#Helvetica-Bold-65" x="150"/>
       <use xlink:href="#Helvetica-Bold-20" x="205.615234"/>
       <use xlink:href="#Helvetica-Bold-61" x="233.398438"/>
       <use xlink:href="#Helvetica-Bold-67" x="289.013672"/>
       <use xlink:href="#Helvetica-Bold-6f" x="350.097656"/>
       <use xlink:href="#Helvetica-Bold-20" x="411.181641"/>
       <use xlink:href="#Helvetica-Bold-28" x="438.964844"/>
       <use xlink:href="#Helvetica-Bold-67" x="472.265625"/>
       <use xlink:href="#Helvetica-Bold-65" x="533.349609"/>
       <use xlink:href="#Helvetica-Bold-6e" x="588.964844"/>
       <use xlink:href="#Helvetica-Bold-65" x="650.048828"/>
       <use xlink:href="#Helvetica-Bold-72" x="705.664062"/>
       <use xlink:href="#Helvetica-Bold-61" x="744.580078"/>
       <use xlink:href="#Helvetica-Bold-74" x="800.195312"/>
       <use xlink:href="#Helvetica-Bold-69" x="833.496094"/>
       <use xlink:href="#Helvetica-Bold-6f" x="861.279297"/>
       <use xlink:href="#Helvetica-Bold-6e" x="922.363281"/>
       <use xlink:href="#Helvetica-Bold-73" x="983.447266"/>
       <use xlink:href="#Helvetica-Bold-29" x="1039.0625"/>
      </g>
     </g>
    </g>
    <g id="patch_4">
     <path d="M 32.938209 231.000737 
L 32.938209 16.680006 
" style="fill: none; stroke: #000000; stroke-width: 0.8; stroke-linejoin: miter; stroke-linecap: square"/>
    </g>
    <g id="text_8">
     <!-- African Population Model (Tennessen et al., 2012) -->
     <g transform="translate(78.786367 10.680006) scale(0.105 -0.105)">
      <defs>
       <path id="Helvetica-Bold-41" d="M 3184 947 
L 1488 947 
L 1169 0 
L 163 0 
L 1806 4606 
L 2894 4606 
L 4525 0 
L 3481 0 
L 3184 947 
z
M 2916 1741 
L 2341 3553 
L 1747 1741 
L 2916 1741 
z
" transform="scale(0.015625)"/>
       <path id="Helvetica-Bold-66" d="M 2013 4634 
L 2013 3909 
Q 1938 3919 1761 3923 
Q 1584 3928 1517 3845 
Q 1450 3763 1450 3663 
L 1450 3375 
L 2034 3375 
L 2034 2747 
L 1450 2747 
L 1450 0 
L 563 0 
L 563 2747 
L 66 2747 
L 66 3375 
L 553 3375 
L 553 3594 
Q 553 4141 738 4347 
Q 931 4653 1672 4653 
Q 1756 4653 1825 4648 
Q 1894 4644 2013 4634 
z
" transform="scale(0.015625)"/>
       <path id="Helvetica-Bold-63" d="M 3363 2184 
L 2450 2184 
Q 2425 2375 2322 2528 
Q 2172 2734 1856 2734 
Q 1406 2734 1241 2288 
Q 1153 2050 1153 1656 
Q 1153 1281 1241 1053 
Q 1400 628 1841 628 
Q 2153 628 2284 797 
Q 2416 966 2444 1234 
L 3353 1234 
Q 3322 828 3059 466 
Q 2641 -119 1819 -119 
Q 997 -119 609 368 
Q 222 856 222 1634 
Q 222 2513 650 3000 
Q 1078 3488 1831 3488 
Q 2472 3488 2880 3200 
Q 3288 2913 3363 2184 
z
" transform="scale(0.015625)"/>
       <path id="Helvetica-Bold-50" d="M 2444 1656 
L 1466 1656 
L 1466 0 
L 509 0 
L 509 4606 
L 2516 4606 
Q 3209 4606 3621 4250 
Q 4034 3894 4034 3147 
Q 4034 2331 3621 1993 
Q 3209 1656 2444 1656 
z
M 2894 2616 
Q 3081 2781 3081 3141 
Q 3081 3500 2892 3653 
Q 2703 3806 2363 3806 
L 1466 3806 
L 1466 2450 
L 2363 2450 
Q 2703 2450 2894 2616 
z
" transform="scale(0.015625)"/>
       <path id="Helvetica-Bold-70" d="M 3269 3041 
Q 3681 2600 3681 1747 
Q 3681 847 3276 375 
Q 2872 -97 2234 -97 
Q 1828 -97 1559 106 
Q 1413 219 1272 434 
L 1272 -1341 
L 391 -1341 
L 391 3406 
L 1244 3406 
L 1244 2903 
Q 1388 3125 1550 3253 
Q 1847 3481 2256 3481 
Q 2853 3481 3269 3041 
z
M 2763 1703 
Q 2763 2097 2583 2400 
Q 2403 2703 2000 2703 
Q 1516 2703 1334 2244 
Q 1241 2000 1241 1625 
Q 1241 1031 1556 791 
Q 1744 650 2000 650 
Q 2372 650 2567 937 
Q 2763 1225 2763 1703 
z
" transform="scale(0.015625)"/>
       <path id="Helvetica-Bold-75" d="M 2600 481 
Q 2588 466 2538 387 
Q 2488 309 2419 250 
Q 2209 63 2014 -6 
Q 1819 -75 1556 -75 
Q 800 -75 538 469 
Q 391 769 391 1353 
L 391 3406 
L 1303 3406 
L 1303 1353 
Q 1303 1063 1372 916 
Q 1494 656 1850 656 
Q 2306 656 2475 1025 
Q 2563 1225 2563 1553 
L 2563 3406 
L 3466 3406 
L 3466 0 
L 2600 0 
L 2600 481 
z
" transform="scale(0.015625)"/>
       <path id="Helvetica-Bold-6c" d="M 434 4606 
L 1325 4606 
L 1325 0 
L 434 0 
L 434 4606 
z
" transform="scale(0.015625)"/>
       <path id="Helvetica-Bold-4d" d="M 1369 0 
L 472 0 
L 472 4606 
L 1872 4606 
L 2709 984 
L 3541 4606 
L 4925 4606 
L 4925 0 
L 4028 0 
L 4028 3116 
Q 4028 3250 4031 3492 
Q 4034 3734 4034 3866 
L 3163 0 
L 2228 0 
L 1363 3866 
Q 1363 3734 1366 3492 
Q 1369 3250 1369 3116 
L 1369 0 
z
" transform="scale(0.015625)"/>
       <path id="Helvetica-Bold-64" d="M 3516 4600 
L 3516 0 
L 2650 0 
L 2650 472 
Q 2459 169 2215 31 
Q 1972 -106 1609 -106 
Q 1013 -106 605 376 
Q 197 859 197 1616 
Q 197 2488 598 2988 
Q 1000 3488 1672 3488 
Q 1981 3488 2222 3352 
Q 2463 3216 2613 2975 
L 2613 4600 
L 3516 4600 
z
M 1116 1681 
Q 1116 1209 1303 928 
Q 1488 644 1866 644 
Q 2244 644 2441 925 
Q 2638 1206 2638 1653 
Q 2638 2278 2322 2547 
Q 2128 2709 1872 2709 
Q 1481 2709 1298 2414 
Q 1116 2119 1116 1681 
z
" transform="scale(0.015625)"/>
       <path id="Helvetica-Bold-54" d="M 3834 4606 
L 3834 3791 
L 2456 3791 
L 2456 0 
L 1488 0 
L 1488 3791 
L 103 3791 
L 103 4606 
L 3834 4606 
z
" transform="scale(0.015625)"/>
       <path id="Helvetica-Bold-2e" d="M 400 931 
L 1347 931 
L 1347 0 
L 400 0 
L 400 931 
z
" transform="scale(0.015625)"/>
       <path id="Helvetica-Bold-2c" d="M 1275 -319 
Q 1219 -550 1066 -719 
Q 900 -900 676 -992 
Q 453 -1084 369 -1084 
L 369 -741 
Q 638 -666 764 -491 
Q 891 -316 909 0 
L 369 0 
L 369 931 
L 1331 931 
L 1331 125 
Q 1331 -88 1275 -319 
z
" transform="scale(0.015625)"/>
       <path id="Helvetica-Bold-32" d="M 2225 3609 
Q 2066 3800 1769 3800 
Q 1363 3800 1216 3497 
Q 1131 3322 1116 2941 
L 250 2941 
Q 272 3519 459 3875 
Q 816 4553 1725 4553 
Q 2444 4553 2869 4154 
Q 3294 3756 3294 3100 
Q 3294 2597 2994 2206 
Q 2797 1947 2347 1628 
L 1991 1375 
Q 1656 1138 1532 1031 
Q 1409 925 1325 784 
L 3303 784 
L 3303 0 
L 200 0 
Q 213 488 409 891 
Q 600 1344 1309 1850 
Q 1925 2291 2106 2481 
Q 2384 2778 2384 3131 
Q 2384 3419 2225 3609 
z
" transform="scale(0.015625)"/>
       <path id="Helvetica-Bold-30" d="M 1763 -113 
Q 897 -113 548 493 
Q 200 1100 200 2222 
Q 200 3344 548 3953 
Q 897 4563 1763 4563 
Q 2628 4563 2978 3953 
Q 3325 3344 3325 2222 
Q 3325 1100 2976 493 
Q 2628 -113 1763 -113 
z
M 2284 1028 
Q 2406 1441 2406 2222 
Q 2406 3041 2282 3434 
Q 2159 3828 1763 3828 
Q 1366 3828 1237 3434 
Q 1109 3041 1109 2222 
Q 1109 1441 1237 1027 
Q 1366 613 1763 613 
Q 2159 613 2284 1028 
z
" transform="scale(0.015625)"/>
       <path id="Helvetica-Bold-31" d="M 2422 0 
L 1509 0 
L 1509 3125 
L 444 3125 
L 444 3731 
Q 866 3750 1034 3788 
Q 1303 3847 1472 4025 
Q 1588 4147 1647 4350 
Q 1681 4472 1681 4531 
L 2422 4531 
L 2422 0 
z
" transform="scale(0.015625)"/>
      </defs>
      <use xlink:href="#Helvetica-Bold-41"/>
      <use xlink:href="#Helvetica-Bold-66" x="72.216797"/>
      <use xlink:href="#Helvetica-Bold-72" x="105.517578"/>
      <use xlink:href="#Helvetica-Bold-69" x="144.433594"/>
      <use xlink:href="#Helvetica-Bold-63" x="172.216797"/>
      <use xlink:href="#Helvetica-Bold-61" x="227.832031"/>
      <use xlink:href="#Helvetica-Bold-6e" x="283.447266"/>
      <use xlink:href="#Helvetica-Bold-20" x="344.53125"/>
      <use xlink:href="#Helvetica-Bold-50" x="372.314453"/>
      <use xlink:href="#Helvetica-Bold-6f" x="439.013672"/>
      <use xlink:href="#Helvetica-Bold-70" x="500.097656"/>
      <use xlink:href="#Helvetica-Bold-75" x="561.181641"/>
      <use xlink:href="#Helvetica-Bold-6c" x="622.265625"/>
      <use xlink:href="#Helvetica-Bold-61" x="650.048828"/>
      <use xlink:href="#Helvetica-Bold-74" x="705.664062"/>
      <use xlink:href="#Helvetica-Bold-69" x="738.964844"/>
      <use xlink:href="#Helvetica-Bold-6f" x="766.748047"/>
      <use xlink:href="#Helvetica-Bold-6e" x="827.832031"/>
      <use xlink:href="#Helvetica-Bold-20" x="888.916016"/>
      <use xlink:href="#Helvetica-Bold-4d" x="916.699219"/>
      <use xlink:href="#Helvetica-Bold-6f" x="1000"/>
      <use xlink:href="#Helvetica-Bold-64" x="1061.083984"/>
      <use xlink:href="#Helvetica-Bold-65" x="1122.167969"/>
      <use xlink:href="#Helvetica-Bold-6c" x="1177.783203"/>
      <use xlink:href="#Helvetica-Bold-20" x="1205.566406"/>
      <use xlink:href="#Helvetica-Bold-28" x="1233.349609"/>
      <use xlink:href="#Helvetica-Bold-54" x="1266.650391"/>
      <use xlink:href="#Helvetica-Bold-65" x="1327.734375"/>
      <use xlink:href="#Helvetica-Bold-6e" x="1383.349609"/>
      <use xlink:href="#Helvetica-Bold-6e" x="1444.433594"/>
      <use xlink:href="#Helvetica-Bold-65" x="1505.517578"/>
      <use xlink:href="#Helvetica-Bold-73" x="1561.132812"/>
      <use xlink:href="#Helvetica-Bold-73" x="1616.748047"/>
      <use xlink:href="#Helvetica-Bold-65" x="1672.363281"/>
      <use xlink:href="#Helvetica-Bold-6e" x="1727.978516"/>
      <use xlink:href="#Helvetica-Bold-20" x="1789.0625"/>
      <use xlink:href="#Helvetica-Bold-65" x="1816.845703"/>
      <use xlink:href="#Helvetica-Bold-74" x="1872.460938"/>
      <use xlink:href="#Helvetica-Bold-20" x="1905.761719"/>
      <use xlink:href="#Helvetica-Bold-61" x="1933.544922"/>
      <use xlink:href="#Helvetica-Bold-6c" x="1989.160156"/>
      <use xlink:href="#Helvetica-Bold-2e" x="2016.943359"/>
      <use xlink:href="#Helvetica-Bold-2c" x="2044.726562"/>
      <use xlink:href="#Helvetica-Bold-20" x="2072.509766"/>
      <use xlink:href="#Helvetica-Bold-32" x="2100.292969"/>
      <use xlink:href="#Helvetica-Bold-30" x="2155.908203"/>
      <use xlink:href="#Helvetica-Bold-31" x="2211.523438"/>
      <use xlink:href="#Helvetica-Bold-32" x="2267.138672"/>
      <use xlink:href="#Helvetica-Bold-29" x="2322.753906"/>
     </g>
    </g>
   </g>
  </g>
  <defs>
   <clipPath id="p50b992deaa">
    <rect x="32.938209" y="16.680006" width="339.061551" height="214.320731"/>
   </clipPath>
  </defs>
 </g>
</svg>
