<svg class="toyplot-canvas-Canvas" xmlns:toyplot="http://www.sandia.gov/toyplot" xmlns:xlink="http://www.w3.org/1999/xlink" xmlns="http://www.w3.org/2000/svg" width="700.0px" height="500.0px" viewBox="0 0 700.0 500.0" preserveAspectRatio="xMidYMid meet" style="background-color:transparent;border-color:#292724;border-style:none;border-width:1.0;fill:rgb(16.1%,15.3%,14.1%);fill-opacity:1.0;font-family:Helvetica;font-size:12px;opacity:1.0;stroke:rgb(16.1%,15.3%,14.1%);stroke-opacity:1.0;stroke-width:1.0" id="tda0f05be56b047688737fed84d4c1f0d"><g class="toyplot-coordinates-Cartesian" id="t2c30b6acb0de461690703e849736635a"><clipPath id="te812972b52a74d72914be40227958c5f"><rect x="30.0" y="30.0" width="640.0" height="440.0" /></clipPath><g clip-path="url(#te812972b52a74d72914be40227958c5f)"><g class="toytree-mark-Toytree" id="t3c5c8b2e2c4e428ca702b318e1828239"><g class="toytree-Edges" style="fill:none;stroke:rgb(14.9%,14.9%,14.9%);stroke-linecap:round;stroke-opacity:1;stroke-width:5"><path d="M 62.4 189.5 L 62.4 101.2 L 434.4 101.2" id="10,9" /><path d="M 62.4 189.5 L 62.4 277.9 L 186.4 277.9" id="10,8" /><path d="M 186.4 277.9 L 186.4 343.0 L 310.4 343.0" id="8,7" /><path d="M 310.4 343.0 L 310.4 398.8 L 434.4 398.8" id="7,6" /><path d="M 434.4 101.2 L 434.4 64.0 L 558.4 64.0" id="9,5" /><path d="M 434.4 101.2 L 434.4 138.4 L 558.4 138.4" id="9,4" /><path d="M 186.4 277.9 L 186.4 212.8 L 558.4 212.8" id="8,3" /><path d="M 310.4 343.0 L 310.4 287.2 L 558.4 287.2" id="7,2" /><path d="M 434.4 398.8 L 434.4 361.6 L 558.4 361.6" id="6,1" /><path d="M 434.4 398.8 L 434.4 436.0 L 558.4 436.0" id="6,0" /></g><g class="toytree-Nodes" style="fill:rgb(82.7%,82.7%,82.7%);fill-opacity:1.0;stroke:rgb(14.9%,14.9%,14.9%);stroke-opacity:1.0;stroke-width:1.5"><g id="node-0" transform="translate(558.363,436.047)"><circle r="7.5" /></g><g id="node-1" transform="translate(558.363,361.628)"><circle r="7.5" /></g><g id="node-2" transform="translate(558.363,287.209)"><circle r="7.5" /></g><g id="node-3" transform="translate(558.363,212.791)"><circle r="7.5" /></g><g id="node-4" transform="translate(558.363,138.372)"><circle r="7.5" /></g><g id="node-5" transform="translate(558.363,63.953)"><circle r="7.5" /></g><g id="node-6" transform="translate(434.372,398.837)"><circle r="7.5" /></g><g id="node-7" transform="translate(310.381,343.023)"><circle r="7.5" /></g><g id="node-8" transform="translate(186.390,277.907)"><circle r="7.5" /></g><g id="node-9" transform="translate(434.372,101.163)"><circle r="7.5" /></g><g id="node-10" transform="translate(62.399,189.535)"><circle r="7.5" /></g></g><g class="toytree-TipLabels" style="fill:rgb(14.9%,14.9%,14.9%);fill-opacity:1.0;font-family:helvetica;font-size:11px;font-weight:normal;stroke:none;white-space:pre"><g transform="translate(558.36,436.05)rotate(0)"><text x="15.00" y="2.81" style="">Mallard3</text></g><g transform="translate(558.36,361.63)rotate(0)"><text x="15.00" y="2.81" style="">Mallard1</text></g><g transform="translate(558.36,287.21)rotate(0)"><text x="15.00" y="2.81" style="">Mallard2</text></g><g transform="translate(558.36,212.79)rotate(0)"><text x="15.00" y="2.81" style="">BlackDuck2</text></g><g transform="translate(558.36,138.37)rotate(0)"><text x="15.00" y="2.81" style="">BlackDuck3</text></g><g transform="translate(558.36,63.95)rotate(0)"><text x="15.00" y="2.81" style="">BlackDuck1</text></g></g></g></g></g></svg>