<svg class="toyplot-canvas-Canvas" xmlns:toyplot="http://www.sandia.gov/toyplot" xmlns:xlink="http://www.w3.org/1999/xlink" xmlns="http://www.w3.org/2000/svg" width="500.0px" height="350.0px" viewBox="0 0 500.0 350.0" preserveAspectRatio="xMidYMid meet" style="background-color:transparent;border-color:#292724;border-style:none;border-width:1.0;fill:rgb(16.1%,15.3%,14.1%);fill-opacity:1.0;font-family:Helvetica;font-size:12px;opacity:1.0;stroke:rgb(16.1%,15.3%,14.1%);stroke-opacity:1.0;stroke-width:1.0" id="t678d8f26c48b4d6fbee219b1ca198516"><g class="toyplot-coordinates-Cartesian" id="t15e393d9e6244d6fb1bf8855c126ee19"><clipPath id="tb47fa6c9e1e54afca56dd23ec6f8136c"><rect x="40.0" y="40.0" width="420.0" height="270.0" /></clipPath><g clip-path="url(#tb47fa6c9e1e54afca56dd23ec6f8136c)"><g class="toyplot-mark-Plot" style="fill:none" id="t067268bf0e5b47ebaff6a0b8a93efb83"><g class="toyplot-Series"><path d="M 50.0 300.0 L 54.04040404040404 290.0010203040507 L 58.08080808080808 280.2061014182226 L 62.121212121212125 270.6152433425162 L 66.16161616161617 261.22844607693094 L 70.20202020202021 252.04570962146718 L 74.24242424242425 243.0670339761249 L 78.28282828282829 234.292419140904 L 82.32323232323233 225.72186511580458 L 86.36363636363637 217.35537190082638 L 90.40404040404042 209.1929394959698 L 94.44444444444444 201.23456790123458 L 98.48484848484848 193.4802571166207 L 102.52525252525254 185.93000714212843 L 106.56565656565658 178.5838179777573 L 110.60606060606061 171.44168962350787 L 114.64646464646465 164.5036220793796 L 118.68686868686869 157.76961534537287 L 122.72727272727273 151.23966942148755 L 126.76767676767678 144.9137843077237 L 130.80808080808083 138.79196000408123 L 134.84848484848484 132.87419651056015 L 138.88888888888889 127.16049382716051 L 142.92929292929296 121.65085195388221 L 146.96969696969697 116.3452708907254 L 151.010101010101 111.24375063768994 L 155.05050505050505 106.34629119477607 L 159.09090909090912 101.65289256198346 L 163.13131313131316 97.16355473931233 L 167.17171717171718 92.87827772676256 L 171.21212121212122 88.79706152433425 L 175.25252525252523 84.91990613202734 L 179.2929292929293 81.24681154984182 L 183.33333333333337 77.7777777777778 L 187.37373737373738 74.51280481583512 L 191.41414141414145 71.45189266401387 L 195.45454545454547 68.59504132231405 L 199.4949494949495 65.94225079073564 L 203.53535353535355 63.49352106927865 L 207.57575757575756 61.24885215794303 L 211.61616161616163 59.20824405672887 L 215.6565656565657 57.3716967656362 L 219.6969696969697 55.73921028466484 L 223.73737373737376 54.3107846138149 L 227.77777777777777 53.08641975308643 L 231.81818181818184 52.06611570247933 L 235.85858585858588 51.249872461993654 L 239.89898989898992 50.63769003162944 L 243.93939393939394 50.2295684113866 L 247.979797979798 50.02550760126519 L 252.02020202020202 50.02550760126519 L 256.0606060606061 50.2295684113866 L 260.1010101010101 50.63769003162944 L 264.14141414141415 51.249872461993654 L 268.18181818181824 52.06611570247933 L 272.22222222222223 53.08641975308643 L 276.2626262626263 54.31078461381495 L 280.3030303030303 55.73921028466484 L 284.34343434343435 57.37169676563615 L 288.3838383838384 59.20824405672893 L 292.42424242424244 61.24885215794308 L 296.4646464646465 63.49352106927865 L 300.5050505050505 65.94225079073564 L 304.5454545454546 68.5950413223141 L 308.5858585858586 71.45189266401387 L 312.6262626262626 74.51280481583512 L 316.66666666666674 77.7777777777778 L 320.7070707070707 81.24681154984188 L 324.74747474747477 84.91990613202739 L 328.7878787878788 88.79706152433425 L 332.8282828282829 92.8782777267626 L 336.8686868686869 97.16355473931233 L 340.90909090909093 101.65289256198346 L 344.949494949495 106.34629119477607 L 348.989898989899 111.24375063769006 L 353.03030303030306 116.34527089072552 L 357.0707070707071 121.65085195388232 L 361.1111111111111 127.16049382716051 L 365.1515151515152 132.87419651056015 L 369.1919191919192 138.79196000408118 L 373.23232323232327 144.9137843077238 L 377.27272727272725 151.23966942148766 L 381.3131313131314 157.76961534537298 L 385.3535353535354 164.50362207937968 L 389.3939393939394 171.44168962350787 L 393.4343434343435 178.5838179777574 L 397.4747474747475 185.93000714212843 L 401.51515151515156 193.4802571166208 L 405.55555555555554 201.23456790123458 L 409.59595959595964 209.1929394959699 L 413.6363636363637 217.3553719008265 L 417.67676767676767 225.72186511580458 L 421.71717171717177 234.29241914090412 L 425.75757575757575 243.0670339761249 L 429.79797979797985 252.04570962146727 L 433.8383838383839 261.22844607693105 L 437.8787878787879 270.6152433425162 L 441.9191919191919 280.2061014182228 L 445.959595959596 290.0010203040507 L 450.0 300.0" style="stroke:rgb(40%,76.1%,64.7%);stroke-opacity:1.0;stroke-width:2.0" /></g></g></g><g class="toyplot-coordinates-Axis" id="t2fde3792c7fa49708406fdd59d4237d5" transform="translate(50.0,300.0)translate(0,10.0)"><line x1="0" y1="0" x2="400.0" y2="0" style="" /><g><g transform="translate(0.0,6)"><text x="-6.95" y="8.555" style="fill:rgb(16.1%,15.3%,14.1%);fill-opacity:1.0;font-family:helvetica;font-size:10.0px;font-weight:normal;stroke:none;vertical-align:baseline;white-space:pre">0.0</text></g><g transform="translate(200.0,6)"><text x="-6.95" y="8.555" style="fill:rgb(16.1%,15.3%,14.1%);fill-opacity:1.0;font-family:helvetica;font-size:10.0px;font-weight:normal;stroke:none;vertical-align:baseline;white-space:pre">0.5</text></g><g transform="translate(400.0,6)"><text x="-6.95" y="8.555" style="fill:rgb(16.1%,15.3%,14.1%);fill-opacity:1.0;font-family:helvetica;font-size:10.0px;font-weight:normal;stroke:none;vertical-align:baseline;white-space:pre">1.0</text></g></g><g transform="translate(200.0,22)"><text x="-3.666" y="10.265999999999998" style="fill:rgb(16.1%,15.3%,14.1%);fill-opacity:1.0;font-family:helvetica;font-size:12.0px;font-style:italic;font-weight:bold;stroke:none;vertical-align:baseline;white-space:pre">p</text></g><g class="toyplot-coordinates-Axis-coordinates" style="visibility:hidden" transform=""><line x1="0" x2="0" y1="-3.0" y2="4.5" style="stroke:rgb(43.9%,50.2%,56.5%);stroke-opacity:1.0;stroke-width:1.0" /><text x="0" y="-6" style="alignment-baseline:alphabetic;fill:rgb(43.9%,50.2%,56.5%);fill-opacity:1.0;font-size:10px;font-weight:normal;stroke:none;text-anchor:middle" /></g></g><g class="toyplot-coordinates-Axis" id="t6ccca8c60d614b969256269d13bf6099" transform="translate(50.0,300.0)rotate(-90.0)translate(0,-10.0)"><line x1="0" y1="0" x2="249.9744923987348" y2="0" style="" /><g><g transform="translate(0.0,-6)"><text x="-6.95" y="-4.440892098500626e-16" style="fill:rgb(16.1%,15.3%,14.1%);fill-opacity:1.0;font-family:helvetica;font-size:10.0px;font-weight:normal;stroke:none;vertical-align:baseline;white-space:pre">0.0</text></g><g transform="translate(50.0,-6)"><text x="-6.95" y="-4.440892098500626e-16" style="fill:rgb(16.1%,15.3%,14.1%);fill-opacity:1.0;font-family:helvetica;font-size:10.0px;font-weight:normal;stroke:none;vertical-align:baseline;white-space:pre">0.1</text></g><g transform="translate(100.0,-6)"><text x="-6.95" y="-4.440892098500626e-16" style="fill:rgb(16.1%,15.3%,14.1%);fill-opacity:1.0;font-family:helvetica;font-size:10.0px;font-weight:normal;stroke:none;vertical-align:baseline;white-space:pre">0.2</text></g><g transform="translate(150.00000000000003,-6)"><text x="-6.95" y="-4.440892098500626e-16" style="fill:rgb(16.1%,15.3%,14.1%);fill-opacity:1.0;font-family:helvetica;font-size:10.0px;font-weight:normal;stroke:none;vertical-align:baseline;white-space:pre">0.3</text></g><g transform="translate(200.0,-6)"><text x="-6.95" y="-4.440892098500626e-16" style="fill:rgb(16.1%,15.3%,14.1%);fill-opacity:1.0;font-family:helvetica;font-size:10.0px;font-weight:normal;stroke:none;vertical-align:baseline;white-space:pre">0.4</text></g><g transform="translate(250.0,-6)"><text x="-6.95" y="-4.440892098500626e-16" style="fill:rgb(16.1%,15.3%,14.1%);fill-opacity:1.0;font-family:helvetica;font-size:10.0px;font-weight:normal;stroke:none;vertical-align:baseline;white-space:pre">0.5</text></g></g><g transform="translate(125.0,-22)"><text x="-3.666" y="0.0" style="fill:rgb(16.1%,15.3%,14.1%);fill-opacity:1.0;font-family:helvetica;font-size:12.0px;font-style:italic;font-weight:bold;stroke:none;vertical-align:baseline;white-space:pre">h</text></g><g class="toyplot-coordinates-Axis-coordinates" style="visibility:hidden" transform=""><line x1="0" x2="0" y1="3.0" y2="-4.5" style="stroke:rgb(43.9%,50.2%,56.5%);stroke-opacity:1.0;stroke-width:1.0" /><text x="0" y="6" style="alignment-baseline:hanging;fill:rgb(43.9%,50.2%,56.5%);fill-opacity:1.0;font-size:10px;font-weight:normal;stroke:none;text-anchor:middle" /></g></g><g transform="translate(250.0,42.0)"><text x="-68.45580000000001" y="-4.823" style="fill:rgb(16.1%,15.3%,14.1%);fill-opacity:1.0;font-family:helvetica;font-size:14.0px;font-style:italic;font-weight:bold;stroke:none;vertical-align:baseline;white-space:pre">h = 1 - (p</text><text x="-10.49580000000001" y="-7.763" style="fill:rgb(16.1%,15.3%,14.1%);fill-opacity:1.0;font-family:helvetica;font-size:9.799999999999999px;font-style:italic;font-weight:bold;stroke:none;vertical-align:baseline;white-space:pre">2</text><text x="-5.04700000000001" y="-4.823" style="fill:rgb(16.1%,15.3%,14.1%);fill-opacity:1.0;font-family:helvetica;font-size:14.0px;font-style:italic;font-weight:bold;stroke:none;vertical-align:baseline;white-space:pre"> + ((1 - p)</text><text x="53.682999999999986" y="-7.763" style="fill:rgb(16.1%,15.3%,14.1%);fill-opacity:1.0;font-family:helvetica;font-size:9.799999999999999px;font-style:italic;font-weight:bold;stroke:none;vertical-align:baseline;white-space:pre">2</text><text x="59.131799999999984" y="-4.823" style="fill:rgb(16.1%,15.3%,14.1%);fill-opacity:1.0;font-family:helvetica;font-size:14.0px;font-style:italic;font-weight:bold;stroke:none;vertical-align:baseline;white-space:pre">))</text></g></g></svg>