<svg class="toyplot-canvas-Canvas" xmlns:toyplot="http://www.sandia.gov/toyplot" xmlns:xlink="http://www.w3.org/1999/xlink" xmlns="http://www.w3.org/2000/svg" width="700.0px" height="500.0px" viewBox="0 0 700.0 500.0" preserveAspectRatio="xMidYMid meet" style="background-color:transparent;border-color:#292724;border-style:none;border-width:1.0;fill:rgb(16.1%,15.3%,14.1%);fill-opacity:1.0;font-family:Helvetica;font-size:12px;opacity:1.0;stroke:rgb(16.1%,15.3%,14.1%);stroke-opacity:1.0;stroke-width:1.0" id="t92fc7df939254e99956d374521debaf9"><g class="toyplot-coordinates-Cartesian" id="t879e8684fc144f6ebba0fe233ec02527"><clipPath id="t1e636079ac644f61a98994aa793c9f61"><rect x="40.0" y="40.0" width="620.0" height="420.0" /></clipPath><g clip-path="url(#t1e636079ac644f61a98994aa793c9f61)"><g class="toyplot-mark-Plot" style="fill:none" id="te8eee43efa4249f1aa39182f8b4021ec"><g class="toyplot-Series"><path d="M 50.0 450.0 L 56.12244897959184 316.66666666666663 L 62.24489795918367 250.0 L 68.36734693877551 209.99999999999997 L 74.48979591836734 183.33333333333331 L 80.61224489795919 164.28571428571425 L 86.73469387755102 150.0 L 92.85714285714286 138.8888888888889 L 98.9795918367347 130.0 L 105.10204081632654 122.72727272727275 L 111.22448979591837 116.66666666666669 L 117.3469387755102 111.53846153846149 L 123.46938775510203 107.14285714285712 L 129.59183673469389 103.33333333333331 L 135.71428571428572 100.0 L 141.83673469387756 97.05882352941177 L 147.95918367346937 94.44444444444446 L 154.08163265306123 92.10526315789468 L 160.20408163265307 90.00000000000003 L 166.32653061224488 88.09523809523813 L 172.44897959183672 86.36363636363633 L 178.57142857142856 84.78260869565216 L 184.6938775510204 83.3333333333333 L 190.81632653061226 82.00000000000003 L 196.93877551020407 80.76923076923075 L 203.06122448979593 79.62962962962959 L 209.18367346938777 78.57142857142856 L 215.30612244897958 77.58620689655169 L 221.42857142857142 76.66666666666666 L 227.55102040816328 75.8064516129032 L 233.67346938775512 75.0 L 239.79591836734693 74.24242424242422 L 245.91836734693874 73.52941176470588 L 252.0408163265306 72.85714285714286 L 258.16326530612247 72.22222222222223 L 264.2857142857143 71.62162162162159 L 270.40816326530614 71.05263157894734 L 276.53061224489795 70.51282051282053 L 282.65306122448976 70.00000000000003 L 288.7755102040816 69.51219512195124 L 294.89795918367344 69.04761904761907 L 301.0204081632653 68.60465116279073 L 307.1428571428571 68.18181818181816 L 313.265306122449 67.7777777777778 L 319.3877551020408 67.39130434782608 L 325.51020408163265 67.0212765957447 L 331.6326530612245 66.6666666666667 L 337.7551020408163 66.32653061224491 L 343.87755102040813 66.00000000000001 L 350.0 65.68627450980395 L 356.12244897959187 65.38461538461542 L 362.2448979591837 65.09433962264151 L 368.36734693877554 64.8148148148148 L 374.4897959183674 64.54545454545455 L 380.61224489795916 64.28571428571432 L 386.734693877551 64.03508771929829 L 392.85714285714283 63.79310344827589 L 398.9795918367347 63.55932203389827 L 405.10204081632656 63.33333333333337 L 411.2244897959184 63.11475409836067 L 417.34693877551024 62.9032258064516 L 423.46938775510205 62.69841269841265 L 429.59183673469386 62.5 L 435.7142857142857 62.307692307692264 L 441.8367346938775 62.12121212121211 L 447.95918367346934 61.94029850746272 L 454.0816326530612 61.7647058823529 L 460.204081632653 61.59420289855069 L 466.3265306122449 61.42857142857139 L 472.44897959183675 61.2676056338028 L 478.57142857142856 61.11111111111107 L 484.6938775510204 60.958904109589085 L 490.8163265306123 60.81081081081079 L 496.9387755102041 60.66666666666665 L 503.0612244897959 60.52631578947372 L 509.1836734693877 60.3896103896104 L 515.3061224489795 60.25641025641022 L 521.4285714285714 60.12658227848098 L 527.5510204081633 59.99999999999997 L 533.6734693877551 59.87654320987659 L 539.7959183673469 59.75609756097562 L 545.9183673469388 59.638554216867504 L 552.0408163265306 59.52380952380949 L 558.1632653061224 59.41176470588232 L 564.2857142857142 59.302325581395365 L 570.408163265306 59.19540229885056 L 576.530612244898 59.090909090909086 L 582.6530612244898 58.98876404494385 L 588.7755102040816 58.88888888888886 L 594.8979591836735 58.79120879120876 L 601.0204081632653 58.69565217391309 L 607.1428571428571 58.6021505376344 L 613.265306122449 58.510638297872305 L 619.3877551020408 58.42105263157897 L 625.5102040816327 58.3333333333333 L 631.6326530612245 58.24742268041234 L 637.7551020408163 58.163265306122454 L 643.8775510204082 58.08080808080805 L 650.0 58.00000000000001" style="stroke:rgb(40%,76.1%,64.7%);stroke-opacity:1.0;stroke-width:2.0" /></g></g></g><g class="toyplot-coordinates-Axis" id="t1035a503be0a45b2a1e2cc85f60edc50" transform="translate(50.0,450.0)translate(0,10.0)"><line x1="0" y1="0" x2="600.0" y2="0" style="" /><g><g transform="translate(0.0,6)"><text x="-3.892000000000001" y="11.977" style="fill:rgb(16.1%,15.3%,14.1%);fill-opacity:1.0;font-family:helvetica;font-size:14.0px;font-weight:normal;stroke:none;vertical-align:baseline;white-space:pre">2</text></g><g transform="translate(293.87755102040813,6)"><text x="-7.784000000000002" y="11.977" style="fill:rgb(16.1%,15.3%,14.1%);fill-opacity:1.0;font-family:helvetica;font-size:14.0px;font-weight:normal;stroke:none;vertical-align:baseline;white-space:pre">50</text></g><g transform="translate(600.0,6)"><text x="-11.676" y="11.977" style="fill:rgb(16.1%,15.3%,14.1%);fill-opacity:1.0;font-family:helvetica;font-size:14.0px;font-weight:normal;stroke:none;vertical-align:baseline;white-space:pre">100</text></g></g><g transform="translate(300.0,22)"><text x="-4.888" y="13.687999999999999" style="fill:rgb(16.1%,15.3%,14.1%);fill-opacity:1.0;font-family:helvetica;font-size:16.0px;font-style:italic;font-weight:bold;stroke:none;vertical-align:baseline;white-space:pre">n</text></g><g class="toyplot-coordinates-Axis-coordinates" style="visibility:hidden" transform=""><line x1="0" x2="0" y1="-3.0" y2="4.5" style="stroke:rgb(43.9%,50.2%,56.5%);stroke-opacity:1.0;stroke-width:1.0" /><text x="0" y="-6" style="alignment-baseline:alphabetic;fill:rgb(43.9%,50.2%,56.5%);fill-opacity:1.0;font-size:10px;font-weight:normal;stroke:none;text-anchor:middle" /></g></g><g class="toyplot-coordinates-Axis" id="t2c8d20cd67d34b74b57837e8f9c8c9e8" transform="translate(50.0,450.0)rotate(-90.0)translate(0,-10.0)"><line x1="0" y1="0" x2="392.0" y2="0" style="" /><g><g transform="translate(0.0,-6)"><text x="-9.73" y="0.0" style="fill:rgb(16.1%,15.3%,14.1%);fill-opacity:1.0;font-family:helvetica;font-size:14.0px;font-weight:normal;stroke:none;vertical-align:baseline;white-space:pre">1.0</text></g><g transform="translate(200.0,-6)"><text x="-9.73" y="0.0" style="fill:rgb(16.1%,15.3%,14.1%);fill-opacity:1.0;font-family:helvetica;font-size:14.0px;font-weight:normal;stroke:none;vertical-align:baseline;white-space:pre">1.5</text></g><g transform="translate(400.0,-6)"><text x="-9.73" y="0.0" style="fill:rgb(16.1%,15.3%,14.1%);fill-opacity:1.0;font-family:helvetica;font-size:14.0px;font-weight:normal;stroke:none;vertical-align:baseline;white-space:pre">2.0</text></g></g><g transform="translate(200.0,-22)"><text x="-59.128" y="0.0" style="fill:rgb(16.1%,15.3%,14.1%);fill-opacity:1.0;font-family:helvetica;font-size:16.0px;font-style:italic;font-weight:bold;stroke:none;vertical-align:baseline;white-space:pre">2N</text><text x="-38.68" y="0.0" style="fill:rgb(16.1%,15.3%,14.1%);fill-opacity:1.0;font-family:helvetica;font-size:16.0px;font-weight:bold;stroke:none;vertical-align:baseline;white-space:pre"> Generations</text></g><g class="toyplot-coordinates-Axis-coordinates" style="visibility:hidden" transform=""><line x1="0" x2="0" y1="3.0" y2="-4.5" style="stroke:rgb(43.9%,50.2%,56.5%);stroke-opacity:1.0;stroke-width:1.0" /><text x="0" y="6" style="alignment-baseline:hanging;fill:rgb(43.9%,50.2%,56.5%);fill-opacity:1.0;font-size:10px;font-weight:normal;stroke:none;text-anchor:middle" /></g></g><g transform="translate(350.0,42.0)"><text x="-36.3897" y="-6.200999999999999" style="fill:rgb(16.1%,15.3%,14.1%);fill-opacity:1.0;font-family:helvetica;font-size:18.0px;font-weight:bold;stroke:none;vertical-align:baseline;white-space:pre">E[</text><text x="-18.389699999999998" y="-6.200999999999999" style="fill:rgb(16.1%,15.3%,14.1%);fill-opacity:1.0;font-family:helvetica;font-size:18.0px;font-style:italic;font-weight:bold;stroke:none;vertical-align:baseline;white-space:pre">T</text><text x="-7.391699999999998" y="-3.6809999999999987" style="fill:rgb(16.1%,15.3%,14.1%);fill-opacity:1.0;font-family:helvetica;font-size:12.6px;font-style:italic;font-weight:bold;stroke:none;vertical-align:baseline;white-space:pre">MRCA</text><text x="30.395699999999998" y="-6.200999999999999" style="fill:rgb(16.1%,15.3%,14.1%);fill-opacity:1.0;font-family:helvetica;font-size:18.0px;font-weight:bold;stroke:none;vertical-align:baseline;white-space:pre">]</text></g></g></svg>